<?xml version="1.0" encoding="utf-8"?>
<!-- Generator: Adobe Illustrator 17.0.0, SVG Export Plug-In . SVG Version: 6.00 Build 0)  -->
<!DOCTYPE svg PUBLIC "-//W3C//DTD SVG 1.1//EN" "http://www.w3.org/Graphics/SVG/1.1/DTD/svg11.dtd">
<svg version="1.1" id="Layer_1" xmlns="http://www.w3.org/2000/svg" xmlns:xlink="http://www.w3.org/1999/xlink" x="0px" y="0px"
	 width="178px" height="287.7px" viewBox="0 0 178 287.7" enable-background="new 0 0 178 287.7" xml:space="preserve">
<g>
	<g>
		<g enable-background="new    ">
			<g>
				<path fill="#FDB933" d="M66,184.1c0.2-0.1,0.5-0.2,0.7-0.3c0.8-0.4,1.5-0.8,2.3-1.2c0,0,0.1-0.1,0.2-0.1c0,0,0,0,0,0
					c1-0.6,1.9-1.2,2.7-1.9c0.1-0.1,0.2-0.1,0.3-0.2c0.1,0,0.1-0.1,0.2-0.2c0.7-0.5,1.3-1.1,1.9-1.7c0,0,0.1,0,0.1-0.1
					c0.1-0.1,0.2-0.2,0.3-0.3c0.4-0.4,0.8-0.9,1.2-1.4c0.1-0.1,0.2-0.2,0.2-0.3c0.2-0.3,0.5-0.6,0.7-0.9l40.9-58.8
					c-0.3,0.4-0.6,0.8-0.9,1.2c-0.4,0.5-0.8,0.9-1.2,1.4c-0.1,0.1-0.2,0.3-0.4,0.4c-0.6,0.6-1.2,1.2-1.9,1.7
					c-0.1,0.1-0.3,0.2-0.4,0.3c-0.9,0.7-1.8,1.3-2.7,1.9c-0.1,0-0.1,0.1-0.2,0.1c-0.7,0.4-1.5,0.8-2.3,1.2c-0.2,0.1-0.5,0.2-0.7,0.3
					c-0.7,0.3-1.5,0.6-2.3,0.9c-0.2,0.1-0.4,0.2-0.7,0.3c-0.9,0.3-1.9,0.6-2.8,0.8c-0.3,0.1-0.6,0.1-0.9,0.2
					c-0.6,0.1-1.2,0.3-1.9,0.4c-0.4,0.1-0.7,0.1-1.1,0.1c-0.6,0.1-1.1,0.2-1.7,0.2c-0.4,0-0.8,0-1.2,0c-0.5,0-1.1,0.1-1.6,0
					c-0.5,0-0.9,0-1.4-0.1c-0.4,0-0.9,0-1.3-0.1c-0.5,0-0.9-0.1-1.4-0.2c-0.4-0.1-0.9-0.1-1.3-0.2c-0.3,0-0.5-0.1-0.8-0.2
					c-0.9-0.2-1.8-0.4-2.7-0.6c-0.6-0.2-1.2-0.3-1.9-0.5c-1.3-0.4-2.6-0.9-3.9-1.5c-0.8-0.4-1.6-0.7-2.3-1.1
					c-0.4-0.2-0.9-0.5-1.3-0.7c-0.6-0.3-1.2-0.7-1.7-1c-0.4-0.2-0.7-0.4-1.1-0.7c-0.6-0.4-1.2-0.9-1.8-1.3c-0.3-0.2-0.6-0.4-0.8-0.6
					c-0.7-0.5-1.3-1.1-1.9-1.6c-0.2-0.2-0.4-0.3-0.6-0.5c-3.3-3.1-6.1-6.7-8.4-10.9c-2.8-5-4.7-10.4-6-16.4
					c-1.2-5.9-2.4-14.5-3.4-25.8L7.8,123.1c1,11.2,2.1,19.8,3.4,25.8c1.3,5.9,3.2,11.4,6,16.4c2.3,4.2,5.1,7.8,8.4,10.9l0,0
					c0,0,0,0,0,0c0.2,0.2,0.4,0.3,0.6,0.5c0.6,0.5,1.2,1,1.8,1.5c0,0,0.1,0.1,0.1,0.1c0.3,0.2,0.5,0.4,0.8,0.6
					c0.5,0.4,1,0.7,1.5,1.1c0.1,0.1,0.2,0.1,0.3,0.2c0.3,0.2,0.7,0.4,1.1,0.7c0.4,0.2,0.8,0.5,1.2,0.7c0.2,0.1,0.4,0.2,0.5,0.3
					c0.4,0.2,0.9,0.5,1.3,0.7c0.3,0.2,0.7,0.4,1,0.5c0.4,0.2,0.9,0.4,1.3,0.6c0.6,0.3,1.3,0.5,1.9,0.8c0.7,0.3,1.3,0.5,2,0.7
					c0.4,0.1,0.9,0.3,1.3,0.4c0.2,0.1,0.3,0.1,0.5,0.1c0.9,0.2,1.8,0.5,2.7,0.6c0.2,0,0.4,0.1,0.5,0.1c0.1,0,0.1,0,0.2,0
					c0.4,0.1,0.9,0.1,1.3,0.2c0.5,0.1,0.9,0.1,1.4,0.2c0.4,0,0.9,0.1,1.3,0.1c0.4,0,0.8,0.1,1.2,0.1c0.1,0,0.2,0,0.2,0
					c0.5,0,1.1,0,1.6,0c0.4,0,0.8,0,1.2,0c0.6,0,1.1-0.1,1.7-0.2c0.4,0,0.7-0.1,1.1-0.1c0.6-0.1,1.2-0.2,1.9-0.4
					c0.3-0.1,0.6-0.1,0.9-0.2c0.9-0.2,1.9-0.5,2.8-0.8c0.1,0,0.2-0.1,0.3-0.1c0.1,0,0.2-0.1,0.4-0.1C64.5,184.7,65.3,184.4,66,184.1
					z"/>
				<path fill="#202933" d="M51.7,189.5c-0.3,0-0.6,0-0.9,0l-0.7,0c-0.4,0-0.8,0-1.1-0.1c-0.4,0-0.8-0.1-1.2-0.1l-0.7-0.1
					c-0.4,0-0.7-0.1-1.1-0.2c-0.4-0.1-0.5-0.1-0.7-0.1c-1.1-0.2-2-0.4-3-0.7c-0.3-0.1-0.4-0.1-0.6-0.1c-0.5-0.1-0.9-0.3-1.4-0.4
					c-0.7-0.2-1.4-0.5-2.1-0.7c-0.7-0.3-1.3-0.5-2-0.8c-0.5-0.2-0.9-0.4-1.3-0.6c-0.2-0.1-0.5-0.2-0.7-0.4l-0.4-0.2
					c-0.5-0.3-1-0.5-1.4-0.7l-0.6-0.3c-0.3-0.2-0.6-0.4-0.9-0.6l-0.7-0.4c-0.3-0.2-0.6-0.3-0.8-0.5l-0.4-0.2
					c-0.4-0.3-0.8-0.6-1.2-0.9l-0.7-0.5c-0.2-0.1-0.4-0.3-0.6-0.4c-0.8-0.6-1.4-1.2-2-1.7l-0.2-0.2c-0.1-0.1-0.3-0.2-0.4-0.4
					c-3.5-3.3-6.5-7.1-8.9-11.5c-2.8-5.1-4.9-10.8-6.2-17.1c-1.2-6-2.4-14.8-3.4-26.1c-0.1-0.6,0.1-1.2,0.4-1.6l40.9-58.8
					c0.6-0.9,1.7-1.3,2.7-1c1,0.3,1.8,1.1,1.8,2.2c1,11.1,2.1,19.7,3.3,25.5c1.2,5.7,3.1,11,5.7,15.7c2.2,4,4.8,7.4,7.9,10.3
					l0.5,0.5c0.6,0.5,1.2,1,1.8,1.5l0.8,0.6c0.6,0.4,1.1,0.8,1.7,1.2c0.2,0.2,0.5,0.3,0.7,0.4l0.3,0.2c0.5,0.3,1.1,0.7,1.6,1
					c0.4,0.2,0.8,0.4,1.2,0.6l-0.9,2.4l1.1-2.2c0.7,0.3,1.3,0.7,2,1c1.2,0.5,2.4,1,3.6,1.4c0.5,0.2,0.9,0.3,1.4,0.4l0.3,0.1
					c0.8,0.2,1.7,0.4,2.5,0.6l0.7,0.1c0.3,0,0.6,0.1,0.9,0.1l0.8,0.1c0.3,0,0.6,0.1,0.9,0.1c0.3,0,0.6,0,0.9,0.1l0.7,0
					c0.3,0,0.7,0.1,1,0c0.4,0,0.8,0,1.1,0l0.8,0c0.2,0,0.5,0,0.7,0c0.4,0,0.8-0.1,1.2-0.1l0.8-0.1c0.2,0,0.4,0,0.6-0.1
					c0.5-0.1,1-0.2,1.5-0.3l1.1-0.2c0.9-0.2,1.7-0.5,2.6-0.8l0.6-0.2c0.7-0.3,1.4-0.5,2.1-0.8l0.7-0.3c0.7-0.3,1.4-0.7,2.1-1.1
					c1-0.6,1.8-1.1,2.6-1.8l0.4-0.3c0.6-0.5,1.2-1,1.7-1.5c0,0,0.3-0.3,0.3-0.3c0.4-0.4,0.7-0.8,1.1-1.2c0.3-0.3,0.5-0.7,0.8-1l0,0
					c0.8-1.1,2.3-1.4,3.5-0.6c1.1,0.8,1.4,2.3,0.6,3.5l0,0c0,0,0,0,0,0l0,0c0,0,0,0,0,0L78.7,177c-0.2,0.4-0.5,0.7-0.8,1
					c0,0.1-0.2,0.2-0.2,0.3c-0.4,0.5-0.9,1-1.3,1.5c-0.1,0.1-0.2,0.2-0.3,0.3c-0.1,0.1-0.2,0.1-0.2,0.2c-0.5,0.5-1.2,1.2-2,1.8
					c0,0-0.2,0.2-0.2,0.2c-0.1,0.1-0.2,0.2-0.3,0.2c-0.9,0.7-1.9,1.4-2.9,2c0,0-0.1,0.1-0.1,0.1c-0.9,0.5-1.7,0.9-2.6,1.4l-0.8,0.4
					c-0.8,0.3-1.6,0.7-2.4,1c-0.2,0.1-0.3,0.1-0.4,0.2l-0.3,0.1c-1,0.3-2,0.6-3,0.9c-0.2,0.1-0.4,0.1-0.7,0.1l-0.3,0.1
					c-0.8,0.2-1.4,0.3-2,0.4c-0.3,0-0.5,0.1-0.8,0.1l-0.7,0.1c-0.5,0.1-1,0.1-1.5,0.2c-0.3,0-0.6,0-0.9,0l-0.4,0c-0.7,0-1.1,0-1.6,0
					l-0.3-2.5V189.5z M62.3,182.9l1,2.3l-0.8-2.4l1,2.3l-0.7-2.4c0.7-0.3,1.4-0.5,2.1-0.8l0.7-0.3c0.7-0.3,1.4-0.7,2.1-1.1
					c0,0,0.1-0.1,0.2-0.1c0,0,0,0,0,0c0.8-0.5,1.6-1,2.4-1.7c0.1,0,0.3-0.2,0.3-0.2c0.7-0.6,1.2-1.1,1.8-1.6
					c0.1-0.1,0.2-0.1,0.2-0.2c0.5-0.5,0.8-1,1.2-1.4c0,0,0.2-0.2,0.2-0.2c0.2-0.2,0.4-0.5,0.6-0.8l32.1-46.1
					c-0.4,0.2-0.8,0.3-1.2,0.5l-0.7,0.3c-1,0.3-2,0.6-3,0.9c-0.2,0.1-0.5,0.1-0.7,0.1l-0.3,0.1c-0.8,0.2-1.4,0.3-2,0.4
					c-0.3,0-0.6,0.1-0.8,0.1l-0.7,0.1c-0.5,0.1-1,0.1-1.5,0.2c-0.3,0-0.6,0-0.9,0l-0.7,0c-0.4,0-0.8,0-1.3,0c-0.5,0-1,0-1.4,0
					l-0.6,0c-0.4,0-0.7,0-1.1-0.1c-0.4,0-0.8-0.1-1.2-0.1l-0.7-0.1c-0.4,0-0.7-0.1-1.1-0.2c-0.2,0-0.4-0.1-0.6-0.1l-0.3-0.1
					c-1-0.2-1.9-0.4-2.9-0.7l-0.3-0.1c-0.6-0.2-1.1-0.3-1.7-0.5c-1.4-0.4-2.7-1-4.1-1.6c-0.8-0.3-1.5-0.7-2.2-1.1
					c0,0-0.3-0.1-0.3-0.1c-0.4-0.2-0.9-0.5-1.3-0.7c-0.6-0.3-1.2-0.7-1.8-1.1l-0.3-0.2c-0.3-0.2-0.6-0.4-0.9-0.5
					c-0.7-0.4-1.3-0.9-1.9-1.4l-0.3-0.2c-0.2-0.1-0.4-0.3-0.6-0.4c-0.7-0.6-1.4-1.1-2.1-1.7l-0.2-0.2c-0.1-0.1-0.3-0.2-0.4-0.4
					c-3.5-3.2-6.5-7.1-8.9-11.5c-2.8-5.1-4.9-10.8-6.2-17.1c-1-4.7-1.9-11.2-2.8-19.3l-36.5,52.5c1,10.7,2.1,18.9,3.2,24.6
					c1.2,5.7,3.1,11,5.7,15.7c2.2,3.9,4.8,7.4,7.9,10.2c0,0,0,0,0,0l0.5,0.5c0.6,0.5,1.1,1,1.7,1.4l1.3,0.9c0.3,0.2,0.7,0.5,1,0.7
					l0.3,0.2c0.2,0.2,0.5,0.3,0.7,0.4l0.8,0.5c0.2,0.1,0.5,0.3,0.7,0.4l0.5,0.3c0.4,0.2,0.8,0.4,1.2,0.6l0.5,0.3
					c0.2,0.1,0.3,0.2,0.5,0.3c0.4,0.2,0.8,0.4,1.2,0.6c0.6,0.3,1.2,0.5,1.8,0.7c0.6,0.2,1.2,0.5,1.8,0.7c0.4,0.1,0.8,0.3,1.3,0.4
					c0,0,0.4,0.1,0.5,0.1c0.8,0.2,1.7,0.4,2.5,0.6c0.1,0,0.3,0.1,0.4,0.1c0,0,0.3,0,0.3,0.1c0.3,0.1,0.6,0.1,0.9,0.1l0.7,0.1
					c0.3,0,0.6,0.1,1,0.1c0.3,0,0.6,0,0.9,0.1l0.8,0c0.3,0,0.6,0,0.8,0c0,0,0,0,0,0c0.5,0,0.9,0,1.3,0l0.6,0c0.2,0,0.5,0,0.7,0
					c0.4,0,0.8-0.1,1.3-0.1l0.7-0.1c0.2,0,0.4,0,0.6-0.1c0.5-0.1,1-0.2,1.5-0.3l1.1-0.2C60.5,183.4,61.4,183.2,62.3,182.9z"/>
			</g>
		</g>
		<g>
			<g>
				<path fill="#00A796" d="M48.7,64.3l-5.4-52l29.2-9.9L91,66.1c1,0.2,1.9,0.5,2.9,0.8c4.4,1.4,8.5,3.7,12.3,6.7
					c4.7,3.6,8.4,8,11.3,13.2c4.6,8.4,5.7,16.4,3.1,24c-2.6,7.5-8.1,12.8-16.6,15.6c-7.2,2.4-14.6,2.4-22,0
					c-1.3-0.4-2.6-0.9-3.9-1.5c-8.7-3.9-15.4-10-20-18.4c-2.8-5-4.7-10.4-6-16.4C50.9,84.2,49.8,75.6,48.7,64.3z"/>
				<path fill="#202933" d="M93.1,130.7c-3.9,0-7.9-0.7-11.9-2c-1.4-0.5-2.7-1-4.1-1.6c-9.2-4.1-16.3-10.7-21.2-19.5
					c-2.8-5.1-4.9-10.9-6.2-17.1c-1.2-6-2.4-14.8-3.4-26l-5.3-52c-0.1-1.2,0.6-2.2,1.7-2.6l29.2-9.9c0.6-0.2,1.3-0.2,2,0.2
					c0.6,0.3,1.1,0.9,1.2,1.5L93,64c0.5,0.2,1.1,0.3,1.6,0.5c4.6,1.5,9,3.9,13.1,7.1c4.9,3.8,8.9,8.5,11.9,14c5,9,6.1,17.8,3.3,26
					c-2.8,8.3-8.9,14.1-18.2,17.2C100.9,130.1,97,130.7,93.1,130.7z M46.1,14.1l5.1,50c1,11.1,2.1,19.7,3.3,25.5
					c1.2,5.7,3.1,11,5.7,15.7c4.4,8,10.6,13.7,18.8,17.4c1.2,0.5,2.4,1,3.6,1.4c6.9,2.3,13.7,2.3,20.4,0c7.8-2.6,12.7-7.2,15-14.1
					c2.4-6.9,1.4-14.1-2.9-22c-2.7-4.9-6.2-9-10.6-12.5c-3.6-2.8-7.5-4.9-11.6-6.3c-0.9-0.3-1.8-0.5-2.7-0.8
					c-0.9-0.2-1.5-0.9-1.8-1.7L70.9,5.7L46.1,14.1z"/>
			</g>
		</g>
		<g>
			<g>
				<path fill="#25408F" d="M25.6,176.1c-0.9-0.8-1.7-1.7-2.5-2.6c-1-1.1-2-2.4-2.9-3.6c-1-1.5-2-3-2.9-4.7c-2.7-5-4.7-10.4-6-16.4
					c-1.2-5.9-2.4-14.5-3.4-25.8l-5.3-52l40.9-58.8l5.3,52c1,11.2,2.1,19.8,3.4,25.8c1.2,6,3.2,11.4,6,16.4c0.9,1.7,1.9,3.2,2.9,4.7
					c0.9,1.3,1.9,2.5,2.9,3.6c0.8,0.9,1.6,1.8,2.5,2.6L25.6,176.1z"/>
				<path fill="#202933" d="M25.6,178.6c-0.6,0-1.2-0.2-1.7-0.7c-0.9-0.8-1.8-1.8-2.7-2.7c-1.1-1.2-2.2-2.5-3.1-3.9
					c-1.2-1.6-2.2-3.2-3.1-4.9c-2.8-5.2-4.9-10.9-6.2-17.1c-1.3-6-2.4-14.8-3.4-26.1L0,71.4c-0.1-0.6,0.1-1.2,0.4-1.7l40.9-58.8
					c0.6-0.9,1.7-1.3,2.7-1c1,0.3,1.8,1.1,1.9,2.2l5.3,52c1.1,11.4,2.1,19.8,3.3,25.5c1.2,5.7,3.1,11,5.7,15.7
					c0.8,1.5,1.7,3,2.8,4.4c0.9,1.2,1.8,2.4,2.8,3.4c0.9,1,1.6,1.7,2.4,2.4c0.9,0.8,1.1,2.3,0.4,3.3l-40.9,58.8
					c-0.4,0.6-1.1,1-1.8,1.1C25.8,178.6,25.7,178.6,25.6,178.6z M5.1,71.8l5.3,51c1,11.1,2.1,19.7,3.3,25.5c1.2,5.7,3.1,11,5.7,15.7
					c0.8,1.5,1.7,3,2.8,4.4c0.9,1.2,1.8,2.3,2.8,3.4c0.1,0.1,0.2,0.2,0.3,0.4l38-54.6c-0.4-0.4-0.7-0.8-1.1-1.2
					c-1.1-1.2-2.2-2.5-3.1-3.9c-1.1-1.6-2.2-3.2-3.1-4.9c-2.8-5.1-4.9-10.8-6.2-17c-1.2-5.9-2.4-14.4-3.4-26l-4.7-45.2L5.1,71.8z"/>
			</g>
		</g>
	</g>
	<g>
		<path fill="#FDB933" d="M119.7,282.4c0.2-0.1,0.5-0.2,0.7-0.3c0.7-0.3,1.3-0.6,1.9-1c0.1-0.1,0.2-0.1,0.3-0.1c0,0,0,0,0.1,0
			c0.9-0.5,1.7-1.1,2.5-1.8c0.1-0.1,0.2-0.1,0.3-0.2c0.1-0.1,0.1-0.1,0.2-0.2c0.6-0.5,1.3-1.1,1.8-1.7c0,0,0,0,0,0
			c0.1-0.1,0.1-0.2,0.2-0.2c0.4-0.5,0.9-1,1.3-1.5c0.1-0.1,0.1-0.1,0.2-0.2c0.2-0.3,0.5-0.6,0.7-0.9l40.9-58.8
			c-0.3,0.4-0.6,0.8-0.9,1.2c-0.4,0.5-0.8,1-1.3,1.5c-0.1,0.1-0.2,0.2-0.2,0.3c-0.6,0.6-1.2,1.1-1.8,1.7c-0.1,0.1-0.3,0.2-0.5,0.4
			c-0.8,0.6-1.6,1.2-2.5,1.8c-0.1,0.1-0.2,0.1-0.3,0.2c-0.6,0.4-1.3,0.7-1.9,1c-0.2,0.1-0.5,0.2-0.7,0.3c-0.6,0.3-1.3,0.5-2,0.8
			c-0.3,0.1-0.5,0.2-0.7,0.3c-0.9,0.3-1.8,0.6-2.7,0.8c-0.3,0.1-0.6,0.1-0.9,0.2c-0.6,0.1-1.2,0.3-1.8,0.4c-0.4,0.1-0.7,0.1-1.1,0.1
			c-0.5,0.1-1.1,0.1-1.6,0.2c-0.4,0-0.8,0-1.2,0c-0.5,0-1,0-1.5,0c-0.4,0-0.9,0-1.3-0.1c-0.5,0-0.9,0-1.4-0.1
			c-0.4,0-0.9-0.1-1.3-0.2c-0.5-0.1-0.9-0.1-1.4-0.2c-0.2,0-0.4-0.1-0.6-0.1c-1-0.2-1.9-0.4-2.9-0.7c-0.6-0.2-1.3-0.3-1.9-0.5
			c-1.4-0.5-2.9-1-4.3-1.7l-40.9,58.8c0.8,0.3,1.5,0.7,2.3,0.9c0.7,0.3,1.4,0.5,2.1,0.7c0.5,0.2,0.9,0.3,1.4,0.4
			c0.2,0,0.3,0.1,0.5,0.1c1,0.3,2,0.5,2.9,0.7c0.1,0,0.3,0.1,0.4,0.1c0,0,0.1,0,0.1,0c0.5,0.1,0.9,0.1,1.4,0.2
			c0.5,0.1,0.9,0.1,1.4,0.2c0.5,0,0.9,0.1,1.4,0.1c0.4,0,0.8,0.1,1.2,0.1c0,0,0.1,0,0.1,0c0.5,0,1,0,1.6,0c0.4,0,0.8,0,1.2,0
			c0.5,0,1.1-0.1,1.6-0.2c0.4,0,0.7-0.1,1.1-0.1c0.6-0.1,1.2-0.2,1.8-0.4c0.3-0.1,0.6-0.1,0.9-0.2c0.9-0.2,1.8-0.5,2.7-0.8
			c0.1,0,0.2-0.1,0.4-0.1c0.1,0,0.3-0.1,0.4-0.2C118.4,283,119.1,282.7,119.7,282.4z"/>
		<path fill="#202933" d="M106.1,287.7C106.1,287.7,106.1,287.7,106.1,287.7c-0.4,0-0.7,0-1,0l-0.8,0c-0.4,0-0.7,0-1.1-0.1
			c-0.4,0-0.7-0.1-1.1-0.1l-0.8-0.1c-0.4,0-0.7-0.1-1.1-0.2c-0.3,0-0.4-0.1-0.6-0.1c-1.1-0.2-2.1-0.5-3.2-0.7
			c-0.2,0-0.4-0.1-0.5-0.1c-0.5-0.1-1-0.3-1.5-0.5c-0.7-0.2-1.4-0.5-2.2-0.8c-0.8-0.3-1.6-0.6-2.4-1c-0.7-0.3-1.2-0.9-1.4-1.6
			c-0.2-0.7-0.1-1.5,0.4-2.1l40.9-58.8c0.7-1,2-1.3,3.1-0.9c1.4,0.6,2.7,1.1,4.1,1.6c0.5,0.2,1,0.3,1.5,0.4l0.3,0.1
			c0.9,0.3,1.8,0.5,2.7,0.6l0.3,0.1c0.5,0.1,0.8,0.1,1.1,0.2l0.9,0.1c0.3,0,0.5,0.1,0.8,0.1c0.3,0,0.6,0,0.8,0l0.8,0
			c0.3,0,0.6,0,0.9,0c0.4,0,0.7,0,1,0l0.8,0c0.2,0,0.4,0,0.6,0c0.4,0,0.7-0.1,1.1-0.1l0.8-0.1c0.2,0,0.4,0,0.5-0.1
			c0.5-0.1,1-0.2,1.4-0.3l1-0.2c0.8-0.2,1.6-0.4,2.5-0.7l0.7-0.3c0.6-0.2,1.2-0.5,1.8-0.7l0.6-0.3c0.6-0.3,1.2-0.6,1.8-0.9
			c0,0,0.2-0.1,0.2-0.1c0.8-0.5,1.6-1,2.4-1.6l0.4-0.3c0.6-0.5,1.1-1,1.6-1.5c0,0,0.2-0.2,0.2-0.2c0.4-0.4,0.8-0.9,1.1-1.3
			c0.3-0.3,0.5-0.7,0.8-1.1c0.8-1.1,2.3-1.4,3.5-0.6c1.1,0.8,1.4,2.3,0.6,3.5l0,0c0,0,0,0,0,0L132,275.6c-0.2,0.4-0.5,0.7-0.8,1.1
			c0,0.1-0.2,0.2-0.2,0.3c-0.4,0.5-0.9,1.1-1.4,1.6c-0.1,0.1-0.1,0.2-0.2,0.2c0,0-0.1,0.1-0.1,0.1c-0.7,0.7-1.3,1.2-2,1.8
			c0,0-0.1,0.1-0.2,0.2c-0.1,0.1-0.3,0.2-0.3,0.2c-0.9,0.7-1.8,1.3-2.7,1.8c-0.1,0-0.1,0.1-0.2,0.1c0,0-0.2,0.1-0.3,0.1
			c-0.7,0.4-1.4,0.7-2.1,1.1c-0.3,0.1-0.5,0.2-0.8,0.4c-0.7,0.3-1.4,0.6-2.1,0.9l-0.8,0.3c-0.9,0.3-1.9,0.6-2.8,0.8
			c-0.2,0.1-0.4,0.1-0.6,0.1l-0.3,0.1c-0.8,0.2-1.4,0.3-1.9,0.4c-0.3,0-0.5,0.1-0.8,0.1l-0.7,0.1c-0.5,0.1-1,0.1-1.4,0.2
			c-0.3,0-0.6,0-0.9,0l-0.7,0c-0.4,0-0.8,0-1.2,0l-0.3-2.5V287.7z M95,280.5c0.4,0.2,0.8,0.3,1.3,0.4c0.4,0.1,0.9,0.3,1.3,0.4
			c0,0,0.4,0.1,0.4,0.1c0.9,0.3,1.8,0.5,2.7,0.6c0.1,0,0.3,0.1,0.4,0.1c0.4,0.1,0.7,0.1,1,0.1l0.9,0.1c0.3,0,0.6,0.1,0.8,0.1
			c0.3,0,0.5,0,0.8,0l0.9,0.1c0.2,0,0.4,0,0.6,0c0.1,0,0.2,0,0.3,0c0.3,0,0.7,0,1,0l0.8,0c0.2,0,0.4,0,0.6,0c0.4,0,0.8-0.1,1.2-0.1
			l0.8-0.1c0.2,0,0.4,0,0.6-0.1c0.5-0.1,0.9-0.2,1.4-0.3l1-0.2c0.8-0.2,1.6-0.4,2.5-0.7l0.7-0.3c0.6-0.2,1.2-0.5,1.8-0.7l0.6-0.3
			c0.6-0.3,1.2-0.6,1.8-0.9c0,0,0.2-0.1,0.2-0.1c0,0,0.1,0,0.1,0c0.7-0.4,1.5-1,2.3-1.6c0.1,0,0.2-0.2,0.3-0.2l0.1-0.1
			c0.6-0.5,1.1-1,1.6-1.5l0.2-0.2c0.4-0.4,0.8-0.9,1.1-1.3c0,0,0.2-0.2,0.2-0.2c0.2-0.2,0.4-0.5,0.6-0.8l32.2-46.3
			c-0.2,0.1-0.4,0.1-0.6,0.2l-0.2,0.1c-0.2,0.1-0.4,0.1-0.6,0.2c-0.9,0.3-1.9,0.6-2.9,0.8c-0.2,0.1-0.4,0.1-0.7,0.1l-0.3,0.1
			c-0.8,0.2-1.4,0.3-1.9,0.4c-0.3,0-0.5,0.1-0.8,0.1l-0.7,0.1c-0.5,0.1-0.9,0.1-1.4,0.2c-0.3,0-0.6,0-0.9,0l-0.7,0
			c-0.4,0-0.8,0-1.2,0c-0.5,0-0.9,0-1.2,0l-0.8,0c-0.4,0-0.7,0-1.1-0.1c-0.3,0-0.7-0.1-1.1-0.1l-0.8-0.1c-0.4,0-0.7-0.1-1.1-0.2
			l-0.4-0.1c-1.2-0.2-2.2-0.5-3.3-0.8l-0.3-0.1c-0.6-0.2-1.1-0.3-1.7-0.5c-0.9-0.3-1.7-0.6-2.6-1L95,280.5z"/>
	</g>
	<g>
		<path fill="#25408F" d="M90.1,281.2c0.4,0.2,0.7,0.3,1.1,0.5l40.9-58.8c-0.8-0.3-1.5-0.7-2.2-1.1c-0.5-0.3-1-0.5-1.5-0.8
			c-0.6-0.3-1.1-0.7-1.7-1c-0.4-0.2-0.8-0.5-1.2-0.8c-0.6-0.4-1.1-0.8-1.7-1.2c-0.3-0.2-0.7-0.5-1-0.7c-0.5-0.4-1.1-0.9-1.6-1.3
			c-0.3-0.3-0.7-0.6-1-0.8c-0.3-0.3-0.6-0.6-0.9-0.9c-0.5-0.5-1.1-1-1.6-1.6c-0.2-0.2-0.4-0.5-0.6-0.7c-0.7-0.8-1.4-1.7-2.1-2.6
			c-0.4-0.5-0.7-0.9-1-1.4c-0.2-0.3-0.3-0.5-0.5-0.8c-0.6-0.9-1.1-1.8-1.6-2.7c-4.5-8.2-5.5-16.2-3.1-24c0.4-1.2,0.9-2.4,1.4-3.5
			c0.5-1.1,1.1-2.1,1.8-3.1l0,0l0,0l-40.9,58.8c-1.4,1.9-2.4,4.1-3.2,6.6c-2.5,7.8-1.4,15.8,3.1,24c0.5,0.9,1.1,1.8,1.6,2.7
			c0.2,0.3,0.3,0.5,0.5,0.8c0.2,0.3,0.4,0.6,0.6,0.9c0.1,0.2,0.3,0.3,0.4,0.5c0.7,0.9,1.4,1.8,2.1,2.6c0.1,0.2,0.3,0.4,0.4,0.5
			c0.1,0.1,0.1,0.1,0.2,0.2c0.5,0.5,1,1.1,1.6,1.6c0.3,0.3,0.5,0.6,0.8,0.8c0,0,0.1,0.1,0.1,0.1c0.3,0.3,0.7,0.6,1,0.9
			c0.5,0.4,0.9,0.8,1.4,1.2c0.1,0.1,0.1,0.1,0.2,0.1c0.3,0.3,0.7,0.5,1,0.7c0.4,0.3,0.9,0.7,1.3,1c0.1,0.1,0.2,0.1,0.4,0.2
			c0.4,0.3,0.8,0.5,1.2,0.8c0.4,0.2,0.8,0.5,1.2,0.7c0.2,0.1,0.3,0.2,0.5,0.3c0.5,0.3,1,0.5,1.5,0.8C89.3,280.8,89.7,281,90.1,281.2
			z"/>
		<path fill="#202933" d="M91.1,284.2c-0.3,0-0.7-0.1-1-0.2c-0.4-0.2-0.8-0.3-1.1-0.5c-0.3-0.1-0.5-0.3-0.8-0.4l-0.4-0.2
			c-0.6-0.3-1.1-0.6-1.6-0.8l-0.5-0.3c-0.3-0.2-0.6-0.4-0.9-0.5l-0.8-0.5c-0.3-0.2-0.6-0.4-0.9-0.6l-0.4-0.2c-0.4-0.2-0.7-0.5-1-0.7
			l-0.7-0.5c-0.3-0.2-0.5-0.4-0.7-0.5l-0.2-0.2c-0.4-0.3-0.7-0.6-1.1-0.9l-0.7-0.6c-0.2-0.2-0.5-0.4-0.7-0.6
			c-0.3-0.3-0.5-0.5-0.7-0.7l-0.3-0.3c-0.7-0.6-1.2-1.1-1.7-1.7c0,0-0.2-0.2-0.2-0.2c-0.1-0.1-0.2-0.3-0.3-0.4
			c-0.9-1-1.6-1.9-2.3-2.9c-0.2-0.2-0.3-0.4-0.4-0.5c-0.2-0.2-0.3-0.4-0.5-0.7l-0.8-1.1c-0.6-0.9-1.2-1.9-1.7-2.8
			c-4.8-8.8-5.9-17.6-3.3-26c0.9-2.7,2-5.1,3.5-7.3l40.9-58.8c0,0,0,0,0,0c0.5-0.7,1.4-1,2.1-1.1h0c1.4,0,2.5,1.1,2.5,2.5
			c0,0.7-0.3,1.3-0.7,1.8c-0.5,0.8-1,1.6-1.4,2.4c-0.5,1-0.9,2-1.3,3.1c-2.3,7.2-1.3,14.4,2.9,22c0.5,0.9,1,1.7,1.5,2.5l0.3,0.5
			c0.5,0.7,0.8,1.1,1.1,1.6c0.6,0.8,1.3,1.6,2,2.4l0.6,0.7c0.4,0.5,0.9,0.9,1.3,1.3l0.5,0.5c0.2,0.2,0.3,0.3,0.5,0.5
			c0.2,0.2,0.3,0.3,0.5,0.5l0.4,0.3c0.6,0.5,1,0.9,1.5,1.2c0.2,0.1,0.4,0.3,0.5,0.4l0.4,0.3c0.5,0.4,1.1,0.8,1.6,1.1
			c0.3,0.2,0.5,0.3,0.8,0.5l0.3,0.2c0.5,0.3,1,0.6,1.6,0.9c0.4,0.2,0.9,0.5,1.3,0.7l0.5,0.3c0.6,0.3,1.1,0.6,1.7,0.8
			c0.7,0.3,1.2,0.9,1.4,1.6c0.2,0.7,0.1,1.5-0.4,2.1l-40.9,58.8C92.7,283.8,91.9,284.2,91.1,284.2z M105,188.3l-31.9,45.8
			c-1.2,1.7-2.2,3.7-2.9,5.9c-2.3,7.2-1.3,14.4,2.9,22c0.5,0.9,1,1.7,1.5,2.5l0.7,1.1c0.1,0.2,0.2,0.3,0.3,0.5
			c0.2,0.2,0.3,0.3,0.4,0.5c0.6,0.8,1.3,1.6,2,2.4c0.1,0.1,0.2,0.2,0.3,0.4l0.2,0.3c0.4,0.5,0.9,0.9,1.3,1.4l0.5,0.5
			c0.1,0.1,0.2,0.2,0.4,0.4c0.3,0.3,0.5,0.4,0.7,0.6l0.8,0.7c0.3,0.2,0.6,0.5,0.9,0.7c0.4,0.3,0.6,0.4,0.8,0.6l0.8,0.6
			c0.3,0.2,0.5,0.4,0.8,0.6l0.3,0.2c0.2,0.2,0.5,0.3,0.8,0.5l0.9,0.5c0.2,0.1,0.4,0.3,0.6,0.4l0.5,0.2c0.4,0.2,0.9,0.5,1.3,0.7
			l0.3,0.2l38-54.7c-0.5-0.2-0.8-0.4-1.2-0.7c-0.6-0.3-1.2-0.7-1.8-1.1l-0.3-0.2c-0.3-0.2-0.7-0.4-1-0.6c-0.6-0.4-1.2-0.8-1.8-1.3
			l-0.3-0.2c-0.2-0.2-0.5-0.3-0.7-0.5c-0.5-0.4-1-0.8-1.5-1.2l-0.5-0.4c-0.2-0.2-0.5-0.4-0.7-0.6c-0.2-0.2-0.5-0.4-0.7-0.7l-0.3-0.3
			c-0.7-0.6-1.2-1.1-1.7-1.7c-0.1-0.2-0.3-0.3-0.4-0.5l-0.2-0.2c-0.8-0.9-1.5-1.8-2.2-2.7c-0.4-0.5-0.7-1-1.1-1.5l-0.5-0.8
			c-0.6-0.9-1.2-1.9-1.7-2.8C106.5,199.8,104.9,194,105,188.3z"/>
	</g>
	<g>
		<g>
			<path fill="#00A796" d="M132,222.9c-8.9-4-15.7-10.2-20.2-18.4c-4.5-8.2-5.5-16.2-3.1-24c2.5-7.8,7.9-13,16.2-15.8
				c7.1-2.4,14.5-2.3,22.1,0.2c1.3,0.4,2.6,0.9,3.8,1.5c9,3.9,15.7,10,20.2,18.2c4.5,8.2,5.5,16.3,3,24.2c-2.5,7.9-7.9,13.2-16.2,16
				c-7,2.4-14.2,2.3-21.6-0.1C134.9,224.1,133.5,223.5,132,222.9z"/>
			<path fill="#202933" d="M147.5,228.9c-3.9,0-7.9-0.7-11.9-2c-1.5-0.5-3-1.1-4.5-1.8c-9.4-4.2-16.6-10.8-21.3-19.5
				c-4.8-8.8-5.9-17.5-3.3-26c2.7-8.5,8.7-14.4,17.8-17.4c7.6-2.6,15.6-2.5,23.7,0.2c1.3,0.4,2.7,1,4,1.5
				c9.5,4.1,16.7,10.6,21.4,19.3c4.8,8.8,5.9,17.6,3.2,26.1c-2.8,8.7-8.8,14.6-17.8,17.6C155,228.3,151.3,228.9,147.5,228.9z
				 M135.6,165.4c-3.3,0-6.6,0.5-9.8,1.6c-7.6,2.5-12.4,7.2-14.6,14.2c-2.3,7.2-1.3,14.4,2.9,22c4.3,7.8,10.5,13.5,19,17.3
				c1.4,0.6,2.7,1.1,4.1,1.6c6.9,2.3,13.6,2.3,20,0.2c7.6-2.5,12.4-7.3,14.7-14.4c2.3-7.3,1.4-14.6-2.8-22.2
				c-4.2-7.7-10.6-13.5-19.1-17.1c-1.2-0.5-2.4-1-3.6-1.4C142.6,166,139,165.4,135.6,165.4z"/>
		</g>
	</g>
</g>
</svg>
