<?xml version="1.0" encoding="utf-8"?>
<!-- Generator: Adobe Illustrator 17.0.0, SVG Export Plug-In . SVG Version: 6.00 Build 0)  -->
<!DOCTYPE svg PUBLIC "-//W3C//DTD SVG 1.1//EN" "http://www.w3.org/Graphics/SVG/1.1/DTD/svg11.dtd">
<svg version="1.1" id="Layer_1" xmlns="http://www.w3.org/2000/svg" xmlns:xlink="http://www.w3.org/1999/xlink" x="0px" y="0px"
	 width="217.5px" height="166.1px" viewBox="0 0 217.5 166.1" enable-background="new 0 0 217.5 166.1" xml:space="preserve">
<g>
	<g>
		<g>
			<polygon fill="#25408F" points="215,96.4 144.9,163.6 2.9,102.2 72.9,35 			"/>
			<path fill="#202933" d="M144.9,166.1c-0.3,0-0.7-0.1-1-0.2L1.9,104.5c-0.8-0.3-1.3-1-1.5-1.8c-0.1-0.8,0.1-1.7,0.7-2.2l70-67.2
				c0.7-0.7,1.8-0.9,2.7-0.5L216,94.1c0.8,0.3,1.3,1,1.5,1.8c0.1,0.8-0.1,1.7-0.7,2.2l-70,67.2C146.2,165.8,145.6,166.1,144.9,166.1
				z M7.3,101.4l137.1,59.2l66.1-63.5L73.4,37.9L7.3,101.4z"/>
		</g>
	</g>
	<g>
		<g>
			<polygon fill="#DA1C5C" points="72.9,35 2.9,102.2 2.5,69.7 72.5,2.5 			"/>
			<path fill="#202933" d="M2.9,104.7c-0.3,0-0.7-0.1-1-0.2c-0.9-0.4-1.5-1.3-1.5-2.3L0,69.7c0-0.7,0.3-1.4,0.8-1.8l70-67.2
				c0.7-0.7,1.8-0.9,2.7-0.5C74.4,0.6,75,1.5,75,2.5L75.4,35c0,0.7-0.3,1.4-0.8,1.8L4.6,104C4.1,104.4,3.5,104.7,2.9,104.7z M5,70.8
				l0.3,25.6l65.1-62.5L70.1,8.3L5,70.8z"/>
		</g>
	</g>
	<g>
		<g>
			<polygon fill="#00A796" points="214.6,63.9 215,96.4 72.9,35 72.5,2.5 			"/>
			<path fill="#202933" d="M215,98.9c-0.3,0-0.7-0.1-1-0.2L71.9,37.3C71,36.9,70.4,36,70.4,35L70,2.5c0-0.8,0.4-1.6,1.1-2.1
				c0.7-0.5,1.6-0.5,2.4-0.2l142.1,61.4c0.9,0.4,1.5,1.3,1.5,2.3l0.4,32c0,0.2,0.1,0.3,0.1,0.5C217.5,97.7,216.4,98.9,215,98.9
				C215,98.9,215,98.9,215,98.9z M75.4,33.3l137,59.2l-0.3-27L75.1,6.3L75.4,33.3z"/>
		</g>
	</g>
</g>
</svg>
