<?xml version="1.0" encoding="utf-8"?>
<!-- Generator: Adobe Illustrator 17.0.0, SVG Export Plug-In . SVG Version: 6.00 Build 0)  -->
<!DOCTYPE svg PUBLIC "-//W3C//DTD SVG 1.1//EN" "http://www.w3.org/Graphics/SVG/1.1/DTD/svg11.dtd">
<svg version="1.1" id="Layer_1" xmlns="http://www.w3.org/2000/svg" xmlns:xlink="http://www.w3.org/1999/xlink" x="0px" y="0px"
	 width="836.3px" height="382.9px" viewBox="0 0 836.3 382.9" enable-background="new 0 0 836.3 382.9" xml:space="preserve">
<g>
	<g>
		<g>
			<polygon fill="#00A796" points="205.2,333.9 165.1,292.4 184,252.1 224.1,293.6 			"/>
			<path fill="#202933" d="M205.2,336.1c-0.6,0-1.2-0.2-1.6-0.7l-40.1-41.6c-0.6-0.7-0.8-1.7-0.4-2.5l19-40.3
				c0.3-0.7,0.9-1.1,1.7-1.2c0.7-0.1,1.5,0.1,2,0.7l40.1,41.6c0.6,0.7,0.8,1.7,0.4,2.5l-19,40.3c-0.3,0.7-0.9,1.1-1.7,1.2
				C205.4,336.1,205.3,336.1,205.2,336.1z M167.7,291.9l36.8,38.1l16.9-36l-36.8-38.1L167.7,291.9z"/>
		</g>
	</g>
	<g>
		<g>
			<polygon fill="#00A796" points="156.3,368.6 116.2,327 133,298.3 173.1,339.9 			"/>
			<path fill="#202933" d="M156.3,370.8c-0.6,0-1.2-0.2-1.6-0.7l-40.1-41.6c-0.7-0.7-0.8-1.8-0.3-2.7l16.8-28.7c0.4-0.6,1-1,1.7-1.1
				c0.7-0.1,1.4,0.2,1.9,0.7l40.1,41.6c0.7,0.7,0.8,1.8,0.3,2.7l-16.8,28.7c-0.4,0.6-1,1-1.7,1.1
				C156.5,370.8,156.4,370.8,156.3,370.8z M119,326.7l36.9,38.2l14.4-24.7L133.4,302L119,326.7z"/>
		</g>
	</g>
	<g>
		<path fill="#FDB933" d="M202.1,339c0.1-0.1,0.2-0.2,0.2-0.3c0.3-0.5,0.7-1,1-1.5c0.2-0.2,0.3-0.5,0.5-0.7c0.5-0.8,0.9-1.6,1.3-2.6
			l-40.1-41.6c-0.4,0.9-0.9,1.8-1.3,2.6c-0.1,0.3-0.3,0.5-0.5,0.7c-0.3,0.5-0.7,1-1,1.5c-0.2,0.3-0.4,0.5-0.6,0.7
			c-0.3,0.4-0.7,0.8-1,1.1c-0.2,0.2-0.5,0.5-0.7,0.7c-0.2,0.2-0.4,0.3-0.6,0.5c-0.3,0.3-0.7,0.5-1,0.8c-0.1,0.1-0.3,0.2-0.4,0.3
			c-0.5,0.3-1,0.6-1.5,0.8c-0.1,0-0.1,0.1-0.2,0.1c-0.5,0.2-0.9,0.4-1.4,0.5c-0.4,0.1-0.8,0.2-1.2,0.3c-0.3,0.1-0.6,0.1-0.9,0.2
			c-1.9,0.2-4.1,0.1-6.4-0.3c-3.9-0.7-8.4-2.1-13.4-4.5l40.1,41.6c5,2.3,9.5,3.8,13.4,4.5c2.3,0.4,4.5,0.5,6.4,0.3
			c0.1,0,0.2,0,0.3,0c0.2,0,0.4-0.1,0.6-0.1c0.4-0.1,0.8-0.1,1.2-0.3c0.1,0,0.1,0,0.2,0c0.4-0.1,0.8-0.3,1.2-0.5
			c0.1,0,0.1-0.1,0.2-0.1c0,0,0,0,0,0c0.4-0.2,0.9-0.4,1.3-0.7c0.1,0,0.1-0.1,0.2-0.1c0.1-0.1,0.3-0.2,0.4-0.3
			c0.2-0.1,0.4-0.3,0.6-0.4c0.1-0.1,0.3-0.2,0.4-0.3c0.2-0.2,0.4-0.3,0.6-0.5c0.1-0.1,0.2-0.2,0.4-0.3c0.1-0.1,0.2-0.3,0.3-0.4
			c0.3-0.3,0.7-0.7,1-1.1C201.9,339.3,202,339.2,202.1,339z"/>
		<path fill="#202933" d="M190.7,347c-1.4,0-3-0.1-4.6-0.4c-4.1-0.7-8.8-2.2-14-4.7c-0.2-0.1-0.5-0.3-0.7-0.5l-40.1-41.6
			c-0.7-0.8-0.8-2-0.2-2.8c0.6-0.9,1.8-1.2,2.8-0.7c4.8,2.2,9.1,3.7,12.8,4.3c2.1,0.4,4.1,0.4,5.8,0.2c0.1,0,0.2,0,0.4-0.1l0.4-0.1
			c0.4-0.1,0.7-0.1,1-0.2c0.4-0.1,0.8-0.2,1.1-0.4c0,0,0.2-0.1,0.2-0.1c0.4-0.2,0.8-0.4,1.2-0.7l0.2-0.1c0.4-0.3,0.7-0.5,1-0.7
			c0.2-0.1,0.3-0.3,0.5-0.4c0.2-0.2,0.4-0.4,0.6-0.6c0.3-0.3,0.6-0.7,0.9-1c0.2-0.2,0.3-0.4,0.5-0.7c0.3-0.4,0.6-0.9,0.9-1.4
			l0.4-0.7c0.4-0.7,0.8-1.5,1.2-2.4c0.3-0.7,0.9-1.1,1.6-1.3c0.7-0.1,1.5,0.1,2,0.6l40.1,41.6c0.6,0.7,0.8,1.6,0.4,2.5
			c-0.5,1-0.9,1.9-1.4,2.7c-0.1,0.2-0.2,0.4-0.3,0.6l-0.1,0.2c-0.4,0.6-0.7,1.1-1.1,1.6c-0.1,0.2-0.2,0.3-0.3,0.4
			c-0.1,0.1-0.2,0.3-0.3,0.4c-0.4,0.5-0.8,0.9-1.2,1.3c-0.2,0.2-0.3,0.3-0.4,0.4c-0.1,0.1-0.2,0.2-0.3,0.3c-0.3,0.3-0.5,0.4-0.7,0.6
			c-0.2,0.2-0.3,0.3-0.5,0.4c-0.2,0.1-0.3,0.2-0.5,0.4l-1.4-1.7l1.2,1.9c-0.1,0.1-0.3,0.2-0.4,0.3c-0.1,0.1-0.2,0.1-0.3,0.2
			c-0.5,0.3-1,0.5-1.5,0.8c-0.1,0-0.3,0.1-0.3,0.1c-0.4,0.2-0.9,0.4-1.4,0.5c-0.1,0-0.3,0.1-0.3,0.1c-0.3,0.1-0.8,0.2-1.2,0.3
			c-0.4,0.1-0.6,0.1-0.8,0.2l-0.3,0C192.4,346.9,191.5,347,190.7,347z M174.4,338.1c4.7,2.1,8.9,3.5,12.4,4.1
			c2.1,0.4,4.1,0.4,5.8,0.2c0,0,0.2,0,0.2,0c0.2-0.1,0.4-0.1,0.5-0.1c0.4-0.1,0.7-0.1,1-0.2c0.1,0,0.2-0.1,0.3-0.1
			c0.2-0.1,0.5-0.2,0.8-0.3c0,0,0.2-0.1,0.2-0.1c0.3-0.1,0.7-0.3,1-0.5l0.8-0.5c0.1-0.1,0.2-0.1,0.2-0.2l0.3-0.3
			c0.2-0.1,0.3-0.3,0.5-0.4c0,0,0.2-0.2,0.2-0.2c0.2-0.2,0.3-0.3,0.4-0.4c0.3-0.3,0.6-0.6,0.9-1c0.1-0.1,0.2-0.2,0.3-0.3
			c0.1-0.2,0.2-0.3,0.3-0.4c0.3-0.4,0.6-0.9,0.9-1.3l0.4-0.7c0.2-0.3,0.4-0.7,0.6-1l-36.9-38.2c-0.1,0.2-0.2,0.3-0.3,0.5l-0.1,0.2
			c-0.4,0.6-0.7,1.1-1.1,1.6c-0.2,0.3-0.4,0.6-0.6,0.8c-0.4,0.4-0.7,0.9-1.1,1.3c-0.3,0.3-0.5,0.6-0.8,0.8c-0.2,0.2-0.4,0.4-0.7,0.6
			c-0.4,0.3-0.8,0.6-1.2,0.9c-0.2,0.2-0.4,0.3-0.5,0.3c-0.6,0.4-1.2,0.7-1.8,1c-0.1,0-0.2,0.1-0.3,0.1c-0.5,0.2-1,0.4-1.6,0.6
			c-0.5,0.1-0.9,0.2-1.4,0.3l-0.3,0.1c-0.3,0.1-0.5,0.1-0.8,0.1c-2.1,0.2-4.5,0.2-7-0.3c-1.4-0.2-2.9-0.6-4.5-1L174.4,338.1z"/>
	</g>
	<g>
		<path fill="#FDB933" d="M247.5,225.6c-3.5-1-6.8-1.7-10-2.3c-1.5-0.2-2.9-0.4-4.4-0.6c-0.4,0-0.8-0.1-1.1-0.1
			c-1.3-0.1-2.5-0.2-3.7-0.2c-0.2,0-0.4,0-0.6,0c-1.4,0-2.7,0-4,0c-0.3,0-0.7,0-1,0.1c-1.1,0.1-2.2,0.2-3.2,0.3
			c-0.2,0-0.4,0-0.6,0.1c-0.1,0-0.2,0-0.3,0c-0.7,0.1-1.4,0.2-2,0.3c-0.3,0.1-0.7,0.1-1,0.2c-1,0.2-2,0.4-2.9,0.7
			c-0.3,0.1-0.6,0.2-0.8,0.2c-0.4,0.1-0.7,0.3-1.1,0.4c-0.8,0.3-1.6,0.6-2.4,0.9c-0.2,0.1-0.4,0.1-0.6,0.2c-0.4,0.2-0.7,0.4-1,0.5
			c-0.6,0.3-1.3,0.6-1.9,1c-0.2,0.1-0.5,0.2-0.7,0.4c-0.3,0.2-0.6,0.4-0.9,0.6c-0.6,0.4-1.2,0.8-1.8,1.3c-0.2,0.2-0.5,0.3-0.7,0.5
			c-0.2,0.2-0.5,0.4-0.7,0.6c-0.8,0.6-1.5,1.3-2.3,2c-0.3,0.2-0.5,0.4-0.8,0.7c-0.2,0.2-0.4,0.4-0.6,0.6c-0.3,0.3-0.6,0.7-1,1
			c-0.6,0.7-1.2,1.3-1.8,2c-0.3,0.4-0.6,0.7-0.9,1.1c-0.2,0.2-0.3,0.4-0.5,0.6c-0.4,0.6-0.9,1.2-1.3,1.8c-0.3,0.4-0.6,0.8-0.8,1.1
			c-0.8,1.2-1.6,2.5-2.4,3.8c-1.6,2.8-2.8,5-3.6,6.6l40.1,41.6c0.7-1.6,1.9-3.8,3.6-6.6c0.8-1.3,1.6-2.6,2.4-3.8
			c0.3-0.4,0.6-0.8,0.8-1.1c0.6-0.8,1.2-1.6,1.8-2.4c0.3-0.4,0.6-0.7,0.9-1.1c0.6-0.7,1.2-1.4,1.8-2c0.3-0.3,0.6-0.7,1-1
			c0.5-0.5,0.9-0.9,1.4-1.3c0.7-0.7,1.5-1.3,2.3-2c0.5-0.4,0.9-0.7,1.4-1.1c0.6-0.4,1.2-0.9,1.8-1.3c0.5-0.3,1-0.7,1.6-1
			c0.6-0.4,1.2-0.7,1.9-1c0.5-0.3,1.1-0.5,1.6-0.8c0.8-0.3,1.6-0.6,2.4-0.9c0.6-0.2,1.3-0.5,1.9-0.7c1-0.3,1.9-0.5,2.9-0.7
			c0.3-0.1,0.7-0.1,1-0.2c0.7-0.1,1.3-0.2,2-0.3c0.3,0,0.6-0.1,0.8-0.1c1.1-0.1,2.1-0.2,3.2-0.3c0.3,0,0.7,0,1-0.1
			c1.3-0.1,2.7-0.1,4,0c0.2,0,0.4,0,0.6,0c1.2,0,2.4,0.1,3.7,0.2c0.4,0,0.8,0.1,1.1,0.1c1.4,0.2,2.9,0.3,4.4,0.6
			c3.2,0.5,6.6,1.3,10,2.3L247.5,225.6z"/>
		<path fill="#202933" d="M224.1,295.9c-0.6,0-1.2-0.2-1.6-0.7l-40.1-41.6c-0.6-0.7-0.8-1.6-0.4-2.5c0.8-1.7,2-4,3.7-6.8
			c0.8-1.3,1.6-2.6,2.5-4c0.2-0.3,0.4-0.5,0.6-0.8l0.7-0.9c0.3-0.5,0.7-0.9,1-1.4c0.1-0.1,0.2-0.3,0.3-0.4l0.2-0.2
			c0.3-0.3,0.5-0.7,0.8-1c0.7-0.9,1.4-1.6,2-2.3c0.3-0.4,0.7-0.7,1-1.1l0.2-0.2c0.1-0.1,0.3-0.3,0.4-0.4c0.2-0.2,0.4-0.3,0.6-0.5
			l0.3-0.2c0.8-0.7,1.6-1.4,2.4-2.1l0.2-0.2c0.2-0.2,0.3-0.3,0.5-0.4c0.2-0.1,0.4-0.3,0.5-0.4l0.2-0.2c0.6-0.5,1.3-0.9,2-1.3
			l0.3-0.2c0.2-0.2,0.4-0.3,0.7-0.4c0.2-0.1,0.3-0.2,0.5-0.3l0.2-0.1c0.6-0.4,1.3-0.7,2-1l0.4-0.2c0.2-0.1,0.5-0.3,0.8-0.4
			c0.2-0.1,0.3-0.1,0.5-0.2c1-0.4,1.9-0.7,2.7-1l0.4-0.1c0.3-0.1,0.5-0.2,0.8-0.3l0.9-0.3c1-0.3,2-0.5,3.1-0.8
			c0.2,0,0.5-0.1,0.7-0.1l0.4-0.1c0.7-0.1,1.4-0.3,2.1-0.4l0.3,0c0.1,0,0.3,0,0.4,0c1.3-0.2,2.4-0.3,3.5-0.3l1-0.1
			c1.4-0.1,2.8-0.1,4.2,0l0.4,0c1.5,0.1,2.8,0.1,4.1,0.3c0.4,0,0.8,0.1,1.2,0.1c1.5,0.2,3,0.3,4.5,0.6c3.3,0.6,6.8,1.3,10.3,2.3
			c0.4,0.1,0.7,0.3,1,0.6l40.1,41.6c0.7,0.7,0.8,1.8,0.3,2.7c-0.5,0.9-1.5,1.3-2.5,1c-3.4-1-6.7-1.7-9.8-2.2
			c-1.4-0.2-2.9-0.4-4.3-0.6l-1.1-0.1c-1.2-0.1-2.4-0.2-3.6-0.2l-0.5,0c-1.3,0-2.6,0-3.9,0l-1,0.1c-1,0.1-2.1,0.2-3.1,0.3l-0.8,0.1
			c-0.7,0.1-1.3,0.2-1.9,0.3l-1,0.2c-0.9,0.2-1.9,0.4-2.8,0.7c-0.4,0.1-0.8,0.3-1.2,0.4l-0.6,0.2c-0.8,0.3-1.5,0.5-2.3,0.9
			c-0.5,0.2-1,0.5-1.5,0.7c-0.6,0.3-1.2,0.6-1.7,0.9c-0.5,0.3-1,0.6-1.5,0.9c-0.6,0.4-1.2,0.8-1.7,1.2c-0.4,0.3-0.9,0.7-1.3,1
			c-0.7,0.6-1.4,1.2-2.1,1.9l-0.3,0.3c-0.3,0.3-0.7,0.6-1,0.9c-0.3,0.3-0.6,0.6-0.9,1c-0.6,0.6-1.2,1.3-1.7,1.9l-0.2,0.2
			c-0.2,0.3-0.4,0.5-0.7,0.8c-0.6,0.7-1.1,1.5-1.7,2.3l-0.3,0.5c-0.2,0.2-0.3,0.4-0.5,0.6c-0.9,1.3-1.6,2.5-2.4,3.7
			c-1.6,2.7-2.7,4.9-3.5,6.4c-0.3,0.7-0.9,1.1-1.6,1.3C224.4,295.8,224.2,295.9,224.1,295.9z M186.7,251.6l36.8,38.2
			c0.6-1.2,1.4-2.5,2.2-3.9c0.8-1.3,1.6-2.6,2.5-4c0.2-0.3,0.4-0.5,0.6-0.8l0.3-0.4c0.6-0.8,1.2-1.7,1.8-2.5
			c0.2-0.3,0.5-0.6,0.8-0.9l0.2-0.2c0.6-0.7,1.2-1.4,1.9-2.1c0.3-0.4,0.7-0.7,1-1.1c0.4-0.4,0.8-0.7,1.1-1.1l0.3-0.3
			c0.8-0.7,1.6-1.4,2.4-2.1c0.5-0.4,1-0.8,1.5-1.1c0.6-0.5,1.3-0.9,2-1.3c0.6-0.4,1.1-0.7,1.7-1c0.7-0.4,1.3-0.7,2-1
			c0.6-0.3,1.2-0.6,1.7-0.8c0.9-0.4,1.7-0.7,2.6-1l0.6-0.2c0.5-0.2,1-0.4,1.5-0.5c1-0.3,2-0.5,3.1-0.8c0.2,0,0.5-0.1,0.7-0.1
			l0.4-0.1c0.7-0.1,1.4-0.3,2.1-0.4l0.9-0.1c1.1-0.1,2.2-0.2,3.3-0.3l1-0.1c1.4-0.1,2.8-0.1,4.2,0l0.4,0c1.5,0.1,2.7,0.1,4,0.3
			l1.2,0.1c1.5,0.2,3,0.3,4.5,0.6c0.9,0.2,1.8,0.3,2.8,0.5l-34.4-35.6c-3.2-0.9-6.3-1.6-9.2-2.1c-1.4-0.2-2.9-0.4-4.3-0.6l-1.1-0.1
			c-1.2-0.1-2.4-0.2-3.6-0.2l-0.6,0c-1.3,0-2.6,0-3.9,0l-1,0.1c-1,0.1-2.1,0.2-3.1,0.3l-0.8,0.1c-0.7,0.1-1.3,0.2-2,0.3l-1,0.2
			c-0.9,0.2-1.9,0.4-2.8,0.7l-0.8,0.2c-0.1,0-0.3,0.1-0.4,0.2c-0.2,0.1-0.4,0.2-0.6,0.2c-0.8,0.3-1.5,0.5-2.3,0.9
			c-0.1,0.1-0.3,0.1-0.4,0.2c-0.3,0.1-0.4,0.2-0.6,0.3c-0.2,0.1-0.4,0.2-0.5,0.3c-0.6,0.3-1.2,0.6-1.7,0.9c-0.1,0.1-0.3,0.2-0.4,0.2
			l-0.2,0.1c-0.1,0.1-0.2,0.2-0.4,0.2c-0.2,0.1-0.3,0.2-0.5,0.3c-0.6,0.4-1.2,0.8-1.7,1.2c-0.1,0.1-0.3,0.2-0.4,0.3
			c-0.1,0.1-0.2,0.1-0.2,0.2c-0.1,0.1-0.1,0.1-0.2,0.2c-0.1,0.1-0.3,0.3-0.4,0.4c-0.7,0.6-1.4,1.2-2.1,1.9c-0.1,0.1-0.3,0.3-0.5,0.4
			c-0.1,0.1-0.2,0.2-0.3,0.3l-0.6,0.6c-0.3,0.3-0.6,0.6-0.9,1c-0.6,0.6-1.2,1.3-1.7,1.9c-0.4,0.5-0.6,0.7-0.9,1l-0.4,0.5
			c-0.3,0.4-0.6,0.8-0.9,1.2l-0.7,1c-0.2,0.2-0.3,0.4-0.5,0.7c-0.9,1.3-1.6,2.5-2.4,3.7C188.3,248.6,187.4,250.3,186.7,251.6z"/>
	</g>
	<g>
		<path fill="#00A796" d="M265.8,242.4c-3-8.5-1.2-18.5,5.5-30c1.8-3.1,3.3-5.4,4.3-6.9l26.2-36.9c4.2-5.8,5.1-10.8,2.6-15
			c-0.3-0.6-0.7-1.2-1.2-1.7s-0.9-1.1-1.5-1.7l-40.1-41.6c1.1,1.1,2,2.3,2.6,3.4c2.4,4.2,1.6,9.2-2.6,15l-26.2,36.9
			c-1.1,1.5-2.5,3.8-4.3,6.9c-6.7,11.5-8.6,21.5-5.5,30c1.8,4.9,4.9,9.7,9.5,14.5l40.1,41.6C270.7,252.1,267.5,247.3,265.8,242.4z"
			/>
		<path fill="#202933" d="M275.3,259.1c-0.6,0-1.2-0.2-1.6-0.7l-40.1-41.6c-4.8-5-8.1-10.1-10-15.3c-3.2-9.1-1.3-19.8,5.7-31.8
			c1.8-3.1,3.3-5.5,4.5-7.1l26.2-36.9c3.7-5.1,4.5-9.2,2.5-12.6c-0.6-1-1.4-2-2.3-3l0,0l0,0c-0.9-0.9-0.8-2.3,0.1-3.1
			c0.9-0.9,2.3-0.8,3.1,0.1l40.1,41.6c0.6,0.6,1.1,1.3,1.6,1.9c0.5,0.6,0.9,1.3,1.3,2c2.9,5.1,2,10.9-2.8,17.5l-26.2,36.9
			c-1.1,1.5-2.5,3.8-4.2,6.7c-6.3,10.8-8.1,20.3-5.4,28.1c1.6,4.6,4.7,9.2,9,13.7l0,0c0.9,0.9,0.8,2.3-0.1,3.1
			C276.4,258.9,275.8,259.1,275.3,259.1z M268,118.1c-0.3,3.2-1.8,6.6-4.4,10.2l-26.2,36.9c-1.1,1.5-2.5,3.8-4.2,6.7
			c-6.3,10.8-8.1,20.3-5.4,28.1c1.6,4.6,4.7,9.2,9,13.7l26.2,27.2c-2.2-8.6-0.1-18.6,6.4-29.7c1.8-3.1,3.3-5.5,4.5-7.1l26.2-36.9
			c3.7-5.1,4.5-9.2,2.5-12.6c-0.3-0.5-0.6-1-1-1.5c-0.4-0.5-0.8-1-1.3-1.5L268,118.1z"/>
	</g>
	<g>
		<polygon fill="#00A796" points="305.8,113 265.7,71.4 248.9,100.1 289,141.7 		"/>
		<path fill="#202933" d="M289,143.9c-0.6,0-1.2-0.2-1.6-0.7l-40.1-41.6c-0.7-0.7-0.8-1.8-0.3-2.7l16.8-28.7c0.4-0.6,1-1,1.7-1.1
			c0.7-0.1,1.4,0.2,1.9,0.7l40.1,41.6c0.7,0.7,0.8,1.8,0.3,2.7L291,142.8c-0.4,0.6-1,1-1.7,1.1C289.2,143.9,289.1,143.9,289,143.9z
			 M251.7,99.8l36.9,38.2l14.4-24.7l-36.9-38.2L251.7,99.8z"/>
	</g>
	<g>
		<path fill="#FDB933" d="M312.5,116.3c1.1,0.6,2.2,1.1,3.2,1.7c0.6,0.3,1.2,0.7,1.8,1c0.9,0.5,1.8,1,2.7,1.5c0.6,0.3,1.2,0.7,1.7,1
			c0.8,0.5,1.6,1,2.4,1.5c0.6,0.4,1.2,0.8,1.8,1.2c0.7,0.5,1.4,0.9,2.1,1.4c0.6,0.4,1.1,0.8,1.7,1.2c0.6,0.5,1.3,0.9,1.9,1.4
			c0.5,0.4,1,0.8,1.5,1.2c0.6,0.5,1.1,0.9,1.7,1.4c0.5,0.4,0.9,0.8,1.4,1.2c0.8,0.7,1.6,1.5,2.3,2.2l-40.1-41.6
			c-0.5-0.5-1.1-1.1-1.6-1.6c-0.2-0.2-0.4-0.4-0.6-0.6c-0.4-0.4-0.9-0.8-1.4-1.2c-0.5-0.5-1.1-0.9-1.7-1.4c-0.5-0.4-1-0.8-1.5-1.2
			c-0.6-0.5-1.2-0.9-1.9-1.4c-0.6-0.4-1.1-0.8-1.7-1.2c-0.7-0.5-1.4-0.9-2.1-1.4c-0.6-0.4-1.2-0.8-1.8-1.2c-0.3-0.2-0.6-0.4-0.9-0.6
			c-0.5-0.3-1-0.6-1.5-0.9c-0.6-0.3-1.1-0.7-1.7-1c-0.9-0.5-1.8-1-2.7-1.5c-0.6-0.3-1.2-0.7-1.8-1c-1-0.6-2.1-1.1-3.2-1.7
			c-0.5-0.3-1-0.5-1.6-0.8c-1.7-0.8-3.4-1.7-5.1-2.5l40.1,41.6c1.8,0.8,3.5,1.6,5.1,2.5C311.5,115.7,312,116,312.5,116.3z"/>
		<path fill="#202933" d="M338.6,136.5c-0.6,0-1.2-0.2-1.6-0.7l0,0l0,0c-0.7-0.7-1.4-1.4-2.2-2.1c-0.4-0.4-0.9-0.8-1.3-1.2
			c-0.5-0.5-1.1-0.9-1.6-1.4c-0.5-0.4-1-0.8-1.5-1.2c-0.6-0.5-1.2-0.9-1.8-1.4c-0.5-0.4-1.1-0.8-1.7-1.2c-0.7-0.5-1.3-0.9-2-1.4
			c-0.6-0.4-1.2-0.8-1.8-1.2c-0.8-0.5-1.5-1-2.3-1.4l-0.3-0.2c-0.5-0.3-0.9-0.6-1.4-0.8c-0.9-0.5-1.8-1-2.7-1.5l-1.8-1
			c-1-0.6-2.1-1.1-3.2-1.7l-1.6-0.8c-1.6-0.8-3.3-1.6-5.1-2.4c-0.2-0.1-0.5-0.3-0.7-0.5L264.1,73c-0.7-0.8-0.8-2-0.2-2.8
			c0.6-0.9,1.8-1.2,2.8-0.7c1.8,0.8,3.5,1.7,5.2,2.5l1.6,0.8c1.1,0.6,2.2,1.1,3.3,1.7c0.4,0.2,0.9,0.5,1.3,0.7l0.5,0.3
			c0.9,0.5,1.9,1,2.7,1.6c0.5,0.3,1,0.6,1.4,0.9l0.9,0.6c0.3,0.2,0.6,0.4,0.9,0.6l0.9,0.6c0.6,0.4,1.3,0.8,1.9,1.2
			c0.7,0.5,1.4,1,2.1,1.4c0.6,0.4,1.2,0.8,1.7,1.2c0.7,0.5,1.3,1,1.9,1.4c0.5,0.4,1.1,0.8,1.6,1.3c0.6,0.5,1.2,1,1.7,1.5
			c0.5,0.4,1,0.8,1.4,1.3l0.2,0.2c0.1,0.1,0.3,0.3,0.4,0.4c0.6,0.6,1.1,1.1,1.7,1.7l40.1,41.6c0.9,0.9,0.8,2.3-0.1,3.1
			C339.7,136.3,339.1,136.5,338.6,136.5z M307.1,111.2c1.7,0.8,3.2,1.5,4.8,2.3l1.6,0.8c1.1,0.6,2.2,1.1,3.2,1.7
			c0.4,0.2,0.8,0.5,1.2,0.7l0.6,0.3c0.2,0.1,0.4,0.2,0.5,0.3l-22.2-23c-0.5-0.5-1-1-1.6-1.5l-0.6-0.6c-0.4-0.4-0.9-0.8-1.3-1.2
			c-0.5-0.5-1.1-0.9-1.6-1.4c-0.5-0.4-1-0.8-1.5-1.2c-0.6-0.5-1.2-0.9-1.8-1.4c-0.5-0.4-1.1-0.8-1.6-1.2c-0.7-0.5-1.3-0.9-2-1.4
			c-0.6-0.4-1.2-0.8-1.8-1.2l-0.8-0.5c-0.3-0.2-0.6-0.3-0.8-0.5l-1-0.6c-0.5-0.3-0.9-0.6-1.4-0.8c-0.8-0.5-1.6-0.9-2.4-1.4
			L307.1,111.2z"/>
	</g>
	<g>
		<g>
			<path fill="#DA1C5C" d="M305.8,113c20.6,9.6,33.7,19.6,39.2,29.9c5.5,10.3,4.1,22.6-4.2,36.9c-1,1.7-2.8,4.5-5.4,8.1l-25.6,35.9
				l-2.2,3.3c-8.7,14.8-1.8,27.4,20.6,37.8l-19.5,33.4c-6.5-3-12.5-5-17.9-5.9c-13-2.2-22.5,2-28.7,12.4l-1.7,3.5l-18.2,39
				c-2.1,4.3-3.7,7.4-4.7,9.1c-8.3,14.3-18.8,22.2-31.5,24c-4.9,0.7-10.4,0.5-16.4-0.5c-9.6-1.6-20.7-5.3-33.3-11.2l16.8-28.7
				c5,2.3,9.5,3.8,13.4,4.5c2.3,0.4,4.5,0.5,6.4,0.3c5.2-0.6,9.2-4.2,12.3-10.7l19-40.3c0.7-1.6,1.9-3.8,3.6-6.6
				c6.7-11.5,15-18.6,25-21.4c7.3-2.1,15.6-2.3,24.9-0.8c3.2,0.5,6.6,1.3,10,2.3c-11.5-8-18.8-16.3-21.8-24.7
				c-3-8.5-1.2-18.5,5.5-30c1.8-3.1,3.3-5.4,4.3-6.9l26.2-36.9c4.2-5.8,5.1-10.8,2.6-15c-2.5-4.2-7.6-8.2-15.5-11.9L305.8,113z"/>
			<path fill="#202933" d="M199.9,382.9c-3.3,0-6.9-0.3-10.7-0.9c-9.8-1.6-21.2-5.5-33.9-11.4c-0.6-0.3-1-0.8-1.2-1.4
				c-0.2-0.6-0.1-1.2,0.2-1.8l16.8-28.7c0.6-1,1.8-1.4,2.9-0.9c4.8,2.2,9.1,3.7,12.8,4.3c2.1,0.4,4.1,0.4,5.8,0.2
				c4.4-0.5,7.8-3.6,10.5-9.4l19-40.3c0.8-1.7,2-4,3.7-6.8c7-11.9,15.8-19.5,26.3-22.4c7.6-2.1,16.3-2.4,25.8-0.8
				c0.1,0,0.2,0,0.4,0.1c-7.3-6.3-12.2-12.9-14.6-19.6c-3.2-9.1-1.3-19.8,5.7-31.8c1.8-3.1,3.3-5.5,4.5-7.1l26.2-36.9
				c3.7-5.1,4.5-9.2,2.5-12.6c-2.2-3.8-7.1-7.5-14.5-11c-0.6-0.3-1-0.8-1.2-1.4c-0.2-0.6-0.1-1.2,0.2-1.8l16.8-28.7
				c0.6-1,1.8-1.4,2.9-0.9c20.9,9.8,34.5,20.1,40.2,30.8c5.9,11,4.5,24.2-4.2,39.1c-1.1,1.9-3,4.8-5.5,8.3l-27.8,39.1
				c-3.2,5.4-4,10.4-2.5,15.2c2.2,7,9.7,13.5,22.2,19.4c0.6,0.3,1,0.8,1.2,1.4s0.1,1.2-0.2,1.8l-19.5,33.4c-0.6,1-1.8,1.4-2.9,0.9
				c-6.3-2.9-12.1-4.9-17.3-5.7c-12.1-2-20.7,1.7-26.4,11.4l-1.7,3.4l-18.2,38.9c-2.1,4.3-3.7,7.4-4.8,9.3
				c-8.7,14.8-19.8,23.2-33.1,25.1C204.3,382.8,202.1,382.9,199.9,382.9z M159.5,367.6c11.4,5.2,21.7,8.5,30.5,10
				c5.8,1,11.1,1.1,15.7,0.5c11.9-1.6,22-9.3,29.9-22.9c1-1.7,2.6-4.8,4.6-9l19.9-42.5c6.7-11.4,17.1-16,31-13.6
				c5,0.8,10.6,2.6,16.6,5.3l17.3-29.6c-12.6-6.2-19.9-13.1-22.4-21c-1.9-5.9-0.8-12.3,3-18.9l2.3-3.4l25.6-35.9
				c3-4.3,4.5-6.7,5.3-8c7.9-13.5,9.3-25.1,4.2-34.7c-5.1-9.5-17.4-19-36.4-28l-14.5,24.8c7.1,3.6,11.8,7.4,14.3,11.7
				c2.9,5.1,2,10.9-2.8,17.5l-26.2,36.9c-1.1,1.5-2.5,3.8-4.2,6.7c-6.3,10.8-8.1,20.3-5.4,28.1c2.9,8,9.9,16,21,23.7
				c0.9,0.6,1.2,1.8,0.7,2.8c-0.5,1-1.6,1.5-2.6,1.2c-3.4-1-6.7-1.7-9.8-2.2c-8.9-1.5-16.9-1.2-23.9,0.7
				c-9.3,2.6-17.3,9.5-23.7,20.4c-1.6,2.7-2.7,4.9-3.5,6.4l-19,40.3c-3.4,7.3-8.1,11.3-14,12c-2.1,0.2-4.5,0.2-7-0.3
				c-3.6-0.6-7.6-1.9-12.1-3.8L159.5,367.6z"/>
		</g>
	</g>
</g>
<g>
	<g>
		<rect x="99.7" y="87.3" fill="#FFFFFF" width="553.9" height="107.1"/>
		<path fill="#FFFFFF" d="M655.6,196.4H97.7V85.3h557.9V196.4z M101.7,192.4h549.9V89.3H101.7V192.4z"/>
	</g>
</g>
<g>
	<path fill="#FDB933" d="M261.1,117.2h9.4l-16,47.4h-9.4l-10.8-35.9l-11,35.9H214l-16-47.4h9.7l11.2,37.6l11.1-37.6h8.9l11.2,37.7
		L261.1,117.2z"/>
	<path fill="#FDB933" d="M290,117.2h34.7v7.9h-25.7v11.7h23v7.9h-23v11.9h26.5v7.9H290V117.2z"/>
	<path fill="#FDB933" d="M379,120.4c2.9,2.1,4.4,5,4.4,8.7c0,2.6-0.7,4.9-2.2,6.7c-1.5,1.9-3.5,3.1-6.1,3.8c3.2,0.6,5.6,1.9,7.4,4.1
		s2.7,4.8,2.7,7.9c0,4.1-1.6,7.3-4.7,9.6c-3.1,2.3-7.4,3.5-12.8,3.5H346v-47.4h21.1C372.1,117.2,376.1,118.3,379,120.4z M372.1,135
		c1.3-1,2-2.5,2-4.3c0-1.8-0.7-3.2-2-4.2c-1.3-1-3.2-1.5-5.5-1.4h-11.5v11.5h11.5C368.9,136.6,370.8,136.1,372.1,135z M373.4,155.1
		c1.6-1.1,2.4-2.7,2.4-4.7c0-1.9-0.8-3.5-2.4-4.6c-1.6-1.1-3.9-1.6-6.8-1.6h-11.5v12.5h11.5C369.5,156.8,371.7,156.3,373.4,155.1z"
		/>
	<path fill="#FDB933" d="M429.1,126.1c-2.5-0.8-4.7-1.2-6.6-1.2c-2.1,0-3.8,0.4-5,1.2c-1.2,0.8-1.9,1.9-1.9,3.3
		c0,1.3,0.4,2.4,1.3,3.2c0.9,0.9,1.9,1.6,3.3,2.1c1.3,0.6,3.1,1.2,5.3,1.8c3.1,0.9,5.7,1.9,7.7,2.8c2,0.9,3.7,2.3,5.1,4.1
		c1.4,1.8,2.1,4.2,2.1,7.2c0,2.8-0.8,5.3-2.3,7.4c-1.5,2.1-3.6,3.7-6.3,4.8c-2.7,1.1-5.7,1.7-9.2,1.7c-3.6,0-7.2-0.7-10.6-2
		c-3.5-1.4-6.5-3.2-9-5.4l3.7-7.6c2.3,2.2,5,3.9,7.9,5.1c2.9,1.2,5.6,1.9,8.2,1.9c2.5,0,4.4-0.5,5.8-1.4c1.4-1,2.1-2.2,2.1-3.9
		c0-1.3-0.4-2.4-1.3-3.3c-0.9-0.9-2-1.6-3.3-2.1c-1.3-0.5-3.1-1.1-5.4-1.8c-3.1-0.9-5.7-1.8-7.7-2.7c-2-0.9-3.7-2.2-5.1-4
		c-1.4-1.8-2.1-4.2-2.1-7.1c0-2.7,0.7-5.1,2.2-7.1s3.5-3.6,6.1-4.7c2.6-1.1,5.7-1.7,9.1-1.7c3,0,6,0.4,8.9,1.3
		c2.9,0.9,5.6,2.1,7.9,3.6l-3.6,7.8C434,128.1,431.6,126.9,429.1,126.1z"/>
	<path fill="#FDB933" d="M462.2,117.6h8.9v46.5h-8.9V117.6z"/>
	<path fill="#FDB933" d="M490.6,117.6h37.9v7.9h-14.5v38.6h-9v-38.6h-14.5V117.6z"/>
	<path fill="#FDB933" d="M545.9,117.6h34.1v7.8h-25.2v11.5h22.6v7.8h-22.6v11.7h26v7.8h-34.9V117.6z"/>
</g>
<g>
	<g>
		<path fill="#FDB933" d="M725.9,323.6c0.6-0.4,1.2-0.8,1.8-1.2l-26-42c-1.2,0.9-2.5,1.7-3.8,2.5c-0.4,0.3-0.9,0.5-1.3,0.8
			c-1.5,0.8-3.1,1.6-4.7,2.3c-0.2,0.1-0.3,0.1-0.5,0.2c-1.5,0.6-3.1,1.2-4.7,1.7c-0.9,0.3-1.9,0.5-2.8,0.8c-1.2,0.3-2.4,0.7-3.7,0.9
			c-1.9,0.4-3.9,0.7-5.8,0.9c-0.1,0-0.2,0-0.4,0c-1.4,0.1-2.8,0.2-4.2,0.3c-0.4,0-0.7,0-1.1,0c-1.2,0-2.4,0-3.5,0
			c-0.3,0-0.6,0-0.9,0c-1.6-0.1-3.1-0.2-4.7-0.3c-0.3,0-0.7-0.1-1-0.1c-1.6-0.2-3.3-0.4-4.9-0.7c-1.7-0.3-3.4-0.7-5-1.1
			c-0.4-0.1-0.8-0.2-1.2-0.3c-1.5-0.4-3-0.8-4.4-1.3c-0.1,0-0.1,0-0.2-0.1c-1.5-0.5-2.8-1.1-4.2-1.7c-0.3-0.2-0.7-0.3-1-0.5
			c-1.2-0.6-2.4-1.2-3.5-1.8c-0.1-0.1-0.2-0.1-0.3-0.2c-1.2-0.7-2.3-1.5-3.4-2.2c-0.3-0.2-0.5-0.4-0.8-0.6c-1-0.8-2-1.6-2.9-2.5
			c0,0-0.1,0-0.1-0.1c-0.9-0.8-1.6-1.7-2.4-2.6c-0.5-0.6-0.9-1.2-1.4-1.8c-0.6-0.8-1.2-1.5-1.7-2.4c0,0,0,0,0,0l0,0c0,0,0,0,0,0
			l26,42c0.3,0.4,0.5,0.9,0.8,1.3c0.3,0.4,0.6,0.7,0.9,1.1c0.4,0.6,0.9,1.2,1.4,1.8c0.2,0.2,0.3,0.4,0.5,0.6c0.6,0.7,1.3,1.4,1.9,2
			c0,0,0.1,0,0.1,0.1c0.6,0.6,1.3,1.2,2,1.8c0.3,0.2,0.6,0.5,0.9,0.7c0.3,0.2,0.5,0.4,0.8,0.6c1.1,0.8,2.2,1.5,3.4,2.2
			c0.1,0.1,0.2,0.1,0.3,0.2c1.1,0.6,2.3,1.2,3.5,1.8c0.3,0.2,0.7,0.3,1,0.5c1.3,0.6,2.7,1.2,4.2,1.7c0.1,0,0.1,0,0.2,0.1
			c1.4,0.5,2.9,0.9,4.4,1.3c0.4,0.1,0.8,0.2,1.2,0.3c1.6,0.4,3.2,0.8,5,1.1c1.7,0.3,3.3,0.5,4.9,0.7c0.3,0,0.7,0.1,1,0.1
			c1.6,0.2,3.2,0.3,4.7,0.3c0.1,0,0.2,0,0.2,0c0.2,0,0.4,0,0.6,0c1.2,0,2.4,0,3.5,0c0.4,0,0.7,0,1.1,0c1.4-0.1,2.8-0.1,4.2-0.3
			c0,0,0.1,0,0.1,0c0.1,0,0.2,0,0.3,0c2-0.2,3.9-0.5,5.8-0.9c0.4-0.1,0.7-0.1,1.1-0.2c0.9-0.2,1.7-0.5,2.6-0.7
			c1-0.2,1.9-0.5,2.8-0.8c0.2,0,0.3-0.1,0.5-0.1c1.5-0.5,2.9-1,4.2-1.6c0.2-0.1,0.3-0.1,0.5-0.2c0,0,0,0,0.1,0
			c1.4-0.6,2.8-1.3,4.2-2c0.2-0.1,0.3-0.2,0.5-0.3c0.5-0.3,0.9-0.5,1.3-0.8C724.6,324.4,725.3,324.1,725.9,323.6z"/>
		<path fill="#202933" d="M690.3,334.9c0,0-0.2,0-0.2,0c-1.7-0.1-3.3-0.2-4.9-0.3l-1.1-0.1c-1.9-0.2-3.6-0.5-5.1-0.7
			c-1.6-0.3-3.2-0.6-5.1-1.1l-1.2-0.3c-1.7-0.5-3.2-0.9-4.5-1.3c0,0-0.2-0.1-0.2-0.1c-1.4-0.5-2.8-1-4.3-1.7
			c-0.4-0.2-0.7-0.3-1.1-0.5c-1.4-0.6-2.6-1.3-3.7-1.9l-0.3-0.2c-1.2-0.7-2.3-1.5-3.6-2.4c-0.3-0.2-0.5-0.4-0.8-0.6l-0.4-0.3
			c-0.2-0.2-0.5-0.3-0.7-0.5c-0.7-0.6-1.4-1.2-2.1-1.9c-0.8-0.8-1.5-1.5-2.1-2.2c-0.1-0.2-0.3-0.3-0.4-0.5c-0.6-0.8-1.1-1.4-1.6-2
			c-0.1-0.1-0.2-0.3-0.3-0.4c-0.2-0.3-0.4-0.5-0.6-0.8c-0.3-0.4-0.6-0.9-0.9-1.4l-26-42c-0.6-1-0.3-2.4,0.7-3c1-0.6,2.4-0.3,3,0.7
			l0,0.1c0.4,0.6,0.8,1.2,1.3,1.8l0.3,0.4c0.4,0.6,0.8,1.1,1.3,1.7c0.7,0.8,1.4,1.7,2.3,2.5c0.8,0.8,1.7,1.5,2.8,2.4
			c0.3,0.2,0.5,0.4,0.8,0.6c1.1,0.8,2.2,1.5,3.2,2.1l0.3,0.2c1,0.6,2.1,1.1,3.3,1.7c0.3,0.1,0.6,0.3,1,0.4c1.4,0.6,2.8,1.2,4,1.6
			l-0.5,2.1l0.7-2.1c1.2,0.4,2.6,0.8,4.2,1.3c0.4,0.1,0.8,0.2,1.2,0.3c1.8,0.4,3.3,0.8,4.8,1c1.5,0.3,3,0.5,4.8,0.7l1,0.1
			c1.5,0.2,3,0.3,4.5,0.3l1,0c1.2,0,2.3,0,3.4,0l1.1,0c1.4-0.1,2.7-0.1,4-0.3l0.4,0c2-0.2,3.9-0.5,5.6-0.8c0.9-0.2,1.8-0.4,2.7-0.6
			l1.7-0.4c0.6-0.2,1.3-0.3,1.9-0.5c1.6-0.5,3.1-1,4.5-1.6l0.4-0.1c1.6-0.7,3.1-1.4,4.6-2.3c0.3-0.1,0.5-0.3,0.8-0.5l0.5-0.3
			c1.4-0.8,2.5-1.5,3.6-2.3c0.5-0.4,1.1-0.5,1.7-0.4c0.6,0.1,1.1,0.5,1.5,1l26,42c0.6,1,0.4,2.2-0.6,2.9c-0.6,0.4-1.2,0.9-1.9,1.3
			c-0.5,0.3-1,0.6-1.5,0.9l-1.1,0.6c-0.3,0.2-0.6,0.4-1,0.6c-0.3,0.2-0.4,0.2-0.5,0.3c-1.4,0.7-2.8,1.4-4.3,2.1
			c-0.2,0.1-0.3,0.1-0.4,0.2c-1.8,0.7-3.2,1.2-4.5,1.7c-0.1,0-0.3,0.1-0.4,0.1c-0.8,0.2-1.5,0.4-2.3,0.6l-1.7,0.4
			c-0.6,0.2-1.2,0.3-1.8,0.5l-1.2,0.2c-1.9,0.4-3.9,0.7-6,0.9l-0.3,0c-1.5,0.1-3,0.2-4.4,0.3l-0.9,0c-1.4,0-2.6,0-3.9,0L690.3,334.9
			C690.3,334.9,690.3,334.9,690.3,334.9z M669.6,326.8c1.2,0.4,2.6,0.8,4.2,1.3l1.2,0.3c1.8,0.4,3.3,0.8,4.8,1
			c1.4,0.3,3,0.5,4.8,0.7l1,0.1c1.5,0.1,3,0.3,4.4,0.3l0.4,0l0.6,0c1.2,0,2.3,0,3.4,0c0,0,0.2,0,0.2,0l0.8,0
			c1.4-0.1,2.7-0.1,4.1-0.3c0,0,0.4,0,0.4,0c2-0.2,3.9-0.5,5.6-0.8l1.1-0.2c0.5-0.1,1-0.2,1.5-0.4c0.3-0.1,0.7-0.2,1-0.3l0.8-0.2
			c0.7-0.2,1.3-0.3,1.9-0.5c0.1,0,0.2-0.1,0.4-0.1c1.3-0.4,2.6-0.9,4.2-1.5l0.3-0.1c0.1,0,0.3-0.1,0.3-0.1c1.2-0.5,2.6-1.2,3.8-1.8
			c0.3-0.2,0.4-0.2,0.5-0.3c0.3-0.1,0.5-0.3,0.8-0.5l1.2-0.7c0.4-0.2,0.8-0.5,1.2-0.7c0,0,0,0,0,0l-23.7-38.2
			c-0.6,0.4-1.3,0.8-2,1.2l-0.4,0.3c-0.3,0.2-0.6,0.4-1,0.6c-1.7,0.9-3.3,1.7-4.9,2.4c-0.1,0.1-0.3,0.1-0.4,0.1
			c-1.7,0.7-3.3,1.3-5,1.8c-0.7,0.2-1.4,0.4-2.2,0.6l-1.7,0.4c-1,0.3-1.9,0.5-3,0.7c-1.9,0.4-3.9,0.7-6,0.9l-0.4,0
			c-1.4,0.1-2.9,0.2-4.3,0.3l-1.1,0c-1.2,0-2.4,0-3.7,0l-0.9,0c0,0,0,0,0,0c-1.7-0.1-3.3-0.2-4.9-0.3l-0.9-0.1
			c-2-0.2-3.7-0.5-5.2-0.7c-1.6-0.3-3.2-0.6-5.1-1.1c-0.4-0.1-0.8-0.2-1.3-0.3c-1.7-0.5-3.2-0.9-4.5-1.3c0,0-0.2-0.1-0.2-0.1
			c-1.4-0.5-2.8-1-4.3-1.7c-0.4-0.2-0.7-0.3-1.1-0.5c-1.4-0.6-2.6-1.3-3.7-1.9l-0.3-0.2c-0.1-0.1-0.3-0.2-0.4-0.2l16.7,27
			c0.3,0.4,0.5,0.8,0.8,1.2c0.1,0.2,0.3,0.3,0.4,0.5c0.1,0.2,0.3,0.4,0.4,0.5c0.4,0.6,0.8,1.1,1.3,1.6c0.1,0.1,0.2,0.3,0.3,0.4
			c0.7,0.8,1.3,1.4,1.9,2.1c0.7,0.6,1.3,1.2,1.9,1.7c0.2,0.1,0.3,0.2,0.5,0.4l0.4,0.3c0.3,0.2,0.5,0.4,0.8,0.6
			c1.1,0.8,2.2,1.5,3.2,2.1l0.3,0.2c1,0.6,2.1,1.1,3.3,1.7c0.3,0.1,0.6,0.3,1,0.4c1.4,0.6,2.8,1.2,4,1.6l-0.5,2.1L669.6,326.8z"/>
	</g>
	<g>
		<g>
			<polygon fill="#00A796" points="727.7,322.4 701.7,280.4 726.4,190.5 752.3,232.4 			"/>
			<path fill="#202933" d="M727.6,324.6c-0.7,0-1.4-0.4-1.8-1l-26-42c-0.3-0.5-0.4-1.1-0.3-1.7l24.6-89.9c0.2-0.8,0.9-1.5,1.8-1.6
				c0.9-0.1,1.7,0.3,2.2,1l26,42c0.3,0.5,0.4,1.1,0.3,1.7L729.8,323c-0.2,0.8-0.9,1.5-1.8,1.6C727.9,324.6,727.7,324.6,727.6,324.6z
				 M704.1,280.1l22.8,36.9l23.1-84.2l-22.8-36.9L704.1,280.1z"/>
		</g>
	</g>
	<g>
		<path fill="#FDB933" d="M708.8,188.8c0.1,0,0.1,0.1,0.2,0.1c1.1,0.6,2.2,1.2,3.3,1.8c0.3,0.1,0.6,0.3,0.9,0.4
			c1.1,0.5,2.3,1,3.5,1.5c0,0,0.1,0,0.1,0c1.2,0.4,2.5,0.8,3.9,1.2c0.3,0.1,0.7,0.2,1,0.3c1.3,0.3,2.7,0.7,4.1,0.9l108.4,19.1
			l-26-42L699.7,153c-1.4-0.3-2.8-0.6-4.1-0.9c-0.3-0.1-0.7-0.2-1-0.3c-1.3-0.4-2.6-0.7-3.9-1.2c0,0-0.1,0-0.1,0
			c-1.2-0.4-2.4-0.9-3.5-1.5c-0.3-0.1-0.6-0.3-0.9-0.4c-1.1-0.6-2.3-1.1-3.3-1.8c-0.1,0-0.1-0.1-0.2-0.1c-1-0.6-2-1.3-2.9-2
			c-0.2-0.2-0.5-0.4-0.7-0.6c-0.9-0.7-1.8-1.5-2.7-2.3c0,0-0.1-0.1-0.1-0.1c-0.9-0.9-1.8-1.8-2.6-2.8c-0.2-0.2-0.3-0.4-0.5-0.6
			c-0.8-1-1.6-2-2.3-3c-0.3-0.5-0.6-0.9-0.9-1.4l26,42c0.3,0.5,0.6,0.9,0.9,1.4c0,0.1,0.1,0.1,0.1,0.2c0.7,1,1.4,2,2.2,2.9
			c0.2,0.2,0.3,0.4,0.5,0.6c0.2,0.2,0.3,0.4,0.5,0.6c0.7,0.7,1.4,1.5,2.1,2.2c0,0,0.1,0.1,0.1,0.1c0.7,0.6,1.3,1.2,2,1.8
			c0.2,0.2,0.4,0.3,0.7,0.5c0.2,0.2,0.5,0.4,0.7,0.5C706.8,187.5,707.8,188.2,708.8,188.8z"/>
		<path fill="#202933" d="M834,216.3c-0.1,0-0.2,0-0.3,0l-108.4-19.1c-1.3-0.2-2.7-0.5-4.3-0.9l-1-0.3c-1.6-0.4-2.9-0.8-4-1.3
			c-1.2-0.5-2.5-1-3.8-1.6c-0.3-0.1-0.6-0.3-0.9-0.4c-1.3-0.7-2.5-1.3-3.5-1.9c0,0-0.2-0.1-0.2-0.1c-1-0.6-2-1.3-3.1-2.1l-1-0.8
			c-0.2-0.1-0.3-0.2-0.5-0.4c-0.7-0.6-1.5-1.3-2.2-1.9c-0.9-0.8-1.6-1.6-2.3-2.4c-0.1-0.1-0.2-0.3-0.4-0.4l-0.7-0.9
			c-0.9-1.1-1.6-2.1-2.3-3c0,0-0.1-0.2-0.1-0.2c-0.3-0.5-0.6-1-0.9-1.4l-26-41.9c0,0,0,0,0,0c-0.6-1-0.3-2.4,0.7-3
			c1-0.6,2.4-0.3,3,0.7l0,0c0.3,0.4,0.6,0.9,0.9,1.3c0.6,0.9,1.3,1.8,2.2,2.9l0.5,0.6c0.9,1,1.6,1.9,2.4,2.6
			c0.9,0.8,1.7,1.5,2.7,2.3l0.7,0.5c1,0.7,1.9,1.4,2.8,1.9c1,0.6,2.1,1.2,3.3,1.8l0.8,0.4c1.2,0.6,2.3,1,3.3,1.4
			c1.2,0.4,2.3,0.8,3.8,1.2l0.9,0.2c1.5,0.4,2.8,0.7,4,0.9l108.4,19.1c0.6,0.1,1.2,0.5,1.5,1l26,42c0.5,0.7,0.4,1.7,0,2.4
			C835.5,215.9,834.8,216.3,834,216.3z M681.8,148.8l16.1,26c0.3,0.4,0.6,0.9,0.9,1.3c0.7,1,1.3,1.9,2.2,2.9l0.9,1.1
			c0.6,0.7,1.3,1.4,2,2c0.7,0.7,1.4,1.3,2,1.8l1.3,1c1,0.7,1.9,1.4,2.8,1.9c1,0.6,2.1,1.2,3.3,1.8l0.8,0.4c1.2,0.6,2.3,1,3.3,1.4
			c1.2,0.4,2.3,0.8,3.8,1.2l0.9,0.2c1.5,0.4,2.7,0.7,4,0.9L829.7,211l-22.9-36.9l-107.5-18.9c-1.3-0.2-2.7-0.5-4.3-0.9l-1-0.3
			c-1.6-0.4-2.9-0.8-4-1.3c-1.2-0.5-2.5-1-3.8-1.6c-0.3-0.1-0.6-0.3-0.9-0.4C684,150,682.8,149.4,681.8,148.8z"/>
	</g>
	<g>
		<defs>
			<path id="SVGID_1_" d="M605.2,326.9l-26-42c-3.4-5.5-5.9-11.4-7.5-17.8c-3.4-13.6-3.1-27.8,1-42.7c5.6-20.3,15.3-35.9,29.4-46.7
				c14-10.8,31.6-16.6,52.8-17.5l26,42c-21.2,0.9-38.8,6.8-52.8,17.5c-14,10.8-23.8,26.3-29.4,46.7c-4.1,14.9-4.4,29.1-1,42.7
				C599.3,315.5,601.8,321.4,605.2,326.9z"/>
		</defs>
		<defs>
			<path id="SVGID_2_" d="M605.1,329.1c-0.7,0-1.4-0.4-1.8-1l0,0c0,0,0,0,0,0l-26-42c-3.5-5.7-6.1-11.9-7.8-18.4
				c-3.5-13.9-3.1-28.7,1-43.8c5.7-20.7,15.8-36.8,30.1-47.8c14.3-11,32.5-17.1,54.1-18c0.8,0,1.5,0.4,2,1l26,42
				c0.4,0.7,0.4,1.5,0.1,2.2c-0.4,0.7-1.1,1.1-1.9,1.2c-20.7,0.9-38,6.6-51.6,17.1c-13.5,10.4-23.2,25.7-28.6,45.5
				c-3.9,14.4-4.3,28.4-1,41.6c1.5,5.9,3.9,11.6,7,16.8c0.4,0.4,0.6,1,0.6,1.6C607.4,328.2,606.3,329.2,605.1,329.1
				C605.2,329.1,605.1,329.1,605.1,329.1z M653.7,162.5c-20.1,1.1-37,6.8-50.3,17c-13.5,10.4-23.2,25.7-28.6,45.5
				c-3.9,14.4-4.3,28.4-1,41.6c1.5,6.1,4,11.8,7.2,17.1l13.6,21.9c-2.5-12.7-1.9-26.1,1.9-39.9c5.7-20.7,15.8-36.8,30.1-47.8
				c13.5-10.4,30.4-16.4,50.4-17.8L653.7,162.5z"/>
		</defs>
		<use xlink:href="#SVGID_1_"  overflow="visible" fill="#00A796"/>
		<use xlink:href="#SVGID_2_"  overflow="visible" fill="#202933"/>
		<clipPath id="SVGID_3_">
			<use xlink:href="#SVGID_1_"  overflow="visible"/>
		</clipPath>
		<clipPath id="SVGID_4_" clip-path="url(#SVGID_3_)">
			<use xlink:href="#SVGID_2_"  overflow="visible"/>
		</clipPath>
		<g clip-path="url(#SVGID_4_)">
			<path fill="#FDB933" d="M654.9,160.3c-2.5,0.1-4.9,0.3-7.3,0.5c-4.1,0.4-8,1-11.8,1.8c-3.1,0.7-6.1,1.4-9,2.4
				c-2.6,0.8-5.1,1.7-7.5,2.8c-2.3,1-4.5,2-6.7,3.2c-2.2,1.2-4.3,2.5-6.4,3.8c-1.4,1-2.8,2-4.2,3c-0.7,0.6-1.5,1.2-2.2,1.8l26,42
				c0.7-0.6,1.5-1.2,2.2-1.8c1.4-1.1,2.8-2.1,4.2-3c2.1-1.4,4.2-2.6,6.4-3.8c2.2-1.2,4.4-2.2,6.7-3.2c2.4-1,4.9-1.9,7.5-2.8
				c2.9-0.9,5.9-1.7,9-2.4c3.8-0.8,7.7-1.4,11.8-1.8c2.4-0.2,4.8-0.4,7.3-0.5L654.9,160.3z"/>
			<path fill="#202933" d="M625.8,223.7c-0.1,0-0.2,0-0.3,0c-0.6-0.1-1.2-0.5-1.5-1l-26-42c-0.6-0.9-0.4-2.1,0.5-2.8
				c0.7-0.6,1.5-1.2,2.3-1.8c1.4-1.1,2.9-2.1,4.3-3.1c2.1-1.4,4.3-2.7,6.6-3.9c2.2-1.2,4.5-2.3,6.9-3.3c2.5-1,5.1-2,7.7-2.8
				c3-0.9,6-1.8,9.2-2.4c3.8-0.8,7.9-1.4,12-1.9c2.4-0.2,4.9-0.4,7.4-0.5c0.8,0,1.5,0.4,2,1l26,42c0.4,0.7,0.4,1.5,0.1,2.2
				c-0.4,0.7-1.1,1.1-1.9,1.2c-2.4,0.1-4.8,0.3-7.2,0.5c-4,0.4-7.9,1-11.6,1.8c-3,0.6-5.9,1.4-8.7,2.3c-2.5,0.8-5,1.7-7.3,2.7
				c-2.2,0.9-4.4,2-6.5,3.1c-2.1,1.1-4.2,2.4-6.2,3.7c-1.4,0.9-2.8,1.9-4.1,2.9c-0.7,0.6-1.4,1.1-2.1,1.7
				C626.9,223.6,626.3,223.8,625.8,223.7z M602.8,180.1l23.6,38.2c0.1-0.1,0.2-0.2,0.3-0.2c1.4-1.1,2.9-2.1,4.3-3.1
				c2.1-1.4,4.3-2.7,6.6-3.9c2.2-1.2,4.5-2.3,6.9-3.3c2.5-1,5.1-2,7.7-2.8c2.9-0.9,6-1.8,9.2-2.4c3.8-0.8,7.9-1.4,12-1.9
				c1.2-0.1,2.4-0.2,3.7-0.3l-23.3-37.7c-2,0.1-4,0.3-5.9,0.4c-4,0.4-7.9,1-11.6,1.8c-3,0.6-5.9,1.4-8.7,2.3c-2.5,0.8-5,1.7-7.3,2.7
				c-2.2,0.9-4.4,2-6.5,3.1c-2.1,1.1-4.2,2.4-6.2,3.7c-1.4,0.9-2.8,1.9-4.1,2.9C603.2,179.7,603,179.9,602.8,180.1z"/>
		</g>
	</g>
	<g>
		<path fill="#00A796" d="M780.4,81.8c-7-11.3-15.1-20-24.3-25.9c-10-6.4-22.2-10.9-36.6-13.4c-9.9-1.7-19.4-2.1-28.5-1.2l0,0
			c-1.2,0.1-2.4,0.3-3.6,0.5c-0.4,0.1-0.8,0.1-1.2,0.1c-1.6,0.3-3.3,0.5-4.9,0.9c0,0-0.1,0-0.1,0c-1.8,0.4-3.5,0.8-5.2,1.3
			c-1.1,0.3-2.2,0.6-3.3,1c-0.3,0.1-0.6,0.2-0.9,0.3c-0.6,0.2-1.1,0.4-1.6,0.6c-1,0.3-1.9,0.7-2.9,1.1c-0.5,0.2-1.1,0.4-1.6,0.6
			c-0.3,0.1-0.6,0.2-0.9,0.3c-0.8,0.3-1.5,0.7-2.3,1c-0.3,0.1-0.6,0.3-0.9,0.4c-1.2,0.6-2.5,1.2-3.7,1.8c-0.1,0-0.1,0.1-0.2,0.1
			c-1.9,1-3.8,2.2-5.6,3.4c-0.2,0.1-0.4,0.2-0.6,0.4c-0.5,0.3-0.9,0.6-1.3,1c-0.4,0.3-0.9,0.6-1.3,0.9c-0.9,0.6-1.7,1.3-2.5,1.9
			c-0.3,0.3-0.6,0.5-1,0.8c-0.1,0.1-0.2,0.1-0.2,0.2c-1.1,0.9-2.1,1.8-3.2,2.8c-1.2,1.1-2.4,2.3-3.5,3.5c-0.1,0.1-0.1,0.1-0.2,0.2
			c-0.9,1-1.8,2-2.7,3.1c-0.1,0.2-0.2,0.3-0.4,0.5c-0.8,1-1.5,1.9-2.2,2.9c-0.3,0.4-0.5,0.8-0.8,1.2c-0.5,0.8-1.1,1.6-1.5,2.4
			c-0.3,0.5-0.6,0.9-0.8,1.4c-0.4,0.8-0.9,1.5-1.3,2.3c-0.3,0.5-0.5,1-0.8,1.5c-0.4,0.8-0.8,1.6-1.1,2.4c-0.2,0.5-0.4,1-0.7,1.5
			c-0.4,0.9-0.7,1.8-1,2.7c-0.2,0.4-0.3,0.9-0.5,1.3c-0.5,1.4-0.9,2.7-1.3,4.1c-3.9,14.1-3.3,26.8,1.7,38.2c0.8,1.8,1.7,3.6,2.8,5.3
			l26,42c-1.1-1.7-2-3.5-2.8-5.3c-5-11.4-5.6-24.1-1.7-38.2c0.4-1.4,0.8-2.8,1.3-4.1c0.2-0.4,0.3-0.9,0.5-1.3c0.3-0.9,0.7-1.8,1-2.7
			c0.2-0.5,0.4-1,0.7-1.5c0.4-0.8,0.7-1.6,1.1-2.4c0.2-0.5,0.5-1,0.8-1.5c0.4-0.8,0.8-1.5,1.3-2.3c0.3-0.5,0.5-0.9,0.8-1.4
			c0.5-0.8,1-1.6,1.5-2.3c0.3-0.4,0.5-0.8,0.8-1.2c0.7-1,1.4-2,2.2-2.9c0.1-0.2,0.2-0.3,0.4-0.5c0.9-1.1,1.8-2.2,2.8-3.2
			c1.1-1.2,2.3-2.4,3.5-3.5c1.1-1,2.2-2,3.4-3c0.3-0.3,0.6-0.5,0.9-0.7c0.8-0.7,1.7-1.3,2.5-2c0.4-0.3,0.9-0.6,1.3-0.9
			c0.8-0.6,1.6-1.1,2.4-1.6c0.4-0.3,0.8-0.5,1.2-0.8c0.9-0.6,1.9-1.1,2.9-1.7c0.3-0.2,0.6-0.4,0.9-0.5c1.3-0.7,2.6-1.4,3.9-2
			c0.3-0.1,0.6-0.3,0.9-0.4c1-0.5,2.1-0.9,3.2-1.4c0.5-0.2,1.1-0.4,1.6-0.6c0.9-0.4,1.9-0.7,2.9-1.1c0.5-0.2,1.1-0.4,1.6-0.6
			c1.4-0.5,2.8-0.9,4.2-1.3c1.7-0.5,3.5-0.9,5.2-1.3c1.6-0.4,3.3-0.7,5-0.9c0.4-0.1,0.8-0.1,1.2-0.1c10.2-1.4,20.9-1.2,32.1,0.8
			c14.4,2.5,26.6,7,36.6,13.4c9.2,5.9,17.3,14.6,24.3,25.9L780.4,81.8z"/>
		<path fill="#202933" d="M653.6,181.3c-0.7,0-1.4-0.4-1.8-1l-26-42c-1.1-1.8-2.1-3.7-2.9-5.6c-5.2-11.8-5.8-25.2-1.8-39.7
			c0.4-1.4,0.8-2.9,1.3-4.3c0.1-0.3,0.2-0.6,0.3-0.9l0.2-0.5c0.3-0.9,0.7-1.9,1.1-2.8c0.2-0.4,0.4-0.8,0.5-1.2l0.1-0.3
			c0.4-0.8,0.8-1.7,1.2-2.5c0.3-0.5,0.5-1,0.8-1.5c0.4-0.8,0.9-1.6,1.3-2.4c0.4-0.6,0.6-1,0.9-1.5c0.5-0.8,1-1.6,1.6-2.4l0.3-0.4
			c0.2-0.3,0.4-0.5,0.6-0.8c0.7-1,1.5-2,2.3-3L634,68c0.9-1.1,1.8-2.1,2.7-3.2c0,0,0.1-0.1,0.2-0.2c1.2-1.3,2.4-2.5,3.6-3.6
			c1.1-1,2.1-1.9,3.3-2.9c0,0,0.2-0.1,0.2-0.1c0.2-0.2,0.4-0.4,0.6-0.5l0.4-0.3c0.9-0.7,1.7-1.4,2.6-2c0.3-0.3,0.7-0.5,1-0.7
			l0.8-0.6c0.3-0.2,0.6-0.4,0.9-0.6c0.1-0.1,0.3-0.2,0.4-0.3c2.2-1.4,4.1-2.6,5.9-3.6c0,0,0.2-0.1,0.2-0.1c1.2-0.7,2.5-1.3,3.7-1.9
			l1.4-0.6c0.6-0.3,1.3-0.6,1.9-0.9l0.9-0.4c0.5-0.2,1-0.4,1.5-0.6c1.1-0.4,2.1-0.8,3.1-1.1c0.6-0.2,1.1-0.4,1.7-0.6l0.9-0.3
			c1.1-0.4,2.3-0.7,3.4-1c1.7-0.5,3.5-0.9,5.4-1.3c1.8-0.4,3.4-0.7,5.1-0.9c0.2,0,0.5-0.1,0.7-0.1l0.5-0.1c1.2-0.2,2.4-0.3,3.7-0.5
			c0.1,0,0.2,0,0.3,0c9.2-0.9,18.9-0.5,28.8,1.3c14.6,2.6,27.2,7.2,37.4,13.7c9.5,6.1,17.9,15,25,26.6l26,42c0.6,1,0.3,2.4-0.7,3
			c-1,0.6-2.4,0.3-3-0.7l0,0c-6.8-11-14.8-19.4-23.6-25.2c-9.7-6.2-21.8-10.6-35.8-13.1c-10.9-1.9-21.4-2.2-31.4-0.8l-1.1,0.1
			c-1.6,0.3-3.2,0.6-4.8,0.9c-1.7,0.4-3.5,0.8-5.1,1.3c-1.4,0.4-2.8,0.8-4.2,1.3c-0.5,0.2-1,0.4-1.5,0.5c-1,0.4-1.9,0.7-2.9,1.1
			c-0.5,0.2-1,0.4-1.5,0.6c-1,0.4-2.1,0.9-3.1,1.3l-0.9,0.4c-1.3,0.6-2.6,1.3-3.8,1.9l-0.9,0.5c-1,0.5-1.9,1.1-2.8,1.6
			c-0.4,0.2-0.8,0.5-1.2,0.7c-0.8,0.5-1.6,1.1-2.4,1.6l-0.3,0.2c-0.3,0.2-0.6,0.5-1,0.7c-0.8,0.6-1.6,1.2-2.5,1.9l-0.9,0.7
			c-1.1,0.9-2.2,1.9-3.3,2.9c-1.1,1.1-2.2,2.2-3.4,3.4c-0.9,1-1.9,2.1-2.7,3.1l-0.4,0.5c-0.7,0.9-1.5,1.9-2.1,2.8
			c-0.2,0.2-0.3,0.5-0.5,0.7l-0.3,0.4c-0.5,0.7-1,1.5-1.5,2.3c-0.3,0.4-0.5,0.8-0.7,1.2c-0.5,0.8-0.9,1.6-1.3,2.3
			c-0.3,0.5-0.5,1-0.7,1.4c-0.4,0.8-0.7,1.5-1.1,2.3l-0.1,0.3c-0.2,0.4-0.3,0.8-0.5,1.1c-0.4,0.9-0.7,1.7-1,2.6l-0.2,0.5
			c-0.1,0.2-0.2,0.5-0.3,0.7c-0.5,1.3-0.9,2.6-1.2,4c-3.7,13.5-3.2,25.9,1.6,36.8c0.7,1.6,1.5,3.2,2.4,4.7c0.4,0.4,0.6,1,0.6,1.6
			C655.9,180.4,654.9,181.3,653.6,181.3C653.7,181.3,653.7,181.3,653.6,181.3z M691,43.5c-1.1,0.1-2.2,0.3-3.3,0.4l-1.1,0.1
			c-1.6,0.2-3.2,0.5-4.7,0.9c-1.9,0.4-3.6,0.8-5.2,1.3c-1.1,0.3-2.2,0.6-3.3,1l-0.9,0.3c-0.5,0.2-1.1,0.4-1.6,0.6
			c-0.9,0.3-1.9,0.7-2.8,1c-0.6,0.2-1.1,0.4-1.6,0.6l-0.8,0.3c-0.6,0.3-1.2,0.5-1.8,0.8l-1.3,0.6c-1.2,0.6-2.4,1.2-3.6,1.8
			c-1.9,1.1-3.7,2.1-5.6,3.4c-0.1,0.1-0.3,0.2-0.4,0.2c-0.4,0.3-0.7,0.5-1,0.7l-0.8,0.6c-0.3,0.2-0.6,0.4-1,0.7
			c-0.8,0.6-1.7,1.2-2.5,1.9l-0.9,0.7c0,0-0.2,0.2-0.2,0.2c-1,0.9-2.1,1.8-3.1,2.7c-1.1,1.1-2.2,2.2-3.4,3.4c0,0-0.1,0.1-0.2,0.2
			c-0.9,1-1.7,2-2.6,3l-0.4,0.5c-0.7,0.9-1.5,1.9-2.2,2.8c-0.2,0.2-0.3,0.5-0.5,0.7l-0.3,0.5c-0.5,0.7-1,1.5-1.5,2.3
			c-0.2,0.4-0.5,0.8-0.7,1.2c-0.5,0.9-0.9,1.6-1.3,2.4c-0.3,0.5-0.5,1-0.7,1.4c-0.4,0.8-0.7,1.5-1.1,2.3l-0.1,0.3
			c-0.2,0.4-0.3,0.7-0.5,1.1c-0.4,0.9-0.7,1.7-1,2.6l-0.2,0.5c-0.1,0.2-0.2,0.5-0.3,0.7c-0.5,1.3-0.9,2.6-1.2,4
			c-3.7,13.5-3.2,25.9,1.6,36.8c0.8,1.7,1.6,3.4,2.6,5l15.4,24.9c-1.1-8.1-0.4-16.8,2.1-25.9c0.4-1.4,0.8-2.9,1.3-4.3
			c0.1-0.3,0.2-0.6,0.3-0.9l0.2-0.5c0.3-0.9,0.7-1.9,1.1-2.8c0.2-0.4,0.4-0.8,0.5-1.3l0.1-0.3c0.4-0.8,0.8-1.7,1.2-2.5
			c0.3-0.5,0.5-1,0.8-1.5c0.4-0.8,0.9-1.6,1.3-2.4c0.3-0.6,0.6-1,0.9-1.5c0.5-0.8,1-1.6,1.6-2.4l0.3-0.4c0.2-0.3,0.4-0.6,0.6-0.8
			c0.7-1,1.5-2,2.3-3l0.4-0.5c0.9-1.1,1.9-2.2,2.9-3.3c1.2-1.3,2.4-2.5,3.6-3.6c1.1-1.1,2.3-2.1,3.5-3.1c0.2-0.2,0.4-0.3,0.6-0.5
			l0.4-0.3c0.9-0.7,1.7-1.4,2.6-2c0.3-0.3,0.7-0.5,1-0.7l0.3-0.2c0.8-0.6,1.7-1.1,2.5-1.7c0.4-0.3,0.8-0.5,1.2-0.8
			c1-0.6,2-1.2,3-1.7l1-0.5c1.3-0.7,2.7-1.4,4-2.1l1-0.4c1.1-0.5,2.2-1,3.3-1.4c0.5-0.2,1.1-0.4,1.6-0.6c1-0.4,1.9-0.7,2.9-1.1
			c0.6-0.2,1.1-0.4,1.7-0.6c1.4-0.5,2.9-0.9,4.3-1.3c1.7-0.5,3.5-0.9,5.4-1.3c1.7-0.4,3.4-0.7,5.1-0.9c0.2,0,0.5-0.1,0.7-0.1
			l0.5-0.1c10.4-1.5,21.4-1.2,32.8,0.8c14.6,2.6,27.2,7.2,37.4,13.7c2.1,1.4,4.2,2.9,6.2,4.5L778.6,83c-6.8-11-14.8-19.5-23.7-25.2
			c-9.7-6.2-21.8-10.6-35.8-13.1c-9.6-1.7-19-2.1-27.9-1.2C691.2,43.5,691.1,43.5,691,43.5z"/>
	</g>
	<g>
		<g>
			<path fill="#DA1C5C" d="M725.7,194.9l108.4,19.1l-8.6,31.3l-32-5.6l-28.7,104.8c-27.5,19.8-59.7,26.4-96.5,19.9
				c-20-3.5-35.9-10.2-47.8-20.1c-11.8-9.9-19.5-21.6-22.9-35.2c-3.4-13.6-3.1-27.8,1-42.7c5.6-20.3,15.3-35.9,29.4-46.7
				c14-10.8,31.6-16.6,52.8-17.5l0.3-1.2c-15.2-6.8-25.3-15.9-30.3-27.3c-5-11.4-5.6-24.1-1.7-38.2c3.3-12,9.5-22.3,18.8-30.9
				c9.2-8.6,20.6-14.8,34-18.6c13.5-3.8,27.9-4.3,43.4-1.6c14.4,2.5,26.6,7,36.6,13.4c10,6.4,18.7,16,26.1,28.8l-31.3,17.9
				c-4.9-8.5-10.2-15-15.9-19.4c-5.6-4.4-12.9-7.4-21.7-8.9c-12-2.1-22.1-0.5-30.3,4.9c-8.2,5.4-13.8,13.7-16.9,24.9
				c-3.1,11.5-1.5,21.9,4.8,31.4C703.3,186.8,712.9,192.7,725.7,194.9z M727.7,322.4l24.6-89.9l-40-7.1c-12-2.1-22.8-1.1-32.3,2.9
				c-9.5,4.1-17.4,10-23.8,17.8c-6.3,7.8-10.8,16.4-13.3,25.7c-4,14.6-3.1,27.5,2.8,38.6c5.9,11.2,17.1,18.2,33.7,21.1
				c9.3,1.6,18.2,1.6,26.6,0C714.5,329.8,721.7,326.8,727.7,322.4"/>
			<path fill="#202933" d="M688.9,368.9c-6.8-0.3-13.8-1.1-21-2.3c-20.3-3.6-36.7-10.5-48.8-20.6c-12.2-10.2-20.1-22.4-23.6-36.3
				c-3.5-13.9-3.1-28.7,1-43.8c5.7-20.7,15.8-36.8,30.1-47.8c13-10,29.1-15.9,48.1-17.6c-12.7-6.7-21.4-15.3-25.9-25.8
				c-5.2-11.8-5.8-25.2-1.8-39.7c3.4-12.3,9.9-23.1,19.4-32c9.4-8.8,21.2-15.3,34.9-19.1c13.7-3.9,28.7-4.4,44.4-1.6
				c14.6,2.6,27.2,7.2,37.4,13.7c10.2,6.6,19.3,16.5,26.8,29.5c0.3,0.5,0.4,1.1,0.2,1.7c-0.2,0.6-0.5,1-1,1.3l-31.3,17.9
				c-1.1,0.6-2.4,0.2-3-0.8c-4.8-8.2-9.9-14.5-15.3-18.8c-5.3-4.2-12.3-7-20.7-8.5c-11.4-2-21-0.5-28.7,4.6
				c-7.7,5.1-13.1,13-16,23.7c-3,10.9-1.5,20.6,4.5,29.6c6,8.9,15.1,14.5,27.3,16.6l108.4,19.1c0.6,0.1,1.1,0.5,1.5,1
				c0.3,0.5,0.4,1.2,0.3,1.8l-8.6,31.3c-0.3,1.1-1.4,1.8-2.5,1.6l-30-5.3l-28.2,102.9c-0.1,0.5-0.4,0.9-0.8,1.2
				C743.6,362.5,717.6,370.1,688.9,368.9z M730.6,85c-9.7-0.4-19.2,0.7-28,3.1c-13.1,3.7-24.2,9.7-33.1,18.1
				c-8.9,8.3-15,18.4-18.1,29.9c-3.7,13.5-3.2,25.9,1.6,36.8c4.7,10.8,14.5,19.6,29.1,26.1c1,0.4,1.5,1.5,1.2,2.6l-0.3,1.2
				c-0.3,0.9-1.1,1.6-2,1.6c-20.7,0.9-38,6.6-51.6,17.1c-13.5,10.4-23.2,25.7-28.6,45.5c-3.9,14.4-4.3,28.4-1,41.6
				c3.3,13,10.7,24.5,22.2,34c11.5,9.6,27.2,16.2,46.7,19.6c35.8,6.3,67.4-0.1,94.2-19.1l28.5-104c0.3-1.1,1.4-1.8,2.5-1.6l30,5.3
				l7.4-27l-106.1-18.7c-13.4-2.4-23.5-8.6-30.2-18.5c-6.7-9.9-8.4-21.1-5.1-33.2c3.2-11.7,9.2-20.5,17.8-26.2
				c8.6-5.7,19.4-7.4,31.9-5.2c9.1,1.6,16.7,4.8,22.6,9.4c5.4,4.3,10.6,10.4,15.3,18.2l27.5-15.7c-6.9-11.5-15.1-20.2-24.2-26.1
				c-9.7-6.2-21.8-10.6-35.8-13.1C740.2,85.8,735.3,85.2,730.6,85z M689.9,334.9L689.9,334.9c-3.5-0.1-7.2-0.5-10.8-1.2
				c-17.2-3-29-10.5-35.2-22.2c-6.1-11.6-7.1-25.1-3-40.2c2.6-9.6,7.3-18.6,13.7-26.5c6.5-8,14.8-14.2,24.6-18.4
				c9.9-4.2,21.1-5.2,33.5-3.1l40,7.1c0.6,0.1,1.1,0.5,1.5,1c0.3,0.5,0.4,1.2,0.3,1.8L729.8,323c-0.1,0.5-0.4,0.9-0.8,1.2
				c-6.2,4.6-13.8,7.8-22.5,9.5C701.2,334.7,695.6,335.1,689.9,334.9z M702.9,226.6c-7.9-0.3-15.3,0.9-22,3.8
				c-9.1,3.9-16.9,9.7-22.9,17.1c-6.1,7.5-10.4,15.9-12.9,24.9c-3.8,14-2.9,26.4,2.7,37c5.5,10.5,16.3,17.2,32.1,20
				c3.5,0.6,6.9,1,10.2,1.1l0,0c5.3,0.2,10.6-0.2,15.6-1.2c7.8-1.5,14.5-4.3,20.1-8.3l23.8-86.9l-37.6-6.6
				C708.8,227,705.8,226.7,702.9,226.6z"/>
		</g>
	</g>
	<g>
		<path fill="#FDB933" d="M780.4,81.8c-0.8-1.4-1.7-2.7-2.6-4c-2.3-3.4-4.7-6.4-7.2-9.3c-2.7-3-5.4-5.7-8.4-8.1
			c-2-1.7-4.1-3.2-6.2-4.6c-10-6.4-22.2-10.9-36.6-13.4c-5.2-0.9-10.3-1.5-15.3-1.6c-4.5-0.2-8.9,0-13.1,0.4l26,42
			c4.3-0.4,8.7-0.6,13.1-0.4c5,0.2,10.1,0.7,15.3,1.6c14.4,2.5,26.6,7,36.6,13.4c2.1,1.4,4.2,2.9,6.2,4.6c2.9,2.4,5.7,5.1,8.4,8.1
			c2.5,2.8,4.9,5.9,7.2,9.3c0.9,1.3,1.7,2.6,2.6,4L780.4,81.8z"/>
		<path fill="#202933" d="M806.3,126c-0.7,0-1.4-0.4-1.8-1c0,0,0,0,0,0l0,0c-0.8-1.3-1.7-2.6-2.5-3.9c-2.2-3.3-4.6-6.3-7-9
			c-2.6-2.9-5.3-5.5-8.1-7.9c-1.9-1.6-4-3.1-6-4.4c-9.7-6.2-21.8-10.6-35.8-13.1c-4.9-0.9-9.8-1.4-14.5-1.6l-0.6,0
			c-4.4-0.2-8.7,0-12.8,0.4c-0.8,0.1-1.7-0.3-2.1-1l-26-42c-0.4-0.6-0.4-1.5-0.1-2.1c0.3-0.7,1-1.1,1.8-1.2
			c4.4-0.4,8.9-0.6,13.4-0.4l0.6,0c4.9,0.2,9.9,0.8,15,1.7c14.6,2.6,27.2,7.2,37.4,13.7c2.2,1.4,4.4,3,6.5,4.7
			c3,2.5,5.9,5.3,8.6,8.3c2.6,2.9,5,6.1,7.4,9.5c0.9,1.3,1.8,2.6,2.6,4l26,42c0.6,1,0.3,2.4-0.7,3C807.2,125.9,806.8,126,806.3,126z
			 M730.8,80.6c4.9,0.2,9.9,0.8,15,1.7c14.6,2.6,27.2,7.2,37.4,13.7c2.1,1.4,4.2,2.9,6.2,4.5L778.6,83c-0.8-1.3-1.7-2.6-2.5-3.9
			c-2.2-3.3-4.6-6.3-7-9c-2.6-2.9-5.3-5.5-8.1-7.9c-1.9-1.6-4-3.1-6-4.4c-9.7-6.2-21.8-10.6-35.8-13.1c-4.9-0.9-9.8-1.4-14.5-1.6
			l-0.6,0c-3.1-0.1-6.2-0.1-9.3,0.1l23.4,37.7c3.9-0.3,8-0.4,12.1-0.3L730.8,80.6z"/>
	</g>
</g>
<path fill="#FFFFFF" d="M681,303.5H97.7V192.4H681V303.5z M101.7,299.5H677V196.4H101.7V299.5z M188.5,233.3
	c-2.5-0.8-4.7-1.2-6.6-1.2c-2.1,0-3.8,0.4-5,1.2c-1.2,0.8-1.9,1.9-1.9,3.3c0,1.3,0.4,2.4,1.3,3.2c0.9,0.9,1.9,1.6,3.2,2.1
	s3.1,1.2,5.3,1.8c3.1,0.9,5.7,1.9,7.7,2.8c2,0.9,3.7,2.3,5.1,4.1c1.4,1.8,2.1,4.2,2.1,7.2c0,2.8-0.8,5.3-2.3,7.4
	c-1.5,2.1-3.6,3.7-6.3,4.8s-5.7,1.7-9.2,1.7c-3.6,0-7.2-0.7-10.6-2c-3.4-1.3-6.5-3.2-9-5.4l3.7-7.6c2.3,2.2,5,3.9,7.9,5.1
	c2.9,1.2,5.6,1.9,8.2,1.9c2.5,0,4.4-0.5,5.8-1.4c1.4-0.9,2.1-2.2,2.1-3.9c0-1.3-0.4-2.4-1.3-3.3c-0.9-0.9-2-1.6-3.3-2.1
	c-1.3-0.5-3.1-1.1-5.4-1.8c-3.1-0.9-5.7-1.8-7.7-2.7c-2-0.9-3.7-2.2-5.1-4c-1.4-1.8-2.1-4.1-2.1-7.1c0-2.7,0.7-5,2.2-7.1
	c1.4-2,3.5-3.6,6.1-4.7c2.6-1.1,5.7-1.7,9.1-1.7c3,0,6,0.4,8.9,1.3c2.9,0.9,5.6,2.1,7.9,3.6l-3.6,7.8
	C193.5,235.3,191,234.1,188.5,233.3z M253.2,227.3c3.8,2.1,6.8,4.9,8.9,8.6c2.2,3.6,3.2,7.6,3.2,12.1c0,4.4-1.1,8.5-3.2,12.1
	c-2.2,3.6-5.1,6.5-8.9,8.7c-3.8,2.1-8,3.2-12.6,3.2s-8.8-1.1-12.6-3.2c-3.8-2.1-6.8-5-8.9-8.7c-2.2-3.6-3.3-7.7-3.3-12.1
	c0-4.4,1.1-8.4,3.3-12.1c2.2-3.6,5.1-6.5,8.9-8.6s8-3.1,12.6-3.1S249.5,225.2,253.2,227.3z M232.9,234.2c-2.4,1.4-4.4,3.3-5.8,5.7
	c-1.4,2.4-2.1,5.1-2.1,8c0,2.9,0.7,5.6,2.2,8c1.4,2.4,3.4,4.4,5.8,5.8c2.4,1.4,5,2.1,7.9,2.1c2.8,0,5.4-0.7,7.8-2.1
	c2.4-1.4,4.3-3.3,5.7-5.8c1.4-2.4,2.1-5.1,2.1-8c0-2.9-0.7-5.6-2.1-8c-1.4-2.4-3.3-4.3-5.7-5.7c-2.4-1.4-5-2.1-7.8-2.1
	C238,232.1,235.4,232.8,232.9,234.2z M282.5,224.8h32l-0.1,7.8h-23.1v12.5h21v7.8h-21v18.4h-8.9V224.8z M331.2,224.8h37.9v7.9h-14.5
	v38.5h-9v-38.5h-14.5V224.8z M445,224.8h9.2l-15.7,46.4h-9.2L418.6,236l-10.8,35.2h-9.1l-15.6-46.4h9.5l10.9,36.8l10.9-36.8h8.8
	l10.9,36.9L445,224.8z M500,271.2l-4.1-9.8h-22.7l-4.1,9.8h-9.2l20.4-46.4h9.2l20.1,46.4H500z M476.4,253.8h16.3l-8.1-19.5
	L476.4,253.8z M553.2,271.2l-8-13.7c-0.4,0-0.9,0.1-1.7,0.1h-10.5v13.7h-8.9v-46.4h19.4c6,0,10.7,1.4,13.9,4.2
	c3.3,2.8,4.9,6.7,4.9,11.8c0,3.6-0.8,6.7-2.4,9.3c-1.6,2.6-3.9,4.5-6.9,5.8l10.2,15.4H553.2z M533.1,249.7h10.5
	c3.4,0,5.9-0.7,7.7-2.2c1.8-1.5,2.7-3.6,2.7-6.5c0-2.8-0.9-5-2.7-6.4c-1.8-1.4-4.3-2.1-7.7-2.1h-10.5V249.7z M581.4,224.8h34v7.8
	h-25.1V244h22.5v7.8h-22.5v11.7h25.9v7.8h-34.8V224.8z M180.1,342.7h4v9c-1.2,0.9-2.7,1.7-4.4,2.3c-1.7,0.6-3.4,0.9-5,0.9
	c-2.3,0-4.5-0.5-6.4-1.6s-3.4-2.6-4.5-4.4c-1.1-1.9-1.7-3.9-1.7-6.2c0-2.3,0.6-4.3,1.7-6.2c1.1-1.8,2.7-3.3,4.6-4.4
	c2-1.1,4.1-1.6,6.5-1.6c1.7,0,3.4,0.3,5,0.9c1.7,0.6,3.1,1.4,4.3,2.5l-2.6,3.4c-0.9-0.9-2-1.5-3.1-2c-1.2-0.5-2.4-0.7-3.6-0.7
	c-1.5,0-2.9,0.4-4.1,1.1c-1.3,0.7-2.2,1.7-3,2.9c-0.7,1.2-1.1,2.6-1.1,4.1c0,1.5,0.4,2.9,1.1,4.1s1.7,2.2,3,3
	c1.2,0.7,2.6,1.1,4.1,1.1c0.8,0,1.7-0.1,2.6-0.4c0.9-0.3,1.7-0.6,2.6-1.1V342.7z M207.6,354.5l-4.1-7c-0.2,0-0.5,0-0.8,0h-5.4v7
	h-4.6v-23.8h9.9c3.1,0,5.5,0.7,7.1,2.1c1.7,1.4,2.5,3.4,2.5,6c0,1.9-0.4,3.4-1.2,4.8c-0.8,1.3-2,2.3-3.5,3l5.2,7.9H207.6z
	 M197.3,343.5h5.4c1.7,0,3-0.4,3.9-1.1c0.9-0.7,1.4-1.9,1.4-3.3c0-1.4-0.5-2.5-1.4-3.3c-0.9-0.7-2.2-1.1-3.9-1.1h-5.4V343.5z
	 M238.3,354.5l-2.1-5h-11.6l-2.1,5h-4.7l10.4-23.8h4.7l10.3,23.8H238.3z M226.2,345.6h8.4l-4.1-10L226.2,345.6z M265.7,332.3
	c1.9,1,3.4,2.4,4.4,4.2c1.1,1.8,1.6,3.9,1.6,6.1c0,2.3-0.5,4.3-1.6,6.1c-1.1,1.8-2.6,3.2-4.5,4.2c-1.9,1-4.1,1.5-6.5,1.5h-9.7v-23.8
	h9.9C261.7,330.7,263.8,331.3,265.7,332.3z M263.4,349.5c1.2-0.7,2.1-1.6,2.7-2.8c0.7-1.2,1-2.5,1-4.1c0-1.5-0.3-2.9-1-4.1
	c-0.7-1.2-1.6-2.2-2.8-2.8c-1.2-0.7-2.5-1-4-1H254v15.8h5.4C260.9,350.5,262.2,350.2,263.4,349.5z M284.8,349.2
	c1.1,1.1,2.5,1.6,4.3,1.6c1.8,0,3.2-0.5,4.2-1.6c1-1.1,1.5-2.5,1.5-4.4v-14h4.6v14c0,2.1-0.4,3.9-1.3,5.4c-0.8,1.5-2,2.7-3.6,3.5
	c-1.6,0.8-3.4,1.2-5.5,1.2c-2.1,0-4-0.4-5.6-1.2c-1.6-0.8-2.8-2-3.6-3.5c-0.8-1.5-1.3-3.3-1.3-5.4v-14h4.6v14
	C283.2,346.6,283.7,348.1,284.8,349.2z M325.1,354.5l-2.1-5h-11.6l-2.1,5h-4.7l10.4-23.8h4.7l10.3,23.8H325.1z M313,345.6h8.4
	l-4.1-10L313,345.6z M331.2,330.7h19.4v4h-7.4v19.7h-4.6v-19.7h-7.4V330.7z M357.2,330.7h17.4v4h-12.9v5.9h11.6v4h-11.6v6h13.3v4
	h-17.8V330.7z M406,335.1c-1.3-0.4-2.4-0.6-3.4-0.6c-1.1,0-1.9,0.2-2.6,0.6c-0.6,0.4-1,1-1,1.7c0,0.7,0.2,1.2,0.7,1.6
	c0.4,0.4,1,0.8,1.7,1.1c0.7,0.3,1.6,0.6,2.7,0.9c1.6,0.5,2.9,1,4,1.4c1,0.5,1.9,1.2,2.6,2.1c0.7,0.9,1.1,2.2,1.1,3.7
	c0,1.4-0.4,2.7-1.2,3.8c-0.8,1.1-1.9,1.9-3.2,2.5c-1.4,0.6-2.9,0.9-4.7,0.9c-1.9,0-3.7-0.3-5.4-1c-1.8-0.7-3.3-1.6-4.6-2.8l1.9-3.9
	c1.2,1.1,2.5,2,4,2.6c1.5,0.6,2.9,1,4.2,1c1.3,0,2.3-0.2,3-0.7c0.7-0.5,1.1-1.2,1.1-2c0-0.7-0.2-1.2-0.7-1.7c-0.4-0.4-1-0.8-1.7-1.1
	c-0.7-0.3-1.6-0.6-2.8-0.9c-1.6-0.5-2.9-0.9-3.9-1.4s-1.9-1.1-2.6-2.1c-0.7-0.9-1.1-2.1-1.1-3.6c0-1.4,0.4-2.6,1.1-3.6
	c0.7-1,1.8-1.8,3.1-2.4c1.3-0.6,2.9-0.8,4.7-0.8c1.5,0,3.1,0.2,4.6,0.7c1.5,0.5,2.8,1.1,4,1.8l-1.8,4
	C408.6,336.1,407.3,335.5,406,335.1z M419.6,330.7h4.6v10.2H436v-10.2h4.6v23.8H436v-9.6h-11.9v9.6h-4.6V330.7z M466.3,332
	c1.9,1.1,3.5,2.5,4.6,4.4c1.1,1.9,1.7,3.9,1.7,6.2c0,2.3-0.6,4.3-1.7,6.2s-2.6,3.3-4.6,4.4s-4.1,1.6-6.4,1.6c-2.4,0-4.5-0.5-6.4-1.6
	s-3.5-2.6-4.6-4.4c-1.1-1.9-1.7-3.9-1.7-6.2c0-2.3,0.6-4.3,1.7-6.2c1.1-1.9,2.6-3.3,4.6-4.4c1.9-1.1,4.1-1.6,6.4-1.6
	C462.3,330.4,464.4,331,466.3,332z M455.9,335.6c-1.2,0.7-2.2,1.7-3,2.9c-0.7,1.2-1.1,2.6-1.1,4.1c0,1.5,0.4,2.9,1.1,4.1
	s1.7,2.2,3,3c1.2,0.7,2.6,1.1,4,1.1c1.4,0,2.8-0.4,4-1.1c1.2-0.7,2.2-1.7,2.9-3s1.1-2.6,1.1-4.1c0-1.5-0.4-2.9-1.1-4.1
	c-0.7-1.2-1.7-2.2-2.9-2.9c-1.2-0.7-2.5-1.1-4-1.1C458.5,334.5,457.2,334.9,455.9,335.6z M508,330.7h4.7l-8.1,23.8h-4.7l-5.4-18
	l-5.5,18h-4.7l-8-23.8h4.9l5.6,18.9l5.6-18.9h4.5l5.6,18.9L508,330.7z M532.9,335.3c-1.1-0.5-2.3-0.8-3.5-0.8c-1.5,0-2.8,0.4-4,1.1
	c-1.2,0.7-2.2,1.7-2.9,2.9c-0.7,1.2-1.1,2.6-1.1,4.1s0.4,2.8,1.1,4.1c0.7,1.2,1.7,2.2,2.9,2.9c1.2,0.7,2.6,1.1,4,1.1
	c1.1,0,2.3-0.2,3.4-0.7c1.1-0.5,2.2-1.2,3-2.1l2.7,3c-1.2,1.3-2.7,2.3-4.3,3c-1.7,0.7-3.3,1.1-5,1.1c-2.3,0-4.4-0.5-6.3-1.6
	s-3.4-2.6-4.5-4.4c-1.1-1.9-1.6-3.9-1.6-6.2c0-2.3,0.6-4.3,1.7-6.2c1.1-1.9,2.6-3.3,4.5-4.4c1.9-1.1,4-1.6,6.4-1.6
	c1.7,0,3.4,0.3,5,1c1.6,0.7,3,1.6,4.2,2.8l-2.7,3.3C535,336.6,534,335.9,532.9,335.3z M563.1,354.5l-2.1-5h-11.6l-2.1,5h-4.7
	l10.4-23.8h4.7l10.3,23.8H563.1z M551,345.6h8.4l-4.1-10L551,345.6z M585.3,335.1c-1.3-0.4-2.4-0.6-3.4-0.6c-1.1,0-1.9,0.2-2.6,0.6
	c-0.6,0.4-1,1-1,1.7c0,0.7,0.2,1.2,0.7,1.6c0.4,0.4,1,0.8,1.7,1.1c0.7,0.3,1.6,0.6,2.7,0.9c1.6,0.5,2.9,1,4,1.4
	c1,0.5,1.9,1.2,2.6,2.1c0.7,0.9,1.1,2.2,1.1,3.7c0,1.4-0.4,2.7-1.2,3.8c-0.8,1.1-1.9,1.9-3.2,2.5c-1.4,0.6-2.9,0.9-4.7,0.9
	c-1.9,0-3.7-0.3-5.4-1s-3.3-1.6-4.6-2.8l1.9-3.9c1.2,1.1,2.5,2,4,2.6c1.5,0.6,2.9,1,4.2,1c1.3,0,2.3-0.2,3-0.7
	c0.7-0.5,1.1-1.2,1.1-2c0-0.7-0.2-1.2-0.7-1.7c-0.4-0.4-1-0.8-1.7-1.1c-0.7-0.3-1.6-0.6-2.8-0.9c-1.6-0.5-2.9-0.9-3.9-1.4
	c-1-0.5-1.9-1.1-2.6-2.1c-0.7-0.9-1.1-2.1-1.1-3.6c0-1.4,0.4-2.6,1.1-3.6c0.7-1,1.8-1.8,3.1-2.4c1.3-0.6,2.9-0.8,4.7-0.8
	c1.5,0,3.1,0.2,4.6,0.7c1.5,0.5,2.8,1.1,4,1.8l-1.8,4C587.8,336.1,586.6,335.5,585.3,335.1z M598.8,330.7h17.4v4h-12.9v5.9h11.6v4
	h-11.6v6h13.3v4h-17.8V330.7z"/>
<g>
	<path fill="#FFFFFF" d="M358.6,54.8v4.3h-19.2v-3.6l9.8-10.1c0.9-0.9,1.7-1.9,2.3-2.8c0.6-0.9,0.9-1.7,0.9-2.4
		c0-0.9-0.4-1.7-1.1-2.2s-1.8-0.8-3.1-0.8c-1.1,0-2.4,0.3-3.6,0.9c-1.3,0.6-2.5,1.4-3.6,2.4l-2-3.8c1.5-1.2,3.1-2.1,4.8-2.8
		c1.7-0.7,3.4-1,5.1-1s3.2,0.3,4.5,0.8c1.3,0.5,2.3,1.3,3.1,2.3c0.7,1,1.1,2.2,1.1,3.5c0,1.3-0.4,2.6-1.3,4
		c-0.9,1.4-2.1,2.9-3.6,4.6l-6.6,6.7H358.6z"/>
	<path fill="#FFFFFF" d="M386.5,36.3c1.9,2.3,2.9,5.5,2.9,9.8c0,4.2-1,7.5-2.9,9.8c-1.9,2.3-4.7,3.4-8.3,3.4c-3.6,0-6.3-1.1-8.3-3.4
		c-1.9-2.3-2.9-5.5-2.9-9.8c0-4.3,1-7.5,2.9-9.8c1.9-2.3,4.7-3.4,8.3-3.4C381.8,32.9,384.6,34,386.5,36.3z M373.7,39.1
		c-1,1.5-1.5,3.8-1.5,7c0,3.2,0.5,5.5,1.5,7c1,1.5,2.5,2.3,4.6,2.3c2.1,0,3.6-0.8,4.6-2.3c1-1.5,1.5-3.8,1.5-7c0-3.2-0.5-5.5-1.5-7
		c-1-1.5-2.5-2.2-4.6-2.2C376.2,36.8,374.7,37.6,373.7,39.1z"/>
	<path fill="#FFFFFF" d="M396.8,33.1h10.4v26h-5V37.5h-5.5V33.1z"/>
	<path fill="#FFFFFF" d="M423.4,54.8c1,0.3,2,0.4,3,0.4c2.3,0,4.1-0.8,5.2-2.3c1.2-1.5,1.7-3.7,1.7-6.4c-0.7,1.1-1.6,2-2.7,2.6
		c-1.2,0.6-2.5,0.9-4.1,0.9c-2.6,0-4.6-0.8-6.1-2.3c-1.5-1.5-2.2-3.5-2.2-6.1c0-1.8,0.4-3.3,1.1-4.6c0.8-1.3,1.8-2.3,3.2-3
		c1.4-0.7,3-1.1,4.9-1.1c2.2,0,4.1,0.5,5.7,1.5c1.6,1,2.8,2.5,3.7,4.4c0.9,1.9,1.3,4.2,1.3,6.8c0,2.7-0.5,5.2-1.4,7.2
		c-0.9,2.1-2.2,3.7-4,4.8c-1.7,1.1-3.7,1.7-6,1.7c-1.3,0-2.7-0.2-4.1-0.6c-1.4-0.4-2.7-0.9-3.8-1.5l1.9-3.7
		C421.5,54.1,422.4,54.5,423.4,54.8z M424,38.3c-0.9,0.8-1.3,1.9-1.3,3.4c0,1.4,0.4,2.5,1.3,3.3c0.8,0.8,2,1.2,3.5,1.2
		c1.6,0,2.8-0.4,3.7-1.3c0.9-0.9,1.4-2,1.3-3.3c0-1.2-0.4-2.2-1.2-3.1c-0.9-0.9-2.1-1.3-3.7-1.3C426.1,37.1,424.9,37.5,424,38.3z"/>
</g>
<g>
	<g>
		<defs>
			<path id="SVGID_5_" d="M201.1,44.7L161,3.1c9.6,1.6,20.7,5.3,33.3,11.2l40.1,41.6C221.8,50,210.7,46.3,201.1,44.7z"/>
		</defs>
		<defs>
			<path id="SVGID_6_" d="M234.3,58.1c-0.3,0-0.6-0.1-0.9-0.2c-12.3-5.7-23.3-9.4-32.7-11c-0.5-0.1-0.9-0.3-1.2-0.6L159.4,4.7
				C158.7,4,158.6,3,159,2.1c0.4-0.8,1.4-1.3,2.3-1.2c9.8,1.6,21.2,5.5,33.8,11.4c0.2,0.1,0.5,0.3,0.7,0.5l39.9,41.3
				c0.6,0.4,0.9,1.1,0.9,1.8C236.6,57.1,235.6,58.1,234.3,58.1C234.4,58.1,234.3,58.1,234.3,58.1z M202.2,42.6
				c6.9,1.2,14.5,3.5,22.9,6.8l-32.1-33.3c-9.2-4.3-17.7-7.4-25.3-9.3L202.2,42.6z"/>
		</defs>
		<use xlink:href="#SVGID_5_"  overflow="visible" fill="#FDB933"/>
		<use xlink:href="#SVGID_6_"  overflow="visible" fill="#202933"/>
		<clipPath id="SVGID_7_">
			<use xlink:href="#SVGID_5_"  overflow="visible"/>
		</clipPath>
		<clipPath id="SVGID_8_" clip-path="url(#SVGID_7_)">
			<use xlink:href="#SVGID_6_"  overflow="visible"/>
		</clipPath>
		<g clip-path="url(#SVGID_8_)" enable-background="new    ">
			<g>
				<path fill="#FDB933" d="M201.1,44.7L161,3.1c9.6,1.6,20.7,5.3,33.3,11.2l40.1,41.6C221.8,50,210.7,46.3,201.1,44.7"/>
				<path fill="#202933" d="M234.3,58.1c-0.3,0-0.6-0.1-0.9-0.2c-12.3-5.7-23.3-9.4-32.7-11c-0.5-0.1-0.9-0.3-1.2-0.6L159.4,4.7
					C158.7,4,158.6,3,159,2.1c0.4-0.8,1.4-1.3,2.3-1.2c9.8,1.6,21.2,5.5,33.8,11.4c0.2,0.1,0.5,0.3,0.7,0.5l39.9,41.3
					c0.6,0.4,0.9,1.1,0.9,1.8C236.6,57.1,235.6,58.1,234.3,58.1C234.4,58.1,234.3,58.1,234.3,58.1z M202.2,42.6
					c6.9,1.2,14.5,3.5,22.9,6.8l-32.1-33.3c-9.2-4.3-17.7-7.4-25.3-9.3L202.2,42.6z"/>
			</g>
		</g>
	</g>
	<g>
		<path fill="#FDB933" d="M88.4,78.2c-0.7,1.3-1.5,2.4-2.4,3.5c-0.3,0.3-0.6,0.6-0.8,1c-0.6,0.7-1.2,1.4-1.9,2
			c-0.2,0.2-0.4,0.3-0.6,0.5c-0.7,0.7-1.5,1.3-2.3,1.8c-0.2,0.2-0.4,0.3-0.7,0.4c-1,0.6-2,1.2-3,1.6c-0.2,0.1-0.5,0.2-0.7,0.3
			c-0.9,0.4-1.9,0.7-2.9,1c-0.2,0-0.3,0.1-0.5,0.1c-1.1,0.3-2.3,0.5-3.5,0.6c-0.2,0-0.5,0-0.7,0.1c-1.2,0.1-2.5,0.1-3.8,0.1
			c-0.2,0-0.4,0-0.7,0c-1.4-0.1-2.8-0.2-4.3-0.5c-5.4-0.9-11.3-2.9-17.9-5.9l40.1,41.6c6.5,3,12.5,5,17.9,5.9
			c1.5,0.2,2.9,0.4,4.3,0.5c0.2,0,0.4,0,0.7,0c1.3,0.1,2.6,0,3.8-0.1c0.2,0,0.5,0,0.7-0.1c0.3,0,0.7,0,1-0.1
			c0.9-0.1,1.7-0.3,2.5-0.5c0.2,0,0.3-0.1,0.5-0.1c0.4-0.1,0.7-0.2,1.1-0.3c0.6-0.2,1.2-0.5,1.8-0.7c0.2-0.1,0.5-0.2,0.7-0.3
			c0.1,0,0.2-0.1,0.2-0.1c0.8-0.4,1.5-0.8,2.3-1.2c0.2-0.1,0.3-0.2,0.5-0.3c0.2-0.1,0.4-0.3,0.7-0.4c0.3-0.2,0.7-0.4,1-0.7
			c0.5-0.3,0.9-0.7,1.3-1.1c0.2-0.2,0.4-0.3,0.6-0.5c0.1-0.1,0.2-0.1,0.3-0.2c0.6-0.6,1.1-1.2,1.6-1.8c0.3-0.3,0.6-0.6,0.8-0.9
			c0,0,0.1-0.1,0.1-0.1c0.8-1,1.6-2.2,2.3-3.4l1.7-3.5L90.1,74.7L88.4,78.2z"/>
		<path fill="#202933" d="M106.1,134.9c-0.5,0-1,0-1.5,0l-0.7,0c-1.6-0.1-3.1-0.3-4.5-0.5c-5.5-0.9-11.7-3-18.4-6.1
			c-0.2-0.1-0.5-0.3-0.7-0.5L40.2,86.2c-0.7-0.8-0.8-2-0.2-2.8c0.6-0.9,1.8-1.2,2.8-0.7c6.3,2.9,12.1,4.9,17.3,5.7
			c1.3,0.2,2.6,0.4,4.1,0.4l0.6,0c1.2,0.1,2.4,0,3.6-0.1l0.6,0c1.3-0.1,2.3-0.3,3.3-0.5l0.2-0.1c1-0.3,1.9-0.6,2.8-0.9l0.6-0.2
			c0.9-0.4,1.8-0.9,2.7-1.5l0.6-0.4c0.7-0.5,1.4-1,2.1-1.6l0.6-0.5c0.6-0.6,1.1-1.2,1.7-1.9c0.1-0.2,0.3-0.3,0.4-0.5
			c0.1-0.1,0.3-0.3,0.4-0.4c0.8-1,1.5-2.1,2.2-3.3l1.6-3.4c0.3-0.6,0.9-1.1,1.7-1.2c0.7-0.1,1.4,0.1,1.9,0.7l40.1,41.6
			c0.7,0.7,0.8,1.7,0.4,2.5l-1.7,3.5c-0.8,1.4-1.7,2.7-2.5,3.8c0,0.1-0.1,0.2-0.2,0.2c-0.1,0.1-0.3,0.4-0.5,0.6l-0.6,0.7
			c-0.5,0.5-0.9,1.1-1.4,1.6c0,0-0.2,0.2-0.3,0.2c-0.2,0.1-0.3,0.3-0.5,0.4l-0.5,0.4c-0.4,0.3-0.7,0.7-1.1,1
			c-0.2,0.2-0.5,0.4-0.8,0.5l-0.5,0.3c-0.2,0.1-0.3,0.2-0.5,0.4c-0.3,0.2-0.4,0.3-0.5,0.4c-0.8,0.5-1.7,0.9-2.5,1.3
			c-0.1,0-0.2,0.1-0.3,0.1c-0.1,0.1-0.3,0.1-0.5,0.2l-0.5,0.2c-0.6,0.2-1.1,0.4-1.7,0.6c-0.3,0.1-0.6,0.2-0.9,0.2l-0.8,0.2
			c-0.9,0.2-1.8,0.4-2.8,0.5c-0.2,0-0.5,0.1-0.7,0.1l-1.1,0.1C107.9,134.9,107,134.9,106.1,134.9z M83.2,124.4
			c6.2,2.8,11.9,4.7,16.9,5.6c1.3,0.2,2.6,0.4,4.1,0.4l0.6,0c1.2,0,2.4,0,3.6-0.1l1.1-0.1c0.2,0,0.3,0,0.5,0
			c0.8-0.1,1.6-0.3,2.3-0.4l0.2-0.1c0,0,0.2-0.1,0.2-0.1l0.3-0.1c0.2-0.1,0.4-0.1,0.6-0.2c0.5-0.1,0.9-0.3,1.3-0.5l1-0.4
			c0.1,0,0.2-0.1,0.3-0.1c0.6-0.3,1.3-0.7,2-1.1l1.4-1c0.2-0.1,0.3-0.2,0.5-0.3c0.3-0.2,0.6-0.5,0.8-0.7l0.9-0.8
			c0,0,0.2-0.2,0.2-0.2c0.4-0.4,0.7-0.8,1.1-1.2l0.3-0.4c0.1-0.2,0.3-0.3,0.4-0.5c0.1-0.1,0.3-0.3,0.4-0.4c0-0.1,0.1-0.2,0.2-0.2
			c0.6-0.9,1.4-1.9,2-3.1l1-2L90.7,78.5l-0.3,0.7c-0.8,1.4-1.7,2.7-2.6,3.9c-0.2,0.3-0.4,0.5-0.6,0.7l-0.3,0.3
			c-0.6,0.7-1.3,1.5-2,2.2c-0.2,0.1-0.3,0.3-0.5,0.4l-0.2,0.2c-0.8,0.7-1.7,1.4-2.5,2c-0.4,0.2-0.5,0.4-0.7,0.5
			c-1.1,0.7-2.2,1.3-3.3,1.8c-0.2,0.1-0.4,0.1-0.6,0.2l-0.2,0.1c-1.1,0.5-2.2,0.8-3.2,1.1l-0.5,0.1c-1.2,0.3-2.4,0.5-3.8,0.6
			l-0.8,0.1c-1.3,0.1-2.7,0.1-4.1,0.1l-0.7,0c-1.6-0.1-3.1-0.3-4.5-0.5c-2.7-0.5-5.6-1.2-8.7-2.2L83.2,124.4z"/>
	</g>
	<g>
		<path fill="#00A796" d="M144.6,2.6C144.5,2.6,144.5,2.6,144.6,2.6c-1.4,0.2-2.8,0.5-4.2,0.8c-0.3,0.1-0.6,0.2-0.9,0.2
			c-0.3,0.1-0.6,0.1-0.8,0.2c-0.6,0.2-1.1,0.4-1.7,0.6c-0.7,0.2-1.4,0.5-2,0.8c-0.2,0.1-0.4,0.1-0.5,0.2c-0.7,0.3-1.4,0.7-2.1,1.1
			c-0.5,0.2-0.9,0.5-1.4,0.7c-0.1,0.1-0.2,0.1-0.3,0.2c-0.9,0.6-1.8,1.2-2.7,1.9c-0.3,0.2-0.6,0.4-0.9,0.6c0,0-0.1,0-0.1,0.1
			c-1.2,0.9-2.4,1.9-3.5,3c-0.1,0.1-0.2,0.2-0.3,0.3c-0.1,0.1-0.1,0.1-0.2,0.2c-1,1-2,2.1-3,3.3c-0.3,0.3-0.5,0.6-0.8,1
			c-0.4,0.5-0.8,0.9-1.2,1.4c-0.4,0.5-0.8,1.1-1.2,1.6c-0.3,0.4-0.6,0.8-0.9,1.3c-1,1.5-2,3-2.9,4.6c-1,1.7-2.6,4.8-4.7,9.1
			l-18.2,39l40.1,41.6l18.2-39c2.1-4.3,3.7-7.4,4.7-9.1c0.9-1.6,1.9-3.1,2.9-4.6c0.3-0.4,0.6-0.8,0.9-1.3c0.8-1.1,1.5-2.1,2.3-3.1
			c0.3-0.3,0.5-0.7,0.8-1c1.1-1.2,2.1-2.4,3.2-3.5c0.1-0.1,0.2-0.2,0.3-0.3c1.2-1.1,2.3-2.1,3.6-3.1c0.3-0.2,0.6-0.4,0.9-0.6
			c1-0.7,2-1.4,3-2c0.4-0.3,0.9-0.5,1.4-0.7c0.9-0.5,1.7-0.9,2.6-1.3c0.7-0.3,1.3-0.5,2-0.8c0.8-0.3,1.7-0.6,2.5-0.9
			c0.3-0.1,0.6-0.2,0.9-0.2c1.4-0.3,2.7-0.6,4.2-0.8c4.9-0.7,10.4-0.5,16.4,0.5L161,3.1C154.9,2.1,149.4,2,144.6,2.6z"/>
		<path fill="#202933" d="M130.2,118.4c-0.6,0-1.2-0.2-1.6-0.7L88.5,76.2c-0.6-0.7-0.8-1.7-0.4-2.5l18.2-39c2.1-4.2,3.7-7.4,4.8-9.3
			c0.9-1.5,1.9-3,3-4.7c0.2-0.3,0.4-0.6,0.7-0.9l0.7-0.9c0.3-0.4,0.5-0.8,0.8-1.1c0.3-0.3,0.5-0.7,0.8-1l0.6-0.7
			c0.2-0.3,0.4-0.5,0.6-0.8c1.2-1.3,2.2-2.5,3.2-3.4c0,0,0.2-0.1,0.2-0.2l0.2-0.2c1.4-1.3,2.6-2.3,3.8-3.2c0.1,0,0.2-0.1,0.2-0.1
			c0.1-0.1,0.3-0.2,0.5-0.3l0.3-0.2c1-0.7,1.9-1.4,2.9-2c0.1,0,0.3-0.1,0.3-0.2c0.3-0.2,0.6-0.4,1-0.5l1-0.6
			c0.5-0.3,1.1-0.6,1.6-0.8c0.2-0.1,0.3-0.1,0.5-0.2c0.7-0.3,1.3-0.5,1.9-0.7l1-0.4c0.4-0.2,0.8-0.3,1.2-0.5
			c0.2-0.1,0.4-0.1,0.6-0.2l0.3-0.1c0.3-0.1,0.6-0.2,0.9-0.2c1.6-0.4,3-0.7,4.4-0.9c0,0,0,0,0,0c5.1-0.7,10.8-0.5,17.1,0.5
			c0.5,0.1,0.9,0.3,1.2,0.6l40.1,41.6c0.7,0.7,0.8,1.7,0.4,2.6c-0.4,0.8-1.4,1.3-2.3,1.2c-5.8-1-11.1-1.1-15.7-0.5
			c-1.2,0.2-2.4,0.4-3.9,0.8c-0.3,0.1-0.6,0.1-0.9,0.2c-0.7,0.2-1.4,0.5-2.1,0.7l-0.7,0.3c-0.5,0.2-1,0.4-1.5,0.6
			c-0.8,0.4-1.6,0.8-2.5,1.2l-0.6,0.3c-0.2,0.1-0.5,0.2-0.7,0.4c-1,0.6-2.1,1.3-2.8,1.9c-0.2,0.1-0.3,0.2-0.5,0.3
			c-0.1,0.1-0.2,0.1-0.3,0.2c-1.1,0.8-2.2,1.8-3.4,2.9c0,0-0.2,0.1-0.2,0.2c-1.1,1.1-2.1,2.1-3.2,3.4c-0.2,0.2-0.3,0.4-0.5,0.6
			l-0.3,0.3c-0.8,0.9-1.5,1.9-2.3,2.9l-0.3,0.4c-0.2,0.3-0.4,0.6-0.6,0.9c-1.1,1.6-2,3-2.8,4.4c-0.7,1.2-2.1,3.8-4.6,8.9l-18.2,39
			c-0.3,0.7-0.9,1.1-1.7,1.3C130.4,118.4,130.3,118.4,130.2,118.4z M92.8,74.2l36.8,38.1l16.8-36.1c2.1-4.2,3.7-7.4,4.8-9.3
			c0.9-1.5,1.9-3,3-4.7c0.2-0.3,0.5-0.6,0.7-1l0.3-0.4c0.8-1.1,1.6-2.2,2.4-3.2l0.2-0.3c0.2-0.2,0.4-0.5,0.6-0.7
			c1.2-1.4,2.3-2.5,3.4-3.6c0,0,0.2-0.2,0.2-0.2c1.4-1.3,2.6-2.4,3.8-3.3c0.2-0.1,0.4-0.3,0.6-0.4l0.3-0.2c0.9-0.6,2-1.4,3.2-2.1
			c0.3-0.2,0.7-0.4,1-0.5l0.5-0.2c0.9-0.5,1.8-1,2.8-1.4c0.6-0.3,1.2-0.5,1.8-0.7l0.7-0.2c0.8-0.3,1.6-0.6,2.4-0.8
			c0.3-0.1,0.6-0.2,1-0.3c1.6-0.4,3-0.7,4.4-0.9c3.3-0.5,6.9-0.5,10.8-0.2L159.9,5.2c-5.5-0.9-10.6-1-15-0.4c0,0,0,0,0,0
			c-1.2,0.2-2.4,0.4-3.9,0.8c-0.3,0.1-0.6,0.1-0.8,0.2L139.3,6c-0.3,0.1-0.6,0.2-0.9,0.3c-0.2,0.1-0.5,0.2-0.7,0.3l-0.4,0.1
			c-0.5,0.2-1,0.4-1.5,0.6c-0.1,0.1-0.3,0.1-0.4,0.2c-0.5,0.2-1,0.5-1.4,0.7l-1.2,0.6c-0.2,0.1-0.5,0.2-0.7,0.4c0,0-0.2,0.1-0.3,0.2
			c-0.9,0.5-1.7,1.1-2.6,1.7c-0.2,0.1-0.3,0.2-0.5,0.3c-0.1,0.1-0.2,0.1-0.3,0.2c-0.1,0-0.2,0.1-0.2,0.1c-0.9,0.7-2,1.7-3.2,2.8
			c0,0-0.2,0.1-0.2,0.2c0,0-0.3,0.2-0.3,0.2c-0.9,0.9-1.9,1.9-2.9,3.2c-0.2,0.2-0.4,0.4-0.6,0.7l-0.7,0.8c-0.2,0.3-0.5,0.6-0.7,0.9
			c-0.2,0.3-0.5,0.6-0.7,1l-0.7,1c-0.2,0.3-0.4,0.6-0.6,0.8c-1.1,1.6-2,3-2.8,4.4c-0.7,1.2-2.1,3.8-4.6,8.9L92.8,74.2z"/>
	</g>
	<g>
		<path fill="#00A796" d="M84.2,176.2c-0.5-0.8-1.1-1.6-1.7-2.3c-0.6-0.8-1.3-1.5-2-2.3l-40.1-41.6c1.4,1.5,2.7,3,3.7,4.6
			c3.9,6.1,3.5,13.2-1.2,21.2l-2.2,3.3L15.1,195c-2.6,3.7-4.3,6.4-5.4,8.1C1.4,217.4,0,229.7,5.5,240c1.2,2.2,2.7,4.3,4.5,6.5
			c0.6,0.7,1.3,1.4,1.9,2.1l40.1,41.6c-2.7-2.8-4.9-5.7-6.4-8.6c-5.5-10.3-4.1-22.6,4.2-36.9c1-1.7,2.8-4.4,5.4-8.1l25.6-35.9
			l2.2-3.3C87.7,189.4,88.1,182.4,84.2,176.2z"/>
		<path fill="#202933" d="M52.1,292.4c-0.6,0-1.2-0.2-1.6-0.7l0,0c0,0,0,0,0,0l-40.1-41.5c-0.7-0.7-1.4-1.5-2-2.2
			c-1.9-2.3-3.5-4.6-4.8-6.9c-5.9-11-4.5-24.2,4.3-39.1c1.1-1.9,3-4.7,5.5-8.3l27.8-39.1c4.2-7.2,4.6-13.3,1.1-18.8
			c-0.9-1.4-2-2.9-3.4-4.2c-0.9-0.9-0.8-2.3,0.1-3.1c0.9-0.9,2.3-0.8,3.1,0.1l0,0c0,0,0,0,0,0l40.1,41.5c0.8,0.8,1.5,1.6,2.1,2.4
			c0.7,0.8,1.3,1.7,1.8,2.5c4.4,6.9,4,14.8-1.1,23.5l-2.3,3.4L57,237.9c-3,4.3-4.5,6.7-5.3,8c-8,13.7-9.4,25-4.2,34.7
			c1.4,2.7,3.5,5.4,6.1,8.1c0.9,0.9,0.8,2.3-0.1,3.1C53.2,292.2,52.6,292.4,52.1,292.4z M48.9,142.1c0.4,4.6-1,9.6-4.1,14.9
			l-2.3,3.4l-25.6,35.9c-2.4,3.4-4.2,6.2-5.3,8c-8,13.7-9.4,25-4.2,34.7c1.1,2,2.5,4.1,4.2,6.1c0.6,0.7,1.2,1.4,1.9,2l27.3,28.3
			c-2.2-9.4,0.1-20.1,7-31.9c1.1-1.9,3-4.7,5.5-8.3l27.8-39.1c4.2-7.2,4.6-13.3,1.1-18.8c-0.4-0.7-1-1.4-1.5-2.1
			c-0.6-0.7-1.2-1.4-1.9-2.1L48.9,142.1z"/>
	</g>
	<g>
		<g>
			<path fill="#DA1C5C" d="M201.1,44.7c9.6,1.6,20.7,5.3,33.3,11.2l-16.8,28.7c-5-2.3-9.5-3.8-13.4-4.5c-2.3-0.4-4.5-0.5-6.4-0.3
				c-5.2,0.6-9.2,4.2-12.3,10.7l-19,40.3c-0.8,1.6-1.9,3.8-3.6,6.6c-6.7,11.5-15,18.6-25,21.4c-7.4,2.1-15.7,2.3-25,0.8
				c-3.1-0.5-6.4-1.3-9.7-2.2c11.5,8,18.8,16.3,21.8,24.7c3,8.5,1.2,18.5-5.5,30c-0.7,1.2-2.2,3.5-4.6,6.8l-26.2,36.9
				c-4.2,5.8-5.1,10.8-2.6,15c2.4,4.2,7.6,8.2,15.5,11.9l-16.8,28.7c-20.6-9.6-33.7-19.6-39.2-29.9c-5.5-10.3-4.1-22.6,4.2-36.9
				c1-1.7,2.8-4.4,5.4-8.1l25.6-35.9l2.2-3.3c4.7-8,5.1-15.1,1.2-21.2c-3.9-6.1-11.2-11.7-21.8-16.6l19.5-33.4
				c6.5,3,12.5,5,17.9,5.9c13,2.2,22.6-2,28.7-12.4l1.7-3.5l18.2-39c2.1-4.3,3.7-7.4,4.7-9.1c8.3-14.3,18.8-22.2,31.5-24
				C189.5,43.5,195,43.7,201.1,44.7z"/>
			<path fill="#202933" d="M236.5,55.2c-0.2-0.6-0.6-1.1-1.2-1.3c-12.7-5.9-24.1-9.7-33.8-11.4c-6.2-1-12-1.2-17.1-0.5
				c-13.4,1.8-24.5,10.2-33.2,25c-1.1,1.8-2.7,5-4.8,9.3l-18.2,38.9l-1.6,3.4c-5.7,9.7-14.3,13.4-26.4,11.4
				c-5.1-0.9-11-2.8-17.3-5.7c-1-0.5-2.3-0.1-2.9,0.9l-19.5,33.4c-0.3,0.5-0.4,1.2-0.2,1.8c0.2,0.6,0.6,1.1,1.2,1.4
				c10.2,4.8,17.2,10.1,20.8,15.8c3.4,5.4,3,11.6-1.2,18.8l-27.8,39.1c-2.5,3.5-4.4,6.4-5.5,8.3c-8.7,14.9-10.1,28-4.3,39.1
				c5.8,10.9,19,21,40.2,30.9c0.3,0.1,0.6,0.2,0.9,0.2c0.8,0,1.5-0.4,1.9-1.1l16.8-28.7c0.3-0.5,0.4-1.2,0.2-1.8
				c-0.2-0.6-0.6-1.1-1.2-1.4c-7.4-3.5-12.3-7.1-14.5-11c-2-3.4-1.2-7.6,2.5-12.6l26.2-36.9c2.3-3.2,3.9-5.6,4.7-7
				c7-12,8.9-22.7,5.7-31.8c-2.4-6.7-7.3-13.3-14.6-19.6h0.1c9.5,1.6,18.2,1.3,25.9-0.9c10.5-2.9,19.3-10.5,26.3-22.4
				c1.6-2.8,2.9-5,3.7-6.8l19-40.3c2.7-5.9,6.1-8.9,10.5-9.4c1.7-0.2,3.7-0.1,5.8,0.2c3,0.5,6.4,1.5,10.1,3.1h5.8L236.3,57
				C236.6,56.4,236.6,55.8,236.5,55.2z M204.5,77.9c-2.5-0.4-4.9-0.5-7-0.3c-6,0.7-10.7,4.7-14,12l-19,40.3
				c-0.8,1.6-1.9,3.8-3.5,6.4c-6.4,10.9-14.3,17.8-23.6,20.4c-7.1,2-15.1,2.2-24,0.7c-3-0.5-6.2-1.2-9.5-2.1c-1-0.3-2.1,0.2-2.6,1.2
				c-0.5,1-0.2,2.2,0.7,2.8c11,7.7,18.1,15.7,21,23.7c2.8,7.8,1,17.2-5.3,28.1c-0.7,1.2-2.3,3.6-4.5,6.7L87,254.6
				c-4.7,6.5-5.7,12.4-2.8,17.5c2.5,4.3,7.1,8.1,14.3,11.7l-14.5,24.9c-19-9.1-31.2-18.5-36.4-28.1c-5.2-9.7-3.8-21,4.2-34.7
				c0.7-1.2,2.2-3.6,5.3-8L82.6,202l2.3-3.4c5.1-8.7,5.5-16.6,1.1-23.5c-3.8-6-10.7-11.5-20.5-16.4l17.3-29.6
				c6,2.6,11.5,4.4,16.6,5.3c2.3,0.4,4.6,0.6,6.8,0.6c10.6,0,18.7-4.7,24.3-14.3l19.9-42.5c2.5-5.2,3.9-7.7,4.6-8.9
				c7.9-13.6,18-21.3,29.9-22.9c4.6-0.6,9.9-0.5,15.7,0.5c8.8,1.5,19,4.8,30.5,10l-14.5,24.8C212.2,79.8,208.1,78.5,204.5,77.9z"/>
		</g>
	</g>
	<g>
		<g>
			<polygon fill="#00A796" points="62.4,159.6 22.3,118.1 41.8,84.7 81.9,126.2 			"/>
			<path fill="#202933" d="M62.4,161.8c-0.6,0-1.2-0.2-1.6-0.7l-40.1-41.6c-0.7-0.7-0.8-1.8-0.3-2.7l19.5-33.4c0.4-0.6,1-1,1.7-1.1
				c0.7-0.1,1.4,0.2,1.9,0.7l40.1,41.6c0.7,0.7,0.8,1.8,0.3,2.7l-19.5,33.4c-0.4,0.6-1,1-1.7,1.1C62.6,161.8,62.5,161.8,62.4,161.8z
				 M25.1,117.7L62,156l17.2-29.4L42.3,88.4L25.1,117.7z"/>
		</g>
	</g>
</g>
</svg>
