<?xml version="1.0" encoding="utf-8"?>
<!-- Generator: Adobe Illustrator 17.0.0, SVG Export Plug-In . SVG Version: 6.00 Build 0)  -->
<!DOCTYPE svg PUBLIC "-//W3C//DTD SVG 1.1//EN" "http://www.w3.org/Graphics/SVG/1.1/DTD/svg11.dtd">
<svg version="1.1" id="Layer_1" xmlns="http://www.w3.org/2000/svg" xmlns:xlink="http://www.w3.org/1999/xlink" x="0px" y="0px"
	 width="374.5px" height="384.2px" viewBox="0 0 374.5 384.2" enable-background="new 0 0 374.5 384.2" xml:space="preserve">
<g>
	<g>
		<path fill="#00A796" d="M204.5,331.6c0.7,0.2,1.5,0.5,2.3,0.7c1.2,0.4,2.3,0.7,3.6,1c0.8,0.2,1.7,0.5,2.5,0.7
			c0.8,0.2,1.6,0.4,2.4,0.7c0.3,0.1,0.7,0.2,1,0.3c1.3,0.3,2.7,0.7,4,1c1,0.2,2,0.5,3,0.7c1.4,0.3,2.9,0.6,4.4,1c1,0.2,2,0.4,3,0.6
			c1.7,0.3,3.4,0.7,5.2,1c0.9,0.2,1.7,0.3,2.6,0.5c2.6,0.5,5.3,1,8.1,1.4l-56.9-30.9c-2.8-0.5-5.5-0.9-8.1-1.4
			c-0.9-0.2-1.7-0.3-2.6-0.5c-1.7-0.3-3.5-0.7-5.2-1c-1-0.2-2-0.4-3-0.6c-1.5-0.3-3-0.6-4.4-1c-1-0.2-2-0.5-3-0.7
			c-1.4-0.3-2.7-0.7-4-1c-1.2-0.3-2.3-0.6-3.5-0.9c-0.9-0.2-1.7-0.5-2.6-0.7c-1.2-0.3-2.4-0.7-3.5-1c-0.8-0.2-1.5-0.5-2.3-0.7
			c-1.3-0.4-2.5-0.8-3.7-1.2c-0.6-0.2-1.2-0.4-1.8-0.6c-1.8-0.6-3.5-1.2-5.2-1.9c-2.5-1-4.9-2-7.2-3c-0.6-0.3-1.3-0.6-1.9-0.9
			c-2.3-1.1-4.5-2.2-6.6-3.3c0,0,0,0,0,0l0,0l0,0l56.9,30.9c1.5,0.8,3,1.6,4.6,2.4c0.7,0.3,1.4,0.6,2.1,1c0.6,0.3,1.3,0.6,1.9,0.9
			c2.4,1.1,4.7,2.1,7.2,3c1.7,0.6,3.4,1.3,5.2,1.9c0.6,0.2,1.2,0.4,1.8,0.6C202,330.8,203.2,331.2,204.5,331.6z"/>
		<path fill="#202933" d="M246.6,343.7c-0.1,0-0.3,0-0.4,0c-2.8-0.5-5.5-0.9-8.2-1.4l-2.6-0.5c-1.8-0.3-3.5-0.7-5.2-1l-3-0.6
			c-1.5-0.3-3-0.6-4.4-1c-0.8-0.2-1.5-0.4-2.2-0.5l-0.8-0.2c-1.4-0.3-2.7-0.7-4.1-1l-1-0.3c-0.5-0.1-1-0.3-1.5-0.4l-3.5-1
			c-1.2-0.3-2.4-0.7-3.6-1.1l-2.3-0.7c-1.3-0.4-2.5-0.8-3.7-1.2l-1.8-0.6c-1.8-0.6-3.6-1.3-5.3-1.9c-2.3-0.9-4.6-1.9-7.4-3.1
			c-0.6-0.3-1.3-0.6-1.9-0.9l-0.8-0.4c-0.4-0.2-0.9-0.4-1.3-0.6c-1.6-0.8-3.1-1.6-4.6-2.4L120,291.9l0,0c-1.2-0.7-1.7-2.2-1-3.4
			c0.7-1.2,2.2-1.7,3.4-1l0,0l0,0c1.8,1,3.8,2,6.5,3.2c0.7,0.3,1.3,0.6,1.9,0.9c2.7,1.2,4.9,2.2,7.1,3c1.6,0.6,3.4,1.3,5.1,1.9
			l1.8,0.6c1.2,0.4,2.4,0.8,3.6,1.2l2.3,0.7c1.2,0.3,2.3,0.7,3.5,1l2.5,0.7c1.1,0.3,2.3,0.6,3.4,0.9c1.3,0.3,2.6,0.7,4,1l0.8,0.2
			c0.7,0.2,1.4,0.3,2.1,0.5c1.3,0.3,2.7,0.6,4.1,0.9l3.2,0.7c1.7,0.3,3.4,0.7,5.1,1l2.6,0.5c2.6,0.5,5.3,0.9,8.1,1.4
			c0.3,0,0.5,0.1,0.8,0.3l56.9,30.9c1.1,0.6,1.6,1.8,1.2,3C248.6,343,247.6,343.7,246.6,343.7z M155.4,305.5l23.8,13
			c1.5,0.8,2.9,1.6,4.5,2.3c0.4,0.2,0.8,0.4,1.2,0.5l0.9,0.4c0.6,0.3,1.2,0.6,1.9,0.9c2.6,1.2,4.9,2.1,7.1,3
			c1.6,0.6,3.4,1.3,5.1,1.9l1.8,0.6c1.2,0.4,2.4,0.8,3.6,1.2l2.2,0.7c1.2,0.3,2.3,0.7,3.5,1l5.9,1.6c1.3,0.3,2.6,0.7,4,1l0.8,0.2
			c0.7,0.2,1.4,0.3,2.2,0.5c1.4,0.3,2.9,0.6,4.4,1l2.9,0.6c0.2,0,0.3,0.1,0.5,0.1l-42.8-23.3c-2.6-0.4-5.2-0.9-7.7-1.3l-2.6-0.5
			c-1.8-0.3-3.5-0.7-5.2-1l-3.3-0.7c-1.4-0.3-2.8-0.6-4.1-0.9c-0.7-0.2-1.5-0.3-2.2-0.5l-0.8-0.2c-1.4-0.3-2.7-0.7-4.1-1
			C157.7,306.1,156.5,305.8,155.4,305.5z"/>
	</g>
	<g>
		<defs>
			<path id="SVGID_1_" d="M196.5,64.3l56.9,30.9c0.9,0.5,1.8,1,2.6,1.5c17.8,10.3,33.2,25.8,46.3,46.8c9,14.4,15.6,28.5,19.6,42.3
				c4.1,13.8,6,29,6,45.8c-0.1,16.8-2.1,37.1-6.2,61.1l-56.9-30.9c4-24,6.1-44.3,6.2-61.1c0.1-16.7-1.9-32-6-45.8
				c-4.1-13.8-10.6-27.9-19.6-42.3c-13.1-20.9-28.5-36.5-46.3-46.8C198.3,65.2,197.4,64.7,196.5,64.3z"/>
		</defs>
		<defs>
			<path id="SVGID_2_" d="M321.8,295.1c-0.4,0-0.8-0.1-1.2-0.3l-56.9-30.9c-0.9-0.5-1.4-1.6-1.3-2.6c4-23.7,6.1-44.1,6.2-60.7
				c0.1-16.4-1.9-31.6-5.9-45.1c-4-13.5-10.5-27.5-19.3-41.7c-12.8-20.4-28.1-35.9-45.5-45.9c-0.8-0.5-1.7-1-2.6-1.4
				c-1.2-0.7-1.7-2.2-1-3.4c0.7-1.2,2.2-1.7,3.4-1l0,0c0,0,0,0,0.1,0L254.6,93c0.9,0.5,1.8,1,2.7,1.5c18.1,10.4,34,26.5,47.2,47.6
				c9.1,14.5,15.8,28.9,19.9,42.9c4.1,13.9,6.1,29.6,6.1,46.5c-0.1,16.8-2.2,37.5-6.2,61.5c-0.1,0.8-0.6,1.5-1.4,1.8
				C322.5,295,322.1,295.1,321.8,295.1z M267.6,260.3l52.2,28.4c3.6-22.2,5.5-41.5,5.6-57.3c0.1-16.4-1.9-31.6-5.9-45.1
				c-4-13.5-10.5-27.5-19.3-41.7c-12.8-20.4-28.1-35.9-45.5-45.9c-0.8-0.5-1.7-1-2.6-1.4l-27.1-14.7c8.2,8.1,15.7,17.6,22.5,28.5
				c9.1,14.5,15.8,28.9,19.9,42.9c4.1,13.9,6.1,29.6,6.1,46.5C273.5,217,271.5,237.1,267.6,260.3z"/>
		</defs>
		<use xlink:href="#SVGID_1_"  overflow="visible" fill="#FDB933"/>
		<use xlink:href="#SVGID_2_"  overflow="visible" fill="#202933"/>
		<clipPath id="SVGID_3_">
			<use xlink:href="#SVGID_1_"  overflow="visible"/>
		</clipPath>
		<clipPath id="SVGID_4_" clip-path="url(#SVGID_3_)">
			<use xlink:href="#SVGID_2_"  overflow="visible"/>
		</clipPath>
		<g clip-path="url(#SVGID_4_)" enable-background="new    ">
			<g>
				<path fill="#FDB933" d="M321.8,292.6l-56.9-30.9c4-24,6.1-44.3,6.2-61.1c0.1-16.7-1.9-32-6-45.8c-4.1-13.8-10.6-27.9-19.6-42.3
					c-13.1-20.9-28.5-36.5-46.3-46.8c-0.9-0.5-1.7-1-2.6-1.5l56.9,30.9c0.9,0.5,1.8,1,2.6,1.5c17.8,10.3,33.2,25.8,46.3,46.8
					c9,14.4,15.6,28.5,19.6,42.3c4.1,13.8,6,29,6,45.8C327.9,248.3,325.8,268.6,321.8,292.6"/>
				<path fill="#202933" d="M321.8,295.1c-0.4,0-0.8-0.1-1.2-0.3l-56.9-30.9c-0.9-0.5-1.4-1.6-1.3-2.6c4-23.7,6.1-44.1,6.2-60.7
					c0.1-16.4-1.9-31.6-5.9-45.1c-4-13.5-10.5-27.5-19.3-41.7c-12.8-20.4-28.1-35.9-45.5-45.9c-0.8-0.5-1.7-1-2.6-1.4
					c-1.2-0.7-1.7-2.2-1-3.4c0.7-1.2,2.2-1.7,3.4-1l0,0c0,0,0,0,0.1,0L254.6,93c0.9,0.5,1.8,1,2.7,1.5c18.1,10.4,34,26.5,47.2,47.6
					c9.1,14.5,15.8,28.9,19.9,42.9c4.1,13.9,6.1,29.6,6.1,46.5c-0.1,16.8-2.2,37.5-6.2,61.5c-0.1,0.8-0.6,1.5-1.4,1.8
					C322.5,295,322.1,295.1,321.8,295.1z M267.6,260.3l52.2,28.4c3.6-22.2,5.5-41.5,5.6-57.3c0.1-16.4-1.9-31.6-5.9-45.1
					c-4-13.5-10.5-27.5-19.3-41.7c-12.8-20.4-28.1-35.9-45.5-45.9c-0.8-0.5-1.7-1-2.6-1.4l-27.1-14.7c8.2,8.1,15.7,17.6,22.5,28.5
					c9.1,14.5,15.8,28.9,19.9,42.9c4.1,13.9,6.1,29.6,6.1,46.5C273.5,217,271.5,237.1,267.6,260.3z"/>
			</g>
		</g>
	</g>
	<g>
		<polygon fill="#00A796" points="15.7,89.4 72.6,120.4 109.6,122.5 52.7,91.6 		"/>
		<path fill="#202933" d="M109.6,125c0,0-0.1,0-0.1,0l-37-2.2c-0.4,0-0.7-0.1-1-0.3L14.5,91.6c-1-0.6-1.5-1.8-1.2-2.9
			c0.3-1.1,1.4-1.8,2.5-1.8l37,2.2c0.4,0,0.7,0.1,1,0.3l56.9,30.9c1,0.6,1.5,1.8,1.2,2.9C111.7,124.3,110.7,125,109.6,125z
			 M73.3,117.9l25.3,1.5L52,94.1l-25.3-1.5L73.3,117.9z"/>
	</g>
	<g>
		<path fill="#00A796" d="M288.4,55.3l-56.9-30.9c-1.6-0.8-3.1-1.7-4.7-2.4c-0.5-0.2-1-0.5-1.5-0.7c-2.8-1.3-5.7-2.6-8.6-3.8
			c-0.9-0.4-1.8-0.7-2.8-1.1c-2.1-0.8-4.1-1.6-6.3-2.3c-1.1-0.4-2.1-0.7-3.2-1.1c-2.1-0.7-4.3-1.3-6.5-2c-1-0.3-2-0.6-3-0.9
			c-0.4-0.1-0.8-0.2-1.2-0.3c-2.6-0.7-5.2-1.3-7.8-1.8c-0.6-0.1-1.2-0.2-1.8-0.4c-3.3-0.7-6.6-1.3-9.9-1.9c0,0-0.1,0-0.1,0
			c-3.4-0.5-6.9-1-10.4-1.4c-0.7-0.1-1.3-0.2-2-0.2c-3.4-0.4-6.9-0.7-10.4-0.9c-0.7,0-1.4-0.1-2-0.1c-3.7-0.2-7.4-0.4-11.2-0.5
			l56.9,30.9c3.8,0.1,7.5,0.3,11.2,0.5c0.7,0,1.4,0.1,2,0.1c3.5,0.2,7,0.6,10.4,0.9c0.7,0.1,1.3,0.2,2,0.2c3.5,0.4,7,0.9,10.4,1.4
			c0,0,0.1,0,0.1,0c3.4,0.5,6.7,1.2,9.9,1.9c0.6,0.1,1.2,0.2,1.8,0.4c3.1,0.7,6.1,1.4,9,2.2c1,0.3,2,0.6,3,0.9
			c2.2,0.6,4.4,1.3,6.5,2c1.1,0.3,2.2,0.7,3.2,1.1c2.1,0.7,4.2,1.5,6.3,2.3c0.9,0.4,1.9,0.7,2.8,1.1c2.9,1.2,5.8,2.4,8.6,3.8
			C284.3,53.1,286.3,54.2,288.4,55.3L288.4,55.3C288.4,55.3,288.4,55.3,288.4,55.3z"/>
		<path fill="#202933" d="M288.4,57.8c-0.4,0-0.8-0.1-1.2-0.3l0,0c-2-1.1-4-2.1-6-3.1c-2.5-1.2-5.3-2.4-8.4-3.7
			c-0.6-0.2-1.2-0.5-1.8-0.7l-1-0.4c-2-0.8-4.1-1.5-6.2-2.3c-1-0.4-2.1-0.7-3.2-1.1c-2.1-0.7-4.3-1.3-6.4-1.9l-1-0.3
			c-0.7-0.2-1.3-0.4-2-0.6c-3-0.8-6-1.5-8.9-2.2l-1.8-0.4c-3.6-0.8-6.8-1.4-9.8-1.8c-3.1-0.5-6.5-1-10.4-1.4l-1.9-0.2
			c-3.4-0.4-6.8-0.7-10.3-0.9l-2-0.1c-4.2-0.3-7.7-0.4-11.1-0.5c-0.4,0-0.8-0.1-1.1-0.3L137,4.7c-1-0.6-1.5-1.7-1.2-2.8
			c0.3-1.1,1.4-1.9,2.5-1.8c3.4,0.1,7.1,0.3,11.3,0.5l2,0.1c3.5,0.2,7.1,0.6,10.5,0.9l2,0.2c4,0.5,7.4,0.9,10.5,1.4
			c3.2,0.5,6.5,1.1,10.1,1.9l1.8,0.4c2.7,0.6,5.3,1.2,7.9,1.9c0.2,0.1,0.5,0.1,0.7,0.2l0.5,0.1c0.7,0.2,1.4,0.4,2.1,0.6l1,0.3
			c2.2,0.6,4.4,1.3,6.6,2c1.1,0.4,2.2,0.7,3.3,1.1c2.2,0.7,4.3,1.5,6.4,2.3l0.9,0.4c0.6,0.2,1.2,0.5,1.9,0.7
			c3.3,1.3,6.1,2.6,8.7,3.8c0.5,0.2,1,0.5,1.5,0.7c1.6,0.8,3.2,1.6,4.8,2.5l56.6,30.8c0.9,0.4,1.6,1.3,1.6,2.3
			C290.9,56.7,289.8,57.8,288.4,57.8C288.4,57.8,288.4,57.8,288.4,57.8z M195.7,31c3.3,0.1,6.7,0.2,10.7,0.5l2.1,0.1
			c3.5,0.2,7.1,0.6,10.5,0.9l2,0.2c4,0.5,7.4,0.9,10.5,1.4c3.2,0.5,6.5,1.1,10.1,1.9l1.8,0.4c3,0.6,6.1,1.4,9.1,2.2
			c0.1,0,0.2,0.1,0.3,0.1l-22.5-12.2c-1.5-0.8-3.1-1.6-4.6-2.4l-1.4-0.7c-2.5-1.2-5.3-2.4-8.4-3.7c-0.6-0.2-1.2-0.5-1.8-0.7l-1-0.4
			c-2-0.8-4.1-1.6-6.2-2.3c-1-0.4-2.1-0.7-3.2-1.1c-2.1-0.7-4.3-1.3-6.4-1.9l-1-0.3c-0.6-0.2-1.3-0.4-2-0.6l-1.2-0.3
			c-2.5-0.7-5.1-1.3-7.7-1.8l-1.8-0.4c-3.6-0.8-6.8-1.4-9.8-1.8c-3.1-0.5-6.4-1-10.4-1.4l-1.9-0.2c-3.4-0.4-6.8-0.7-10.3-0.9l-2-0.1
			c-0.1,0-0.2,0-0.3,0L195.7,31z"/>
	</g>
	<g>
		<g>
			<path fill="#DA1C5C" d="M72.6,120.4l37,2.2c-5.6,33.5-7.1,61.6-4.4,84.1c2.7,22.5,10.6,44.2,23.8,65.1c9,14.4,18.6,26,28.7,34.9
				c10.1,8.8,22.1,16,36.1,21.3c13.9,5.4,31.5,9.8,52.8,13.2l-10.3,40.5c-33.7-0.9-62.7-7.1-87.1-18.7c-24.4-11.6-45-30.8-61.7-57.6
				c-16.8-26.7-26-55.1-27.7-85.2C58,190.2,62.3,156.9,72.6,120.4z"/>
			<path fill="#202933" d="M236.3,384.2C236.3,384.2,236.2,384.2,236.3,384.2c-34-0.9-63.7-7.2-88.2-18.9
				c-24.7-11.8-45.8-31.5-62.8-58.5c-16.9-27-26.4-56-28.1-86.4c-1.7-30.2,2.6-64.1,12.9-100.7c0.3-1.1,1.4-1.9,2.5-1.8l37,2.2
				c0.7,0,1.4,0.4,1.8,0.9c0.4,0.6,0.6,1.3,0.5,2c-5.6,33.1-7,61.2-4.3,83.4c2.7,22,10.6,43.6,23.4,64.1
				c8.9,14.2,18.4,25.7,28.2,34.3c9.9,8.6,21.8,15.6,35.3,20.9c13.7,5.3,31.3,9.7,52.3,13.1c0.7,0.1,1.3,0.5,1.7,1.1
				c0.4,0.6,0.5,1.3,0.3,2l-10.3,40.5C238.4,383.4,237.4,384.2,236.3,384.2z M74.4,123c-9.8,35.4-13.9,68-12.2,97.1
				c1.7,29.5,10.9,57.7,27.3,84c16.4,26.2,36.8,45.3,60.7,56.6c23.4,11.2,51.7,17.4,84.1,18.4l9.1-36c-20.1-3.4-37.1-7.7-50.6-12.9
				c-14.1-5.4-26.5-12.8-36.8-21.8c-10.2-9-20.1-20.9-29.2-35.5c-13.2-21.1-21.4-43.4-24.1-66.1c-2.7-22-1.3-49.6,3.9-82L74.4,123z"
				/>
		</g>
	</g>
	<g>
		<g>
			<path fill="#DA1C5C" d="M195.1,33.4c33.7,0.8,62.7,7.1,87.1,18.7c24.4,11.6,45,30.8,61.7,57.6c16.8,26.7,26,55.1,27.7,85.2
				c1.7,30-2.6,63.3-12.8,99.9l-37-2.2c4-24,6.1-44.3,6.2-61.1c0.1-16.7-1.9-32-6-45.8c-4.1-13.8-10.6-27.9-19.6-42.3
				c-13.1-20.9-28.5-36.5-46.3-46.8c-17.8-10.2-41.5-17.8-71.2-22.7L195.1,33.4z"/>
			<path fill="#202933" d="M358.8,297.3c0,0-0.1,0-0.1,0l-37-2.2c-0.7,0-1.4-0.4-1.8-0.9c-0.4-0.6-0.6-1.3-0.5-2
				c4-23.7,6.1-44.1,6.2-60.7c0.1-16.4-1.9-31.6-5.9-45.1c-4-13.5-10.5-27.5-19.3-41.7c-12.8-20.4-28.1-35.9-45.5-45.9
				c-17.4-10-41.1-17.6-70.4-22.4c-0.7-0.1-1.3-0.5-1.7-1.1c-0.4-0.6-0.5-1.3-0.3-2l10.3-40.5c0.3-1.1,1.3-2,2.5-1.9
				c33.9,0.8,63.5,7.2,88.1,18.9c24.7,11.8,45.8,31.5,62.8,58.5c16.9,27,26.4,56,28.1,86.4c1.7,30.1-2.6,64-12.9,100.7
				C360.9,296.5,359.9,297.3,358.8,297.3z M324.7,290.3l32.2,1.9c9.8-35.4,13.9-68.1,12.2-97.1c-1.7-29.5-10.9-57.7-27.3-84
				c-16.4-26.2-36.8-45.3-60.7-56.6C257.6,43.2,229.3,37,197,36l-9.1,36c28.6,4.9,52,12.5,69.4,22.5c18.1,10.4,34,26.5,47.2,47.6
				c9.1,14.5,15.8,28.9,19.9,42.9c4.1,13.9,6.1,29.6,6.1,46.5C330.4,247.7,328.4,267.5,324.7,290.3z"/>
		</g>
	</g>
	<g>
		<defs>
			<path id="SVGID_5_" d="M143,359.9l-56.9-30.9c-21.7-11.8-40.2-30-55.6-54.4c-16.8-26.7-26-55.1-27.7-85.2
				c-1.7-30,2.6-63.3,12.8-99.9l56.9,30.9c-10.3,36.5-14.6,69.8-12.8,99.9c1.7,30,10.9,58.4,27.7,85.2
				C102.8,329.9,121.3,348.1,143,359.9z"/>
		</defs>
		<defs>
			<path id="SVGID_6_" d="M143,362.4c-0.4,0-0.8-0.1-1.2-0.3l-56.9-30.9c-22-12-41-30.6-56.5-55.3c-16.9-27-26.4-56.1-28.1-86.4
				C-1.4,159.3,3,125.4,13.3,88.8c0.2-0.7,0.7-1.3,1.4-1.6c0.7-0.3,1.5-0.3,2.2,0.1l56.9,30.9c1,0.6,1.5,1.7,1.2,2.9
				c-10.2,36.1-14.4,69.4-12.7,99.1c1.7,29.5,10.9,57.7,27.3,84c15,23.9,33.3,41.9,54.4,53.4c0.9,0.4,1.6,1.3,1.6,2.3
				C145.6,361.3,144.4,362.4,143,362.4C143,362.4,143,362.4,143,362.4z M17.3,93.1c-9.6,34.9-13.6,67.2-11.9,96
				c1.7,29.5,10.9,57.7,27.3,84c15,24,33.4,42,54.6,53.6l25,13.6c-9.9-9.5-18.9-20.7-27-33.5c-16.9-27-26.4-56-28.1-86.4
				c-1.7-29.7,2.5-62.9,12.4-98.8L17.3,93.1z"/>
		</defs>
		<use xlink:href="#SVGID_5_"  overflow="visible" fill="#FDB933"/>
		<use xlink:href="#SVGID_6_"  overflow="visible" fill="#202933"/>
		<clipPath id="SVGID_7_">
			<use xlink:href="#SVGID_5_"  overflow="visible"/>
		</clipPath>
		<clipPath id="SVGID_8_" clip-path="url(#SVGID_7_)">
			<use xlink:href="#SVGID_6_"  overflow="visible"/>
		</clipPath>
		<g clip-path="url(#SVGID_8_)" enable-background="new    ">
			<g>
				<path fill="#FDB933" d="M143,359.9l-56.9-30.9c-21.7-11.8-40.2-30-55.6-54.4c-16.8-26.7-26-55.1-27.7-85.2
					c-1.7-30,2.6-63.3,12.8-99.9l56.9,30.9c-10.3,36.5-14.6,69.8-12.8,99.9c1.7,30,10.9,58.4,27.7,85.2
					C102.8,329.9,121.3,348.1,143,359.9"/>
				<path fill="#202933" d="M143,362.4c-0.4,0-0.8-0.1-1.2-0.3l-56.9-30.9c-22-12-41-30.6-56.5-55.3c-16.9-27-26.4-56.1-28.1-86.4
					C-1.4,159.3,3,125.4,13.3,88.8c0.2-0.7,0.7-1.3,1.4-1.6c0.7-0.3,1.5-0.3,2.2,0.1l56.9,30.9c1,0.6,1.5,1.7,1.2,2.9
					c-10.2,36.1-14.4,69.4-12.7,99.1c1.7,29.5,10.9,57.7,27.3,84c15,23.9,33.3,41.9,54.4,53.4c0.9,0.4,1.6,1.3,1.6,2.3
					C145.6,361.3,144.4,362.4,143,362.4C143,362.4,143,362.4,143,362.4z M17.3,93.1c-9.6,34.9-13.6,67.2-11.9,96
					c1.7,29.5,10.9,57.7,27.3,84c15,24,33.4,42,54.6,53.6l25,13.6c-9.9-9.5-18.9-20.7-27-33.5c-16.9-27-26.4-56-28.1-86.4
					c-1.7-29.7,2.5-62.9,12.4-98.8L17.3,93.1z"/>
			</g>
		</g>
	</g>
	<g>
		<g>
			<polygon fill="#FDB933" points="184.8,74 127.9,43 138.2,2.5 195.1,33.4 			"/>
			<path fill="#202933" d="M184.8,76.5c-0.4,0-0.8-0.1-1.2-0.3l-56.9-30.9c-1-0.5-1.5-1.7-1.2-2.8l10.3-40.5
				c0.2-0.7,0.7-1.4,1.4-1.7c0.7-0.3,1.5-0.3,2.2,0.1l56.9,30.9c1,0.5,1.5,1.7,1.2,2.8l-10.3,40.5c-0.2,0.7-0.7,1.4-1.4,1.7
				C185.5,76.4,185.1,76.5,184.8,76.5z M130.8,41.8l52.4,28.5l9-35.6L139.8,6.2L130.8,41.8z"/>
		</g>
	</g>
</g>
</svg>
