<?xml version="1.0" encoding="utf-8"?>
<!-- Generator: Adobe Illustrator 17.0.0, SVG Export Plug-In . SVG Version: 6.00 Build 0)  -->
<!DOCTYPE svg PUBLIC "-//W3C//DTD SVG 1.1//EN" "http://www.w3.org/Graphics/SVG/1.1/DTD/svg11.dtd">
<svg version="1.1" id="Layer_1" xmlns="http://www.w3.org/2000/svg" xmlns:xlink="http://www.w3.org/1999/xlink" x="0px" y="0px"
	 width="305.2px" height="374.8px" viewBox="0 0 305.2 374.8" enable-background="new 0 0 305.2 374.8" xml:space="preserve">
<g>
	<g>
		<path fill="#FDB933" d="M180,323.3c0.7-0.5,1.4-0.9,2-1.4l-29.5-47.6c-1.4,1-2.8,1.9-4.3,2.8c-0.5,0.3-1,0.6-1.5,0.9
			c-1.7,0.9-3.5,1.8-5.3,2.6c-0.2,0.1-0.4,0.1-0.6,0.2c-1.7,0.7-3.5,1.3-5.4,1.9c-1,0.3-2.1,0.6-3.2,0.9c-1.4,0.4-2.7,0.7-4.2,1
			c-2.2,0.4-4.4,0.8-6.6,1c-0.1,0-0.3,0-0.4,0.1c-1.6,0.2-3.2,0.3-4.7,0.3c-0.4,0-0.8,0-1.2,0c-1.3,0-2.7,0-4,0c-0.3,0-0.7,0-1,0
			c-1.8-0.1-3.6-0.2-5.4-0.4c-0.4,0-0.8-0.1-1.2-0.1c-1.9-0.2-3.7-0.5-5.6-0.8c-2-0.3-3.8-0.8-5.6-1.2c-0.5-0.1-0.9-0.2-1.4-0.3
			c-1.7-0.4-3.4-0.9-5-1.5c-0.1,0-0.2-0.1-0.2-0.1c-1.7-0.6-3.2-1.2-4.7-1.9c-0.4-0.2-0.8-0.3-1.1-0.5c-1.4-0.6-2.7-1.3-4-2.1
			c-0.1-0.1-0.2-0.1-0.4-0.2c-1.4-0.8-2.6-1.7-3.8-2.5c-0.3-0.2-0.6-0.5-0.9-0.7c-1.2-0.9-2.3-1.8-3.3-2.8c0,0-0.1-0.1-0.1-0.1
			c-1-0.9-1.9-1.9-2.7-3c-0.5-0.6-1.1-1.3-1.6-2c-0.7-0.9-1.3-1.8-1.9-2.7c0,0,0,0,0,0l0,0c0,0,0,0,0,0l29.5,47.6
			c0.3,0.5,0.6,1,0.9,1.5c0.3,0.4,0.7,0.8,1,1.2c0.5,0.7,1,1.4,1.6,2c0.2,0.2,0.3,0.5,0.5,0.7c0.7,0.8,1.4,1.5,2.2,2.3
			c0,0,0.1,0.1,0.1,0.1c0.7,0.7,1.5,1.4,2.2,2c0.3,0.3,0.7,0.5,1.1,0.8c0.3,0.2,0.6,0.5,0.9,0.7c1.2,0.9,2.5,1.8,3.8,2.5
			c0.1,0.1,0.2,0.1,0.4,0.2c1.3,0.7,2.6,1.4,4,2c0.4,0.2,0.8,0.4,1.1,0.5c1.5,0.7,3.1,1.3,4.7,1.9c0.1,0,0.2,0.1,0.2,0.1
			c1.6,0.5,3.3,1,5,1.5c0.5,0.1,0.9,0.2,1.4,0.3c1.8,0.4,3.7,0.9,5.6,1.2c1.9,0.3,3.8,0.6,5.6,0.8c0.4,0,0.8,0.1,1.2,0.1
			c1.8,0.2,3.6,0.3,5.4,0.4c0.1,0,0.2,0,0.3,0c0.2,0,0.5,0,0.7,0c1.3,0,2.7,0,4,0c0.4,0,0.8,0,1.2,0c1.6-0.1,3.2-0.2,4.7-0.3
			c0,0,0.1,0,0.1,0c0.1,0,0.2,0,0.3,0c2.2-0.2,4.4-0.6,6.6-1c0.4-0.1,0.8-0.2,1.3-0.3c1-0.2,1.9-0.5,2.9-0.8
			c1.1-0.3,2.2-0.5,3.2-0.9c0.2-0.1,0.4-0.1,0.6-0.1c1.7-0.5,3.2-1.1,4.8-1.8c0.2-0.1,0.4-0.1,0.6-0.2c0,0,0,0,0.1,0
			c1.6-0.7,3.2-1.4,4.7-2.3c0.2-0.1,0.4-0.2,0.6-0.3c0.5-0.3,1-0.6,1.5-0.9C178.5,324.3,179.3,323.8,180,323.3z"/>
		<path fill="#202933" d="M139.6,336.1c0,0-0.2,0-0.3,0c-2-0.1-3.7-0.2-5.5-0.4l-1.2-0.1c-2.2-0.3-4-0.5-5.8-0.8
			c-1.8-0.3-3.7-0.7-5.8-1.2l-1.4-0.4c-2-0.5-3.6-1-5.1-1.5c0,0-0.3-0.1-0.3-0.1c-1.5-0.5-3.2-1.2-4.9-2c-0.4-0.2-0.8-0.4-1.2-0.5
			c-1.6-0.7-2.9-1.4-4.2-2.1l-0.4-0.2c-1.3-0.8-2.6-1.6-4-2.7c-0.3-0.2-0.6-0.4-0.9-0.7l-0.5-0.4c-0.3-0.2-0.5-0.4-0.8-0.6
			c-0.8-0.7-1.6-1.4-2.4-2.1c-0.9-0.9-1.7-1.7-2.4-2.5c-0.2-0.2-0.3-0.4-0.4-0.5c-0.7-0.9-1.3-1.6-1.8-2.3c-0.1-0.1-0.2-0.3-0.3-0.4
			c-0.2-0.3-0.5-0.6-0.7-0.9c-0.3-0.5-0.7-1-1-1.5l-29.5-47.6c-0.7-1.2-0.4-2.7,0.8-3.4c1.2-0.7,2.7-0.4,3.4,0.8l0,0.1
			c0.4,0.7,0.9,1.4,1.4,2l0.3,0.4c0.5,0.6,0.9,1.3,1.5,1.9c0.8,0.9,1.6,1.9,2.6,2.8c1,0.9,1.9,1.7,3.2,2.7c0.3,0.2,0.6,0.4,0.9,0.7
			c1.3,0.9,2.5,1.7,3.6,2.4L77,275c1.1,0.6,2.3,1.3,3.8,1.9c0.4,0.2,0.7,0.3,1.1,0.5c1.6,0.7,3.1,1.3,4.5,1.8l-0.6,2.4l0.8-2.4
			c1.4,0.5,3,0.9,4.8,1.4c0.4,0.1,0.9,0.2,1.3,0.3c2,0.5,3.8,0.9,5.5,1.2c1.7,0.3,3.4,0.5,5.5,0.8l1.1,0.1c1.7,0.2,3.4,0.3,5.1,0.4
			l1.1,0c1.3,0,2.6,0,3.9,0l1.2,0c1.5-0.1,3.1-0.2,4.6-0.3l0.4,0c2.2-0.2,4.4-0.6,6.4-1c1-0.2,2-0.5,3-0.7l2-0.5
			c0.7-0.2,1.5-0.4,2.2-0.6c1.8-0.5,3.5-1.2,5.1-1.8l0.4-0.1c1.8-0.7,3.5-1.6,5.2-2.6c0.3-0.2,0.6-0.3,0.9-0.5l0.6-0.3
			c1.6-0.9,2.9-1.8,4.1-2.6c0.6-0.4,1.3-0.6,2-0.4c0.7,0.1,1.3,0.5,1.6,1.1l29.5,47.6c0.7,1.1,0.4,2.5-0.6,3.3
			c-0.7,0.5-1.4,1-2.1,1.5c-0.5,0.4-1.1,0.7-1.7,1l-1.2,0.7c-0.4,0.2-0.7,0.4-1.1,0.6c-0.3,0.2-0.5,0.3-0.6,0.4
			c-1.6,0.8-3.2,1.6-4.9,2.4c-0.2,0.1-0.4,0.1-0.5,0.2c-2,0.8-3.6,1.4-5.1,1.9c-0.1,0-0.3,0.1-0.5,0.1c-0.9,0.3-1.7,0.5-2.6,0.7
			l-1.9,0.5c-0.7,0.2-1.3,0.4-2,0.5l-1.3,0.3c-2.2,0.4-4.5,0.8-6.9,1l-0.3,0c-1.8,0.2-3.4,0.3-5,0.3l-1,0c-1.6,0-3,0-4.4,0
			L139.6,336.1C139.6,336.1,139.6,336.1,139.6,336.1z M116.1,326.9c1.4,0.5,3,0.9,4.8,1.4l1.3,0.3c2,0.5,3.8,0.9,5.5,1.2
			c1.6,0.3,3.4,0.5,5.5,0.8l1.2,0.1c1.7,0.2,3.4,0.3,5,0.4l0.5,0l0.7,0c1.3,0,2.6,0,3.9,0c0,0,0.3,0,0.3,0l0.9,0
			c1.5-0.1,3.1-0.2,4.6-0.3c0,0,0.4-0.1,0.4-0.1c2.2-0.2,4.4-0.6,6.4-1l1.2-0.3c0.6-0.1,1.1-0.3,1.7-0.4c0.4-0.1,0.8-0.2,1.1-0.3
			l0.9-0.2c0.7-0.2,1.5-0.4,2.2-0.6c0.1,0,0.3-0.1,0.4-0.1c1.5-0.5,3-1,4.7-1.7l0.4-0.1c0.1,0,0.3-0.1,0.4-0.1
			c1.4-0.6,2.9-1.3,4.3-2.1c0.3-0.2,0.4-0.3,0.6-0.3c0.3-0.2,0.6-0.3,0.9-0.5l1.3-0.8c0.5-0.3,0.9-0.5,1.4-0.8c0,0,0,0,0,0
			l-26.9-43.4c-0.7,0.5-1.5,0.9-2.3,1.4l-0.5,0.3c-0.4,0.2-0.7,0.4-1.1,0.6c-1.9,1.1-3.8,2-5.6,2.7c-0.1,0.1-0.3,0.1-0.4,0.2
			c-1.9,0.8-3.8,1.4-5.7,2c-0.8,0.2-1.6,0.5-2.4,0.7l-1.9,0.5c-1.1,0.3-2.2,0.6-3.4,0.8c-2.2,0.4-4.5,0.8-6.9,1l-0.4,0.1
			c-1.6,0.2-3.3,0.3-4.9,0.3l-1.3,0c-1.4,0-2.8,0-4.1,0l-1,0c0,0,0,0,0,0c-1.9-0.1-3.7-0.2-5.5-0.4l-1.1-0.1
			c-2.3-0.3-4.2-0.5-5.9-0.8c-1.8-0.3-3.6-0.7-5.8-1.2c-0.5-0.1-1-0.2-1.4-0.4c-2-0.5-3.6-1-5.1-1.5c0,0-0.3-0.1-0.3-0.1
			c-1.5-0.5-3.2-1.2-4.9-2c-0.4-0.2-0.8-0.4-1.2-0.5c-1.6-0.7-2.9-1.4-4.2-2.2l-0.4-0.2c-0.2-0.1-0.3-0.2-0.5-0.3l19,30.6
			c0.3,0.5,0.6,0.9,0.9,1.4c0.1,0.2,0.3,0.4,0.4,0.6c0.2,0.2,0.3,0.4,0.5,0.6c0.5,0.6,0.9,1.3,1.5,1.9c0.1,0.1,0.2,0.3,0.4,0.5
			c0.8,0.9,1.5,1.6,2.2,2.3c0.8,0.7,1.5,1.3,2.2,1.9c0.2,0.1,0.4,0.3,0.5,0.4l0.5,0.4c0.4,0.3,0.6,0.5,0.9,0.7
			c1.3,0.9,2.5,1.7,3.6,2.4l0.3,0.2c1.1,0.7,2.4,1.3,3.8,2c0.4,0.2,0.7,0.3,1.1,0.5c1.6,0.7,3.1,1.3,4.5,1.8l-0.6,2.4L116.1,326.9z"
			/>
	</g>
	<g>
		<g>
			<polygon fill="#00A796" points="182,321.9 152.5,274.3 180.5,172.3 210,219.9 			"/>
			<path fill="#202933" d="M181.9,324.4c-0.8,0-1.6-0.5-2-1.2l-29.5-47.6c-0.4-0.6-0.5-1.3-0.3-2l28-102c0.3-1,1.1-1.7,2.1-1.8
				c1-0.1,2,0.3,2.5,1.2l29.5,47.6c0.4,0.6,0.5,1.3,0.3,2l-28,102c-0.3,1-1.1,1.7-2.1,1.8C182.2,324.4,182.1,324.4,181.9,324.4z
				 M155.2,273.9l25.9,41.8l26.2-95.5l-25.9-41.8L155.2,273.9z"/>
		</g>
	</g>
	<g>
		<path fill="#FDB933" d="M160.6,170.4c0.1,0,0.1,0.1,0.2,0.1c1.2,0.7,2.5,1.4,3.8,2c0.3,0.2,0.6,0.3,1,0.5c1.3,0.6,2.6,1.2,4,1.7
			c0,0,0.1,0,0.1,0c1.4,0.5,2.9,1,4.4,1.4c0.4,0.1,0.7,0.2,1.1,0.3c1.5,0.4,3.1,0.7,4.7,1l123,21.7l-29.5-47.6l-123-21.7
			c-1.6-0.3-3.2-0.6-4.7-1c-0.4-0.1-0.7-0.2-1.1-0.3c-1.5-0.4-3-0.9-4.4-1.4c0,0-0.1,0-0.1,0c-1.4-0.5-2.7-1.1-4-1.7
			c-0.3-0.2-0.6-0.3-1-0.5c-1.3-0.6-2.6-1.3-3.8-2c-0.1,0-0.1-0.1-0.2-0.1c-1.1-0.7-2.2-1.5-3.3-2.3c-0.3-0.2-0.5-0.4-0.8-0.6
			c-1.1-0.8-2.1-1.7-3.1-2.6c0,0-0.1-0.1-0.1-0.1c-1-1-2-2-2.9-3.1c-0.2-0.2-0.4-0.5-0.6-0.7c-0.9-1.1-1.8-2.2-2.6-3.5
			c-0.4-0.5-0.7-1-1-1.6l29.5,47.6c0.3,0.5,0.7,1.1,1,1.6c0,0.1,0.1,0.1,0.1,0.2c0.8,1.1,1.6,2.2,2.5,3.3c0.2,0.2,0.4,0.5,0.6,0.7
			c0.2,0.2,0.4,0.5,0.6,0.7c0.8,0.8,1.5,1.7,2.3,2.4c0,0,0.1,0.1,0.1,0.1c0.8,0.7,1.5,1.4,2.3,2.1c0.2,0.2,0.5,0.4,0.8,0.6
			c0.3,0.2,0.5,0.4,0.8,0.6C158.3,168.9,159.4,169.7,160.6,170.4z"/>
		<path fill="#202933" d="M302.6,201.5c-0.1,0-0.2,0-0.3,0l-123-21.7c-1.5-0.3-3.1-0.6-4.9-1.1l-1.2-0.3c-1.8-0.5-3.2-0.9-4.6-1.4
			c-1.4-0.5-2.8-1.1-4.3-1.8c-0.3-0.2-0.7-0.3-1-0.5c-1.5-0.7-2.8-1.4-4-2.1c0,0-0.2-0.1-0.2-0.1c-1.1-0.7-2.2-1.5-3.5-2.4l-1.1-0.9
			c-0.2-0.1-0.4-0.3-0.5-0.4c-0.8-0.7-1.7-1.4-2.5-2.2c-1-1-1.8-1.8-2.6-2.7c-0.1-0.2-0.3-0.3-0.4-0.5l-0.8-1
			c-1-1.3-1.8-2.3-2.6-3.4c0,0-0.1-0.2-0.1-0.2c-0.4-0.5-0.7-1.1-1.1-1.6l-29.4-47.6c0,0,0,0,0,0c-0.7-1.2-0.4-2.7,0.8-3.4
			c1.2-0.7,2.7-0.4,3.4,0.8l0,0c0.3,0.5,0.6,1,1,1.5c0.7,1,1.5,2.1,2.5,3.3l0.5,0.6c1,1.1,1.9,2.1,2.7,2.9c1,0.9,1.9,1.7,3,2.6
			l0.8,0.6c1.1,0.8,2.1,1.5,3.1,2.1c1.2,0.7,2.3,1.4,3.7,2l0.9,0.4c1.4,0.6,2.6,1.2,3.8,1.6c1.3,0.5,2.6,0.9,4.3,1.3l1.1,0.3
			c1.7,0.4,3.1,0.7,4.5,1l123,21.7c0.7,0.1,1.3,0.5,1.7,1.1l29.5,47.6c0.5,0.8,0.5,1.9-0.1,2.7C304.3,201.2,303.5,201.6,302.6,201.5
			z M130,125l18.3,29.5c0.3,0.5,0.6,1,1,1.5c0.8,1.2,1.5,2.1,2.5,3.3l1.1,1.3c0.7,0.8,1.4,1.6,2.2,2.3c0.8,0.8,1.6,1.4,2.3,2.1
			l1.5,1.1c1.1,0.8,2.1,1.5,3.1,2.2c1.2,0.7,2.3,1.4,3.7,2l0.9,0.4c1.4,0.6,2.6,1.2,3.8,1.6c1.3,0.5,2.6,0.9,4.3,1.3l1.1,0.3
			c1.7,0.4,3.1,0.7,4.5,1l117.5,20.7l-25.9-41.9l-121.9-21.5c-1.5-0.3-3.1-0.6-4.9-1.1l-1.2-0.3c-1.8-0.5-3.2-0.9-4.6-1.4
			c-1.4-0.5-2.8-1.1-4.3-1.8c-0.3-0.2-0.7-0.3-1-0.5C132.4,126.4,131.1,125.7,130,125z"/>
	</g>
	<g>
		<defs>
			<path id="SVGID_1_" d="M43.1,327l-29.5-47.6c-3.9-6.3-6.7-13-8.5-20.2c-3.8-15.4-3.5-31.5,1.1-48.4c6.3-23.1,17.4-40.7,33.3-52.9
				c15.9-12.2,35.9-18.9,59.9-19.9l29.5,47.6c-24,1-44,7.7-59.9,19.9c-15.9,12.2-27,29.9-33.3,52.9c-4.6,16.9-5,33-1.1,48.4
				C36.4,314.1,39.2,320.8,43.1,327z"/>
		</defs>
		<defs>
			<path id="SVGID_2_" d="M43,329.5c-0.8,0-1.6-0.4-2-1.2l0,0c0,0,0,0,0,0l-29.5-47.6c-4-6.5-7-13.5-8.8-20.9
				c-3.9-15.8-3.6-32.5,1.2-49.7c6.4-23.5,17.9-41.8,34.2-54.3c16.2-12.5,36.9-19.4,61.3-20.4c0.9,0,1.8,0.4,2.2,1.2l29.5,47.6
				c0.5,0.8,0.5,1.7,0.1,2.5c-0.4,0.8-1.2,1.3-2.1,1.3c-23.4,1-43.1,7.5-58.5,19.4c-15.4,11.8-26.3,29.2-32.4,51.6
				c-4.5,16.3-4.9,32.2-1.1,47.1c1.7,6.7,4.4,13.2,8,19.1c0.4,0.5,0.7,1.1,0.6,1.8C45.6,328.5,44.3,329.6,43,329.5
				C43,329.5,43,329.5,43,329.5z M98.1,140.6c-22.8,1.2-42,7.7-57,19.3c-15.4,11.8-26.3,29.2-32.4,51.6c-4.5,16.3-4.9,32.2-1.1,47.1
				c1.7,6.9,4.5,13.4,8.2,19.4L31.2,303c-2.8-14.5-2.1-29.6,2.1-45.2c6.4-23.5,17.9-41.8,34.2-54.3c15.3-11.8,34.5-18.6,57.1-20.2
				L98.1,140.6z"/>
		</defs>
		<use xlink:href="#SVGID_1_"  overflow="visible" fill="#00A796"/>
		<use xlink:href="#SVGID_2_"  overflow="visible" fill="#202933"/>
		<clipPath id="SVGID_3_">
			<use xlink:href="#SVGID_1_"  overflow="visible"/>
		</clipPath>
		<clipPath id="SVGID_4_" clip-path="url(#SVGID_3_)">
			<use xlink:href="#SVGID_2_"  overflow="visible"/>
		</clipPath>
		<g clip-path="url(#SVGID_4_)">
			<path fill="#FDB933" d="M99.5,138c-2.8,0.1-5.6,0.3-8.3,0.6c-4.6,0.5-9.1,1.2-13.4,2.1c-3.5,0.7-6.9,1.6-10.2,2.7
				c-2.9,0.9-5.8,2-8.5,3.1c-2.6,1.1-5.2,2.3-7.6,3.6c-2.5,1.3-4.9,2.8-7.2,4.3c-1.6,1.1-3.2,2.2-4.8,3.4c-0.8,0.7-1.7,1.3-2.5,2
				l29.5,47.6c0.8-0.7,1.7-1.4,2.5-2c1.6-1.2,3.1-2.3,4.8-3.4c2.3-1.6,4.7-3,7.2-4.3c2.5-1.3,5-2.5,7.6-3.6c2.7-1.2,5.6-2.2,8.5-3.1
				c3.3-1,6.7-1.9,10.2-2.7c4.3-0.9,8.8-1.6,13.4-2.1c2.7-0.3,5.5-0.5,8.3-0.6L99.5,138z"/>
			<path fill="#202933" d="M66.4,210c-0.1,0-0.2,0-0.3,0c-0.7-0.1-1.3-0.5-1.7-1.1l-29.5-47.6c-0.7-1.1-0.4-2.4,0.5-3.2
				c0.8-0.7,1.7-1.4,2.6-2.1c1.6-1.2,3.2-2.4,4.9-3.5c2.4-1.6,4.9-3.1,7.4-4.5c2.5-1.3,5.1-2.6,7.8-3.7c2.8-1.2,5.7-2.3,8.7-3.2
				c3.3-1.1,6.8-2,10.4-2.7c4.4-0.9,9-1.6,13.6-2.1c2.7-0.3,5.6-0.5,8.4-0.6c0.9,0,1.8,0.4,2.2,1.2l29.5,47.6
				c0.5,0.8,0.5,1.7,0.1,2.5c-0.4,0.8-1.2,1.3-2.1,1.3c-2.7,0.1-5.5,0.3-8.1,0.6c-4.5,0.5-8.9,1.1-13.1,2c-3.4,0.7-6.7,1.6-9.9,2.6
				c-2.8,0.9-5.6,1.9-8.3,3.1c-2.5,1.1-5,2.3-7.4,3.5c-2.4,1.3-4.8,2.7-7,4.2c-1.6,1.1-3.1,2.2-4.6,3.3c-0.8,0.6-1.6,1.3-2.4,1.9
				C67.6,209.9,67,210.1,66.4,210z M40.3,160.5l26.8,43.3c0.1-0.1,0.2-0.2,0.3-0.3c1.6-1.2,3.2-2.4,4.9-3.5c2.4-1.6,4.9-3.1,7.4-4.5
				c2.5-1.4,5.1-2.6,7.8-3.7c2.8-1.2,5.7-2.3,8.7-3.2c3.3-1.1,6.8-2,10.4-2.7c4.4-0.9,9-1.6,13.6-2.1c1.4-0.1,2.8-0.3,4.2-0.4
				l-26.5-42.8c-2.3,0.1-4.5,0.3-6.7,0.5c-4.5,0.5-8.9,1.1-13.1,2c-3.4,0.7-6.7,1.6-9.9,2.6c-2.8,0.9-5.6,1.9-8.3,3.1
				c-2.5,1.1-5,2.3-7.4,3.5c-2.4,1.3-4.8,2.7-7,4.2c-1.6,1-3.1,2.2-4.6,3.3C40.8,160.1,40.6,160.3,40.3,160.5z"/>
		</g>
	</g>
	<g>
		<path fill="#00A796" d="M241.8,49c-8-12.9-17.2-22.6-27.6-29.4c-11.3-7.3-25.2-12.3-41.5-15.2c-11.2-2-22-2.4-32.3-1.4l0,0
			c-1.4,0.1-2.7,0.3-4.1,0.5c-0.4,0.1-0.9,0.1-1.3,0.2c-1.9,0.3-3.7,0.6-5.5,1c0,0-0.1,0-0.1,0c-2,0.4-4,0.9-5.9,1.5
			c-1.3,0.4-2.5,0.7-3.8,1.1c-0.4,0.1-0.7,0.2-1,0.4c-0.6,0.2-1.2,0.4-1.9,0.6c-1.1,0.4-2.2,0.8-3.2,1.2c-0.6,0.2-1.2,0.5-1.8,0.7
			c-0.3,0.1-0.7,0.3-1,0.4c-0.9,0.4-1.7,0.8-2.6,1.2c-0.4,0.2-0.7,0.3-1.1,0.5c-1.4,0.7-2.8,1.4-4.2,2.1c-0.1,0-0.1,0.1-0.2,0.1
			c-2.2,1.2-4.3,2.5-6.4,3.8c-0.2,0.1-0.5,0.3-0.7,0.4c-0.5,0.3-1,0.7-1.5,1.1c-0.5,0.3-1,0.7-1.5,1c-1,0.7-1.9,1.5-2.9,2.2
			c-0.4,0.3-0.7,0.6-1.1,0.9c-0.1,0.1-0.2,0.1-0.3,0.2c-1.2,1-2.4,2.1-3.6,3.2c-1.4,1.3-2.7,2.6-4,4c-0.1,0.1-0.1,0.1-0.2,0.2
			c-1,1.1-2,2.3-3,3.5c-0.1,0.2-0.3,0.4-0.4,0.5c-0.9,1.1-1.7,2.2-2.5,3.3c-0.3,0.4-0.6,0.9-0.9,1.4c-0.6,0.9-1.2,1.8-1.8,2.7
			c-0.3,0.5-0.6,1.1-0.9,1.6c-0.5,0.9-1,1.7-1.5,2.6c-0.3,0.6-0.6,1.1-0.9,1.7c-0.4,0.9-0.9,1.8-1.3,2.7c-0.3,0.6-0.5,1.1-0.7,1.7
			c-0.4,1-0.8,2-1.2,3.1c-0.2,0.5-0.4,1-0.5,1.5c-0.5,1.5-1,3.1-1.5,4.7c-4.4,16-3.7,30.4,1.9,43.4c0.9,2.1,1.9,4.1,3.1,6l29.5,47.6
			c-1.2-1.9-2.2-3.9-3.1-6C89.3,140.5,88.7,126,93,110c0.4-1.6,0.9-3.2,1.5-4.7c0.2-0.5,0.4-1,0.5-1.5c0.4-1,0.8-2.1,1.2-3.1
			c0.2-0.6,0.5-1.1,0.7-1.7c0.4-0.9,0.8-1.8,1.3-2.7c0.3-0.6,0.6-1.1,0.9-1.7c0.5-0.9,1-1.7,1.5-2.6c0.3-0.5,0.6-1.1,0.9-1.6
			c0.6-0.9,1.1-1.8,1.7-2.7c0.3-0.5,0.6-0.9,0.9-1.4c0.8-1.1,1.6-2.2,2.5-3.3c0.1-0.2,0.3-0.4,0.4-0.6c1-1.2,2.1-2.5,3.2-3.7
			c1.3-1.4,2.6-2.7,4-4c1.2-1.2,2.5-2.3,3.8-3.4c0.4-0.3,0.7-0.6,1.1-0.8c0.9-0.8,1.9-1.5,2.9-2.2c0.5-0.4,1-0.7,1.5-1
			c0.9-0.6,1.8-1.3,2.8-1.9c0.5-0.3,0.9-0.6,1.4-0.9c1.1-0.7,2.2-1.3,3.3-1.9c0.3-0.2,0.7-0.4,1-0.6c1.5-0.8,2.9-1.5,4.5-2.3
			c0.4-0.2,0.7-0.3,1.1-0.5c1.2-0.5,2.4-1.1,3.6-1.6c0.6-0.2,1.2-0.5,1.8-0.7c1.1-0.4,2.1-0.8,3.2-1.2c0.6-0.2,1.2-0.4,1.9-0.6
			c1.6-0.5,3.2-1,4.8-1.5c2-0.6,3.9-1,5.9-1.5c1.9-0.4,3.7-0.8,5.6-1c0.4-0.1,0.9-0.1,1.3-0.2c11.5-1.6,23.7-1.4,36.4,0.9
			c16.3,2.9,30.2,8,41.5,15.2c10.4,6.7,19.7,16.5,27.6,29.4L241.8,49z"/>
		<path fill="#202933" d="M98,161.9c-0.8,0-1.6-0.4-2-1.2l-29.5-47.6c-1.3-2-2.4-4.1-3.3-6.3c-5.9-13.4-6.6-28.6-2.1-45
			c0.5-1.6,1-3.3,1.5-4.8c0.1-0.3,0.2-0.7,0.4-1l0.2-0.6c0.4-1.1,0.8-2.1,1.2-3.2c0.2-0.5,0.4-0.9,0.6-1.4l0.2-0.4
			c0.4-1,0.9-1.9,1.3-2.8c0.3-0.6,0.6-1.2,0.9-1.8c0.5-0.9,1-1.8,1.5-2.7c0.4-0.7,0.7-1.2,1-1.6c0.6-0.9,1.2-1.9,1.8-2.8l0.3-0.5
			c0.2-0.3,0.4-0.6,0.6-0.9c0.8-1.2,1.7-2.3,2.6-3.4l0.4-0.6c1-1.2,2-2.4,3.1-3.6c0,0,0.2-0.2,0.2-0.2c1.4-1.5,2.7-2.8,4.1-4.1
			c1.2-1.1,2.4-2.2,3.7-3.3c0,0,0.2-0.1,0.2-0.2c0.3-0.2,0.5-0.4,0.7-0.6l0.4-0.3c1-0.8,2-1.5,3-2.3c0.4-0.3,0.8-0.6,1.2-0.8
			l0.9-0.6c0.3-0.2,0.7-0.5,1-0.7c0.2-0.1,0.3-0.2,0.5-0.3c2.5-1.6,4.6-2.9,6.7-4c0,0,0.2-0.1,0.2-0.1c1.4-0.7,2.8-1.5,4.3-2.1
			l1.6-0.7c0.7-0.3,1.5-0.7,2.2-1l1-0.4c0.6-0.2,1.1-0.5,1.7-0.7c1.2-0.5,2.4-0.9,3.5-1.3c0.6-0.2,1.3-0.4,1.9-0.7l1.1-0.4
			c1.3-0.4,2.6-0.8,3.9-1.2c2-0.6,4-1.1,6.1-1.5c2-0.4,3.9-0.8,5.8-1.1c0.3,0,0.5-0.1,0.8-0.1l0.5-0.1c1.4-0.2,2.8-0.4,4.2-0.5
			c0.1,0,0.2,0,0.3,0c10.4-1,21.4-0.5,32.7,1.4c16.6,2.9,30.8,8.2,42.4,15.6c10.7,6.9,20.3,17.1,28.4,30.2l29.5,47.6
			c0.7,1.2,0.4,2.7-0.8,3.4c-1.2,0.7-2.7,0.4-3.4-0.8l0,0c-7.7-12.4-16.7-22.1-26.8-28.5c-11-7.1-24.7-12.1-40.6-14.9
			c-12.3-2.2-24.3-2.5-35.6-0.9l-1.3,0.2c-1.8,0.3-3.7,0.6-5.5,1c-2,0.4-3.9,0.9-5.8,1.4c-1.6,0.4-3.2,0.9-4.7,1.5
			c-0.6,0.2-1.2,0.4-1.8,0.6c-1.1,0.4-2.2,0.8-3.2,1.2c-0.6,0.2-1.2,0.5-1.8,0.7c-1.2,0.5-2.4,1-3.5,1.5l-1,0.5
			c-1.5,0.7-2.9,1.4-4.3,2.2l-1,0.6c-1.1,0.6-2.1,1.2-3.2,1.9c-0.4,0.3-0.9,0.6-1.3,0.8c-0.9,0.6-1.8,1.2-2.7,1.8l-0.3,0.2
			c-0.4,0.3-0.7,0.5-1.1,0.8c-0.9,0.7-1.9,1.4-2.8,2.1l-1,0.8c-1.3,1.1-2.5,2.1-3.7,3.3c-1.3,1.2-2.5,2.5-3.8,3.9
			c-1.1,1.2-2.1,2.3-3.1,3.5l-0.4,0.5c-0.8,1-1.7,2.1-2.4,3.2c-0.2,0.3-0.4,0.5-0.6,0.8l-0.3,0.5c-0.6,0.8-1.1,1.7-1.7,2.6
			c-0.3,0.5-0.6,0.9-0.8,1.4c-0.6,1-1,1.8-1.5,2.7c-0.3,0.5-0.6,1.1-0.8,1.6c-0.4,0.9-0.8,1.7-1.2,2.6l-0.1,0.3
			c-0.2,0.4-0.4,0.9-0.6,1.3c-0.4,1-0.8,2-1.1,3l-0.2,0.6c-0.1,0.3-0.2,0.6-0.3,0.8c-0.5,1.5-1,3-1.4,4.5
			c-4.2,15.3-3.6,29.4,1.8,41.7c0.8,1.8,1.7,3.6,2.8,5.3c0.4,0.5,0.7,1.1,0.6,1.8C100.6,160.8,99.4,161.9,98,161.9
			C98,161.9,98,161.9,98,161.9z M140.4,5.5c-1.2,0.1-2.5,0.3-3.7,0.5l-1.3,0.2c-1.8,0.3-3.6,0.6-5.4,1c-2.1,0.5-4,0.9-5.9,1.5
			c-1.2,0.3-2.5,0.7-3.7,1.1l-1,0.3c-0.6,0.2-1.2,0.4-1.8,0.6c-1.1,0.4-2.1,0.8-3.2,1.2c-0.7,0.3-1.2,0.5-1.8,0.7l-1,0.4
			c-0.7,0.3-1.4,0.6-2.1,0.9l-1.5,0.7c-1.4,0.7-2.7,1.3-4,2c-2.2,1.2-4.2,2.4-6.4,3.8c-0.2,0.1-0.3,0.2-0.5,0.3
			c-0.5,0.3-0.8,0.5-1.1,0.7l-0.9,0.7c-0.4,0.3-0.7,0.5-1.1,0.8c-1,0.7-1.9,1.4-2.8,2.1l-1,0.8c0,0-0.2,0.2-0.2,0.2
			c-1.2,1-2.3,2-3.5,3.1c-1.3,1.2-2.5,2.5-3.8,3.9c0,0-0.2,0.2-0.2,0.2c-1,1.1-2,2.2-2.9,3.4l-0.4,0.5c-0.8,1.1-1.7,2.1-2.4,3.2
			c-0.2,0.3-0.4,0.5-0.5,0.8l-0.3,0.5c-0.6,0.9-1.2,1.7-1.7,2.6c-0.3,0.4-0.5,0.9-0.8,1.3c-0.6,1-1.1,1.9-1.5,2.7
			c-0.3,0.5-0.6,1.1-0.8,1.6c-0.4,0.9-0.8,1.8-1.2,2.6l-0.2,0.4c-0.2,0.4-0.4,0.8-0.6,1.3c-0.4,1-0.8,2-1.1,3l-0.2,0.6
			c-0.1,0.3-0.2,0.5-0.3,0.8c-0.5,1.5-1,3-1.4,4.5c-4.2,15.3-3.6,29.4,1.8,41.7c0.9,2,1.9,3.9,3,5.7l17.5,28.3
			c-1.3-9.2-0.5-19,2.3-29.4c0.4-1.6,1-3.3,1.5-4.8c0.1-0.3,0.2-0.7,0.4-1l0.2-0.5c0.4-1.1,0.8-2.1,1.2-3.2c0.2-0.5,0.4-0.9,0.6-1.4
			l0.1-0.3c0.4-1,0.9-1.9,1.3-2.8c0.3-0.6,0.6-1.2,0.9-1.8c0.5-0.9,1-1.8,1.5-2.7c0.4-0.6,0.7-1.2,1-1.7c0.6-0.9,1.2-1.8,1.8-2.7
			l0.3-0.5c0.2-0.3,0.4-0.6,0.7-1c0.8-1.2,1.7-2.3,2.6-3.4l0.4-0.6c1.1-1.3,2.2-2.5,3.3-3.8c1.4-1.5,2.7-2.8,4.1-4.1
			c1.3-1.2,2.6-2.3,4-3.5c0.2-0.2,0.5-0.4,0.7-0.6l0.4-0.3c1-0.8,2-1.5,3-2.3c0.4-0.3,0.8-0.6,1.2-0.8l0.3-0.2
			c0.9-0.7,1.9-1.3,2.9-1.9c0.5-0.3,0.9-0.6,1.4-0.9c1.1-0.7,2.2-1.3,3.4-2l1.1-0.6c1.5-0.8,3-1.6,4.6-2.3l1.1-0.5
			c1.2-0.6,2.4-1.1,3.7-1.6c0.6-0.2,1.2-0.5,1.8-0.7c1.1-0.4,2.2-0.8,3.3-1.2c0.7-0.2,1.3-0.5,1.9-0.7c1.6-0.5,3.3-1.1,4.9-1.5
			c2-0.6,4-1.1,6.1-1.5c1.9-0.4,3.9-0.8,5.8-1.1c0.3,0,0.5-0.1,0.8-0.1l0.5-0.1c11.8-1.7,24.3-1.4,37.2,0.9
			c16.6,2.9,30.8,8.2,42.4,15.6c2.4,1.5,4.7,3.3,7,5.1l-12.3-19.9C232,37.9,223,28.3,212.9,21.8c-11-7.1-24.7-12.1-40.6-14.9
			c-10.9-1.9-21.5-2.4-31.6-1.4C140.6,5.5,140.5,5.5,140.4,5.5z"/>
	</g>
	<g>
		<g>
			<path fill="#DA1C5C" d="M179.7,177.4l123,21.7l-9.7,35.5l-36.3-6.4L224.1,347c-31.2,22.4-67.7,29.9-109.4,22.6
				c-22.7-4-40.8-11.6-54.2-22.8c-13.4-11.2-22.1-24.5-25.9-39.9c-3.8-15.4-3.5-31.5,1.1-48.4c6.3-23.1,17.4-40.7,33.3-52.9
				c15.9-12.2,35.9-18.9,59.9-19.9l0.4-1.3c-17.2-7.7-28.7-18-34.3-30.9C89.3,140.5,88.7,126,93,110c3.7-13.6,10.8-25.3,21.3-35.1
				c10.5-9.8,23.3-16.8,38.6-21.1c15.3-4.3,31.7-4.9,49.3-1.8c16.3,2.9,30.2,8,41.5,15.2c11.3,7.3,21.2,18.2,29.6,32.6l-35.5,20.3
				c-5.6-9.7-11.6-17-18-22c-6.4-5-14.6-8.4-24.6-10.1c-13.6-2.4-25.1-0.5-34.4,5.6c-9.3,6.1-15.7,15.5-19.2,28.3
				c-3.6,13-1.7,24.9,5.5,35.6C154.3,168.2,165.2,174.8,179.7,177.4z M182,321.9l28-102l-45.4-8c-13.6-2.4-25.8-1.3-36.6,3.3
				c-10.8,4.6-19.8,11.3-26.9,20.1c-7.2,8.8-12.2,18.6-15.1,29.2c-4.5,16.6-3.5,31.2,3.2,43.8c6.7,12.7,19.4,20.6,38.2,23.9
				c10.6,1.9,20.7,1.8,30.2,0C167.1,330.4,175.2,326.9,182,321.9"/>
			<path fill="#202933" d="M138,374.7c-7.7-0.3-15.7-1.2-23.8-2.6c-23-4.1-41.6-11.9-55.3-23.3c-13.8-11.5-22.8-25.4-26.8-41.2
				c-3.9-15.8-3.6-32.5,1.2-49.7c6.4-23.5,17.9-41.8,34.2-54.3c14.7-11.3,33.1-18,54.6-20c-14.4-7.6-24.3-17.4-29.4-29.2
				c-5.9-13.4-6.6-28.6-2.1-45c3.8-14,11.2-26.2,22-36.3c10.7-10,24-17.3,39.6-21.7c15.6-4.4,32.5-5,50.4-1.9
				c16.6,2.9,30.8,8.2,42.4,15.6c11.6,7.5,21.8,18.8,30.4,33.5c0.3,0.6,0.4,1.3,0.3,1.9c-0.2,0.6-0.6,1.2-1.2,1.5L239,122.3
				c-1.2,0.7-2.7,0.3-3.4-0.9c-5.4-9.3-11.2-16.5-17.4-21.3c-6-4.7-13.9-8-23.5-9.6c-12.9-2.3-23.8-0.5-32.5,5.2
				c-8.7,5.8-14.8,14.8-18.1,26.8c-3.4,12.4-1.7,23.4,5.1,33.5c6.8,10.1,17.2,16.4,30.9,18.9l123,21.7c0.7,0.1,1.3,0.5,1.7,1.1
				c0.4,0.6,0.5,1.3,0.3,2l-9.7,35.5c-0.3,1.2-1.6,2-2.8,1.8l-34.1-6l-32,116.7c-0.2,0.6-0.5,1-1,1.4C200,367.4,170.6,376,138,374.7
				z M185.3,52.7c-11-0.5-21.7,0.7-31.8,3.6c-14.8,4.1-27.5,11-37.6,20.5c-10.1,9.4-17,20.8-20.6,33.9c-4.2,15.3-3.6,29.4,1.8,41.7
				c5.3,12.3,16.5,22.3,33.1,29.7c1.1,0.5,1.7,1.7,1.4,2.9l-0.4,1.3c-0.3,1-1.2,1.8-2.3,1.8c-23.4,1-43.1,7.5-58.5,19.4
				c-15.4,11.8-26.3,29.2-32.4,51.6c-4.5,16.3-4.9,32.2-1.1,47.1c3.7,14.8,12.2,27.8,25.1,38.6c13,10.9,30.8,18.3,53,22.2
				c40.6,7.1,76.5-0.1,106.8-21.6l32.3-118c0.3-1.2,1.6-2,2.8-1.8l34.1,6l8.4-30.7l-120.3-21.2c-15.2-2.7-26.7-9.7-34.2-21
				c-7.6-11.3-9.6-24-5.8-37.7c3.6-13.2,10.4-23.2,20.2-29.7c9.8-6.4,22-8.4,36.2-5.9c10.3,1.8,19,5.4,25.7,10.6
				c6.1,4.8,12,11.8,17.3,20.6L269.8,99c-7.9-13-17.1-23-27.5-29.6c-11-7.1-24.7-12.1-40.6-14.9C196.2,53.5,190.7,52.9,185.3,52.7z
				 M139.2,336.1L139.2,336.1c-4-0.2-8.1-0.6-12.3-1.4c-19.5-3.4-32.9-11.9-40-25.2c-7-13.2-8.1-28.5-3.4-45.6
				c3-10.9,8.2-21.1,15.6-30.1c7.4-9.1,16.8-16.1,27.9-20.9c11.2-4.8,24-5.9,38-3.5l45.4,8c0.7,0.1,1.3,0.5,1.7,1.1
				c0.4,0.6,0.5,1.3,0.3,2l-28,102c-0.1,0.5-0.5,1-0.9,1.3c-7,5.2-15.6,8.8-25.5,10.8C151.9,335.9,145.6,336.4,139.2,336.1z
				 M153.9,213.2c-9-0.4-17.4,1.1-24.9,4.3c-10.4,4.4-19.1,11-26,19.4c-6.9,8.5-11.8,18-14.7,28.3c-4.3,15.9-3.3,30,3,42
				c6.3,11.9,18.5,19.5,36.4,22.6c3.9,0.7,7.8,1.1,11.6,1.3l0,0c6.1,0.3,12-0.2,17.7-1.3c8.8-1.7,16.5-4.9,22.8-9.4l27-98.5
				l-42.7-7.5C160.6,213.7,157.2,213.4,153.9,213.2z"/>
		</g>
	</g>
	<g>
		<path fill="#FDB933" d="M241.8,49c-1-1.5-1.9-3-2.9-4.5c-2.6-3.8-5.3-7.3-8.2-10.5c-3-3.4-6.2-6.5-9.5-9.2
			c-2.3-1.9-4.7-3.6-7.1-5.2c-11.3-7.3-25.2-12.3-41.5-15.2c-5.9-1-11.7-1.7-17.4-1.9c-5.1-0.2-10,0-14.9,0.5l29.5,47.6
			c4.9-0.5,9.8-0.6,14.9-0.5c5.7,0.2,11.5,0.8,17.4,1.9c16.3,2.9,30.2,8,41.5,15.2c2.4,1.6,4.8,3.3,7.1,5.2c3.3,2.7,6.5,5.8,9.5,9.2
			c2.8,3.2,5.6,6.7,8.2,10.5c1,1.4,2,2.9,2.9,4.5L241.8,49z"/>
		<path fill="#202933" d="M271.2,99.1c-0.8,0-1.6-0.4-2-1.2c0,0,0,0,0,0l0,0c-0.9-1.5-1.9-3-2.8-4.4c-2.5-3.7-5.2-7.1-8-10.3
			c-2.9-3.3-6-6.3-9.2-8.9c-2.2-1.8-4.5-3.5-6.8-5c-11-7.1-24.7-12.1-40.6-14.9c-5.6-1-11.1-1.6-16.4-1.8l-0.6,0
			c-4.9-0.2-9.8,0-14.6,0.5c-1,0.1-1.9-0.4-2.4-1.2L138.3,4.3c-0.5-0.7-0.5-1.6-0.1-2.4c0.4-0.8,1.1-1.3,2-1.4
			c5-0.5,10.1-0.7,15.3-0.5l0.7,0c5.5,0.2,11.3,0.9,17.1,1.9c16.6,2.9,30.8,8.2,42.4,15.6c2.5,1.6,5,3.4,7.3,5.4
			c3.4,2.8,6.7,6,9.8,9.5c2.9,3.3,5.7,6.9,8.3,10.8c1,1.5,2,3,3,4.6l29.5,47.6c0.7,1.2,0.4,2.7-0.8,3.4
			C272.2,99,271.7,99.1,271.2,99.1z M185.6,47.7c5.5,0.2,11.3,0.9,17.1,1.9c16.6,2.9,30.8,8.2,42.4,15.6c2.4,1.5,4.8,3.3,7,5.1
			l-12.3-19.9c-0.9-1.5-1.9-3-2.8-4.4c-2.5-3.7-5.2-7.1-8-10.3c-2.9-3.3-6-6.3-9.2-8.9c-2.2-1.8-4.5-3.5-6.8-5
			c-11-7.1-24.7-12.1-40.6-14.9c-5.6-1-11.1-1.6-16.4-1.8l-0.6,0c-3.5-0.1-7.1-0.1-10.6,0.1L171.2,48c4.5-0.4,9.1-0.5,13.7-0.3
			L185.6,47.7z"/>
	</g>
</g>
</svg>
