<?xml version="1.0" encoding="utf-8"?>
<!-- Generator: Adobe Illustrator 17.0.0, SVG Export Plug-In . SVG Version: 6.00 Build 0)  -->
<!DOCTYPE svg PUBLIC "-//W3C//DTD SVG 1.1//EN" "http://www.w3.org/Graphics/SVG/1.1/DTD/svg11.dtd">
<svg version="1.1" id="Layer_1" xmlns="http://www.w3.org/2000/svg" xmlns:xlink="http://www.w3.org/1999/xlink" x="0px" y="0px"
	 width="276.4px" height="347.7px" viewBox="0 0 276.4 347.7" enable-background="new 0 0 276.4 347.7" xml:space="preserve">
<g>
	<g>
		<path fill="#FDB933" d="M242.5,147.5l3.6,18l-97,4.8l-3.6-18c-1.6-8.1-2.5-15-2.7-20.7l97-4.8
			C239.9,132.5,240.8,139.4,242.5,147.5z"/>
		<path fill="#202933" d="M149.1,172.9c-1.2,0-2.2-0.8-2.4-2l-3.6-18c-1.6-8.2-2.6-15.3-2.7-21.1c0-1.4,1-2.5,2.4-2.6l97-4.8
			c0.7,0,1.3,0.2,1.8,0.7c0.5,0.5,0.8,1.1,0.8,1.8c0.2,5.5,1,12.3,2.6,20.3l3.6,18c0.1,0.7,0,1.5-0.5,2c-0.4,0.6-1.1,0.9-1.8,1
			l-97,4.8C149.2,172.9,149.2,172.9,149.1,172.9z M145.4,134c0.3,5,1.2,11,2.5,17.8l3.2,15.9l91.9-4.6L240,148
			c-1.4-7-2.3-13.3-2.6-18.6L145.4,134z"/>
	</g>
	<g>
		<g>
			<polygon fill="#FDB933" points="223.5,54.6 126.6,59.4 130.4,78.9 227.4,74 			"/>
			<path fill="#202933" d="M130.4,81.4c-1.2,0-2.2-0.8-2.4-2l-3.9-19.4c-0.1-0.7,0-1.4,0.5-2c0.4-0.6,1.1-0.9,1.8-1l97-4.8
				c1.2-0.1,2.3,0.8,2.6,2l3.9,19.4c0.1,0.7,0,1.4-0.5,2c-0.4,0.6-1.1,0.9-1.8,1l-97,4.8C130.5,81.4,130.5,81.4,130.4,81.4z
				 M129.6,61.8l2.9,14.5l91.9-4.6l-2.9-14.5L129.6,61.8z"/>
		</g>
	</g>
	<g>
		<g>
			<polygon fill="#DA1C5C" points="227.4,74 130.4,78.9 41.9,322.7 138.9,317.8 			"/>
			<path fill="#202933" d="M41.9,325.2c-0.8,0-1.5-0.4-2-1c-0.5-0.7-0.6-1.5-0.3-2.3L128.1,78c0.3-0.9,1.2-1.6,2.2-1.6l97-4.8
				c0.8-0.1,1.6,0.3,2.1,1c0.5,0.7,0.6,1.5,0.3,2.3l-88.5,243.8c-0.3,0.9-1.2,1.6-2.2,1.6l-97,4.8C42,325.2,41.9,325.2,41.9,325.2z
				 M132.2,81.3L45.5,320l91.5-4.6l86.7-238.7L132.2,81.3z"/>
		</g>
	</g>
	<g>
		<g>
			<polygon fill="#DA1C5C" points="177,66.3 80,71.1 2.5,284.7 99.4,279.8 			"/>
			<path fill="#202933" d="M2.5,287.2c-0.8,0-1.5-0.4-2-1c-0.5-0.7-0.6-1.5-0.3-2.3L77.7,70.3c0.3-0.9,1.2-1.6,2.2-1.6l97-4.8
				c0.8-0.1,1.6,0.3,2.1,1c0.5,0.7,0.6,1.5,0.3,2.3l-77.5,213.6c-0.3,0.9-1.2,1.6-2.2,1.6l-97,4.8C2.6,287.2,2.5,287.2,2.5,287.2z
				 M81.8,73.5L6.1,282l91.5-4.6L173.4,69L81.8,73.5z"/>
		</g>
	</g>
	<g>
		<g>
			<polygon fill="#FDB933" points="147.2,29.3 50.2,34.1 56,80.5 153,75.7 			"/>
			<path fill="#202933" d="M56,83c-1.3,0-2.3-0.9-2.5-2.2l-5.8-46.4c-0.1-0.7,0.1-1.4,0.6-1.9c0.4-0.5,1.1-0.9,1.8-0.9l97-4.8
				c1.3-0.1,2.4,0.9,2.6,2.2l5.8,46.4c0.1,0.7-0.1,1.4-0.6,1.9c-0.4,0.5-1.1,0.9-1.8,0.9l-97,4.8C56.1,83,56,83,56,83z M53,36.4
				l5.2,41.5l92-4.6L145,31.9L53,36.4z"/>
		</g>
	</g>
	<g>
		<g>
			<polygon fill="#DA1C5C" points="242.4,2.5 145.5,7.3 50.2,34.1 147.2,29.3 			"/>
			<path fill="#202933" d="M50.2,36.6c-1.2,0-2.3-0.9-2.5-2.1c-0.2-1.3,0.6-2.5,1.8-2.8l95.3-26.8c0.2,0,0.4-0.1,0.6-0.1l97-4.8
				c1.3-0.1,2.4,0.8,2.6,2.1c0.2,1.3-0.6,2.5-1.8,2.8l-95.3,26.8c-0.2,0-0.4,0.1-0.6,0.1l-97,4.8C50.3,36.6,50.2,36.6,50.2,36.6z
				 M145.9,9.8L72.2,30.5l74.5-3.7l73.6-20.7L145.9,9.8z"/>
		</g>
	</g>
	<g>
		<g>
			<polygon fill="#FDB933" points="138.9,317.8 41.9,322.7 65.3,345.2 162.2,340.4 			"/>
			<path fill="#202933" d="M65.3,347.7c-0.6,0-1.3-0.2-1.7-0.7l-23.4-22.6c-0.7-0.7-1-1.7-0.6-2.7c0.3-0.9,1.2-1.6,2.2-1.6l97-4.8
				c0.7,0,1.4,0.2,1.9,0.7l23.4,22.6c0.7,0.7,1,1.7,0.6,2.7c-0.3,0.9-1.2,1.6-2.2,1.6l-97,4.8C65.4,347.7,65.3,347.7,65.3,347.7z
				 M47.8,324.9l18.5,17.8l90.1-4.5l-18.5-17.8L47.8,324.9z"/>
		</g>
	</g>
	<g>
		<g>
			<polygon fill="#FDB933" points="99.4,279.8 2.5,284.7 25.7,307 122.6,302.2 			"/>
			<path fill="#202933" d="M25.7,309.5c-0.6,0-1.3-0.2-1.7-0.7L0.8,286.5c-0.7-0.7-1-1.7-0.6-2.7c0.3-0.9,1.2-1.6,2.2-1.6l97-4.8
				c0.7,0,1.4,0.2,1.9,0.7l23.2,22.4c0.7,0.7,1,1.7,0.6,2.7c-0.3,0.9-1.2,1.6-2.2,1.6l-97,4.8C25.8,309.5,25.7,309.5,25.7,309.5z
				 M8.4,286.9l18.3,17.6l90.1-4.5l-18.3-17.6L8.4,286.9z"/>
		</g>
	</g>
	<g>
		<path fill="#25408F" d="M273.9,151.5l-31.4-149l-95.3,26.8l5.8,46.4l11.4-3.5c4.5-1.2,8.7-3.1,12.6-5.9L99.4,279.8l23.2,22.4
			l88.5-243.8l12.3-3.8l3.9,19.4l-88.5,243.8l23.4,22.6l77.5-213.6c0.2,5.7,1.1,12.6,2.7,20.7l3.6,18L273.9,151.5z"/>
		<path fill="#202933" d="M162.2,342.9c-0.6,0-1.3-0.2-1.7-0.7l-23.4-22.6c-0.7-0.7-0.9-1.7-0.6-2.6l88.3-243.2l-3.2-16l-8.5,2.6
			L125,303.1c-0.3,0.8-1,1.4-1.8,1.6c-0.8,0.2-1.7,0-2.3-0.6l-23.2-22.4c-0.7-0.7-0.9-1.7-0.6-2.6l75.2-207c-2.3,1.1-4.7,2-7.2,2.7
			l-11.3,3.5c-0.7,0.2-1.5,0.1-2.1-0.3c-0.6-0.4-1-1.1-1.1-1.8l-5.8-46.4c-0.2-1.2,0.6-2.4,1.8-2.7l95.3-26.8c0.7-0.2,1.4-0.1,2,0.3
			c0.6,0.4,1,0.9,1.1,1.6l31.4,149c0.2,1.1-0.3,2.2-1.3,2.7l-27.8,14.1c-0.7,0.4-1.5,0.4-2.2,0c-0.7-0.3-1.2-1-1.4-1.8l-3.6-18
			c-0.7-3.5-1.3-6.8-1.7-9.8l-73.7,203.1c-0.3,0.8-1,1.4-1.8,1.6C162.6,342.9,162.4,342.9,162.2,342.9z M141.8,317.2l19.5,18.8
			L237.4,126c0.4-1.1,1.5-1.8,2.7-1.6c1.2,0.2,2.1,1.2,2.1,2.4c0.2,5.5,1,12.3,2.6,20.3l3,14.8l23.1-11.7L240.5,5.6l-90.6,25.5
			l5.2,41.4l8.6-2.6c4.3-1.1,8.3-3,11.9-5.6c0.9-0.6,2.1-0.6,3,0c0.9,0.7,1.2,1.8,0.8,2.8l-77,212l19.3,18.6l87.2-240.2
			c0.3-0.7,0.9-1.3,1.6-1.5l12.3-3.8c0.7-0.2,1.4-0.1,2,0.2c0.6,0.4,1,1,1.2,1.7l3.9,19.4c0.1,0.4,0.1,0.9-0.1,1.3L141.8,317.2z"/>
	</g>
</g>
</svg>
