<?xml version="1.0" encoding="utf-8"?>
<!-- Generator: Adobe Illustrator 17.0.0, SVG Export Plug-In . SVG Version: 6.00 Build 0)  -->
<!DOCTYPE svg PUBLIC "-//W3C//DTD SVG 1.1//EN" "http://www.w3.org/Graphics/SVG/1.1/DTD/svg11.dtd">
<svg version="1.1" id="Layer_1" xmlns="http://www.w3.org/2000/svg" xmlns:xlink="http://www.w3.org/1999/xlink" x="0px" y="0px"
	 width="203.1px" height="223.4px" viewBox="0 0 203.1 223.4" enable-background="new 0 0 203.1 223.4" xml:space="preserve">
<g>
	<g>
		<g>
			<polygon fill="#25408F" points="134.5,44.6 157.7,112.4 41.3,166.2 18,98.4 			"/>
			<path fill="#202933" d="M40.7,168.6c-0.1,0-0.3-0.1-0.4-0.1c-0.6-0.3-1.2-0.8-1.4-1.5L15.7,99.2c-0.4-1.2,0.2-2.5,1.3-3.1
				l116.4-53.8c0.6-0.3,1.4-0.3,2,0c0.6,0.3,1.2,0.8,1.4,1.5l23.2,67.8c0.4,1.2-0.2,2.5-1.3,3.1L42.3,168.5
				C41.8,168.7,41.2,168.8,40.7,168.6z M21.1,99.8l21.6,63l111.9-51.7l-21.6-63L21.1,99.8z"/>
		</g>
	</g>
	<g>
		<g>
			<polygon fill="#FDB933" points="18,98.4 41.3,166.2 25.7,131.8 2.5,64.1 			"/>
			<path fill="#202933" d="M40.7,168.6c-0.7-0.2-1.3-0.7-1.7-1.4l-15.6-34.4l-23.3-68c-0.4-1.3,0.2-2.6,1.4-3.1
				c1.2-0.5,2.6,0.1,3.2,1.3l15.6,34.4L43.5,165c0.3,0.5,0.4,1.2,0.2,1.8C43.4,168.2,42.1,169,40.7,168.6
				C40.7,168.6,40.7,168.6,40.7,168.6z"/>
		</g>
	</g>
	<g>
		<g>
			<polygon fill="#25408F" points="162.4,151.6 185.7,219.4 142.1,220.9 118.9,153.2 			"/>
			<path fill="#202933" d="M141.5,223.4c-0.8-0.2-1.5-0.8-1.8-1.6L116.5,154c-0.3-0.7-0.1-1.6,0.3-2.2c0.4-0.7,1.2-1.1,2-1.1
				l43.6-1.5c1.1,0,2.1,0.6,2.4,1.7l23.2,67.8c0.3,0.7,0.1,1.6-0.3,2.2c-0.4,0.7-1.2,1.1-2,1.1l-43.6,1.5
				C141.9,223.4,141.7,223.4,141.5,223.4z M122.3,155.6l21.5,62.8l38.4-1.4l-21.5-62.8L122.3,155.6z"/>
		</g>
	</g>
	<g>
		<g>
			<polygon fill="#DA1C5C" points="177.3,19 200.6,86.7 185.7,219.4 162.4,151.6 			"/>
			<path fill="#202933" d="M185.1,221.8c-0.8-0.2-1.5-0.8-1.8-1.6l-23.2-67.8c-0.1-0.3-0.2-0.7-0.1-1.1l14.9-132.7
				c0.1-1.2,1-2.1,2.2-2.2c1.2-0.1,2.3,0.6,2.6,1.7l23.2,67.8c0.1,0.3,0.2,0.7,0.1,1.1l-14.9,132.2c0,0.3,0,0.5-0.1,0.8
				C187.8,221.4,186.4,222.2,185.1,221.8C185.1,221.8,185.1,221.8,185.1,221.8z M165,151.4l19.5,56.7L198,87l-19.5-56.7L165,151.4z"
				/>
		</g>
	</g>
	<g>
		<g>
			<polygon fill="#00A796" points="162.4,151.6 118.9,153.2 134.5,44.6 18,98.4 2.5,64.1 147,2.5 177.3,19 			"/>
			<path fill="#202933" d="M118.3,155.6c-0.5-0.1-0.9-0.4-1.3-0.8c-0.5-0.6-0.7-1.3-0.6-2l15-104L19.1,100.7
				c-0.6,0.3-1.3,0.3-1.9,0.1c-0.6-0.2-1.1-0.7-1.4-1.3L0.2,65.1c-0.3-0.6-0.3-1.3-0.1-1.9c0.2-0.6,0.7-1.1,1.3-1.4L146.1,0.2
				c0.7-0.3,1.5-0.3,2.2,0.1l30.3,16.5c0.9,0.5,1.4,1.5,1.3,2.5l-14.9,132.7c-0.1,1.2-1.2,2.2-2.4,2.2l-43.6,1.5
				C118.7,155.7,118.5,155.7,118.3,155.6z M135.1,42.2c0.3,0.1,0.6,0.2,0.9,0.4c0.7,0.5,1.1,1.5,1,2.4l-15.2,105.6l38.4-1.4
				l14.5-128.9L146.9,5.3L5.8,65.4l13.5,29.8l114.2-52.7C134,42.1,134.5,42.1,135.1,42.2z"/>
		</g>
	</g>
</g>
</svg>
