<?xml version="1.0" encoding="utf-8"?>
<!-- Generator: Adobe Illustrator 17.0.0, SVG Export Plug-In . SVG Version: 6.00 Build 0)  -->
<!DOCTYPE svg PUBLIC "-//W3C//DTD SVG 1.1//EN" "http://www.w3.org/Graphics/SVG/1.1/DTD/svg11.dtd">
<svg version="1.1" id="Layer_1" xmlns="http://www.w3.org/2000/svg" xmlns:xlink="http://www.w3.org/1999/xlink" x="0px" y="0px"
	 width="344.4px" height="263.1px" viewBox="0 0 344.4 263.1" enable-background="new 0 0 344.4 263.1" xml:space="preserve">
<g>
	<g>
		<g>
			<polygon fill="#00A796" points="25.2,104.4 180.4,96 203.1,58.2 47.9,66.6 			"/>
			<path fill="#202933" d="M25.2,107.1c-1,0-1.9-0.5-2.4-1.3c-0.5-0.9-0.5-2,0-2.8l22.7-37.8c0.5-0.8,1.3-1.3,2.2-1.3L203,55.5
				c1-0.1,2,0.5,2.5,1.3c0.5,0.9,0.5,2,0,2.8l-22.7,37.8c-0.5,0.8-1.3,1.3-2.2,1.3l-155.3,8.4C25.3,107.1,25.2,107.1,25.2,107.1z
				 M49.5,69.3l-19.3,32.1l148.6-8l19.3-32.1L49.5,69.3z"/>
		</g>
	</g>
	<g>
		<g>
			<polygon fill="#FDB933" points="226.6,187.2 46.7,9 2.8,82.2 25.2,104.4 47.9,66.6 182.9,200.4 160.2,238.2 182.6,260.4 			"/>
			<path fill="#202933" d="M182.6,263.1c-0.7,0-1.4-0.3-1.9-0.8l-22.4-22.2c-0.9-0.9-1.1-2.3-0.4-3.4l21.6-35.9L48.4,71l-20.9,34.8
				c-0.4,0.7-1.2,1.2-2,1.3c-0.8,0.1-1.7-0.2-2.3-0.8L0.8,84.1c-0.9-0.9-1.1-2.3-0.4-3.4l44-73.2c0.4-0.7,1.2-1.2,2-1.3
				C47.2,6.2,48,6.5,48.6,7l179.9,178.2c0.9,0.9,1.1,2.3,0.4,3.4l-44,73.2c-0.4,0.7-1.2,1.2-2,1.3
				C182.9,263.1,182.8,263.1,182.6,263.1z M163.7,237.7l18.4,18.2l41-68.3L47.3,13.4l-41,68.3L24.6,100l20.9-34.8
				c0.4-0.7,1.2-1.2,2-1.3c0.8-0.1,1.7,0.2,2.3,0.8l135,133.8c0.9,0.9,1.1,2.3,0.4,3.4L163.7,237.7z"/>
		</g>
	</g>
	<g>
		<g>
			<polygon fill="#DA1C5C" points="226.6,187.2 341.6,181 161.7,2.8 46.7,9 			"/>
			<path fill="#202933" d="M226.6,190c-0.7,0-1.4-0.3-1.9-0.8L44.8,11C44,10.2,43.8,9,44.1,8c0.4-1,1.3-1.7,2.4-1.8l115-6.3
				c0.8,0,1.5,0.2,2.1,0.8L343.6,179c0.8,0.8,1,1.9,0.6,2.9c-0.4,1-1.3,1.7-2.4,1.8l-115,6.3C226.7,190,226.7,190,226.6,190z
				 M53.1,11.4l174.6,173l107.6-5.8L160.7,5.6L53.1,11.4z"/>
		</g>
	</g>
	<g>
		<g>
			<polygon fill="#00A796" points="182.6,260.4 297.7,254.1 341.6,181 226.6,187.2 			"/>
			<path fill="#202933" d="M182.6,263.1c-1,0-1.9-0.5-2.4-1.3c-0.5-0.9-0.5-2,0-2.8l44-73.2c0.5-0.8,1.3-1.3,2.2-1.3l115-6.3
				c1-0.1,2,0.5,2.5,1.3c0.5,0.9,0.5,2,0,2.8l-44,73.2c-0.5,0.8-1.3,1.3-2.2,1.3l-115,6.2C182.7,263.1,182.7,263.1,182.6,263.1z
				 M228.2,189.9l-40.5,67.5l108.4-5.9l40.5-67.5L228.2,189.9z"/>
		</g>
	</g>
</g>
</svg>
