<?xml version="1.0" encoding="utf-8"?>
<!-- Generator: Adobe Illustrator 17.0.0, SVG Export Plug-In . SVG Version: 6.00 Build 0)  -->
<!DOCTYPE svg PUBLIC "-//W3C//DTD SVG 1.1//EN" "http://www.w3.org/Graphics/SVG/1.1/DTD/svg11.dtd">
<svg version="1.1" id="Layer_1" xmlns="http://www.w3.org/2000/svg" xmlns:xlink="http://www.w3.org/1999/xlink" x="0px" y="0px"
	 width="332.9px" height="160.9px" viewBox="0 0 332.9 160.9" enable-background="new 0 0 332.9 160.9" xml:space="preserve">
<g>
	<g>
		<g>
			<polygon fill="#00A796" points="286.6,35.2 248.9,2.5 292.7,16 330.3,48.7 			"/>
			<path fill="#202933" d="M330.3,51.2c-0.2,0-0.5,0-0.7-0.1l-43.8-13.5c-0.3-0.1-0.6-0.3-0.9-0.5L247.3,4.4
				c-0.9-0.8-1.1-2.1-0.5-3.1c0.6-1,1.8-1.5,2.9-1.2l43.8,13.5c0.3,0.1,0.6,0.3,0.9,0.5l37.4,32.6c0.6,0.5,1.1,1.2,1.1,2
				C332.9,50.1,331.7,51.2,330.3,51.2C330.4,51.2,330.3,51.2,330.3,51.2z M287.8,33l31.9,9.9l-28.3-24.6l-31.9-9.9L287.8,33z"/>
		</g>
	</g>
	<g>
		<path fill="#DA1C5C" d="M274.2,55.8c0.4-0.5,0.7-1.1,1.1-1.6c0.2-0.2,0.3-0.5,0.5-0.7c0.5-0.8,1.1-1.6,1.6-2.5
			c0-0.1,0.1-0.1,0.1-0.2c0.5-0.8,1-1.6,1.5-2.4c0-0.1,0.1-0.1,0.1-0.2c0.1-0.2,0.3-0.4,0.4-0.6c0.4-0.7,0.8-1.3,1.2-2
			c0.2-0.3,0.4-0.7,0.6-1.1c0.4-0.6,0.7-1.3,1.1-1.9c0.2-0.4,0.4-0.7,0.6-1.1c0.4-0.7,0.8-1.4,1.2-2.1c0.2-0.3,0.4-0.7,0.6-1
			c0.6-1,1.1-2.1,1.7-3.1c0,0,0,0,0,0L248.9,2.5c-0.6,1.1-1.2,2.1-1.7,3.2c-0.2,0.3-0.4,0.7-0.5,1c-0.4,0.7-0.8,1.4-1.2,2.1
			c-0.2,0.4-0.4,0.7-0.6,1.1c-0.4,0.7-0.7,1.3-1.1,1.9c-0.2,0.3-0.4,0.7-0.6,1c-0.4,0.7-0.8,1.3-1.2,2c-0.2,0.3-0.3,0.6-0.5,0.8
			c-0.5,0.8-1,1.6-1.5,2.3c-0.1,0.1-0.1,0.2-0.2,0.2c-0.5,0.8-1.1,1.7-1.6,2.5c-0.2,0.2-0.3,0.5-0.5,0.7c-0.4,0.6-0.7,1.1-1.1,1.6
			c-0.2,0.3-0.4,0.6-0.6,0.9c-0.3,0.5-0.7,0.9-1,1.4c-0.2,0.2-0.3,0.5-0.5,0.7c-0.7,1-1.4,2-2.2,2.9c-0.1,0.1-0.1,0.1-0.2,0.2
			c-0.7,0.9-1.4,1.7-2.1,2.6c-0.1,0.2-0.3,0.3-0.4,0.5c-0.6,0.7-1.1,1.3-1.7,2c-0.1,0.1-0.1,0.2-0.2,0.2c-0.5,0.5-1,1.1-1.5,1.6
			c-0.4,0.4-0.7,0.8-1.1,1.1c-0.6,0.6-1.2,1.2-1.9,1.8c-0.2,0.2-0.4,0.4-0.6,0.6c-0.2,0.2-0.5,0.4-0.7,0.6c-0.2,0.2-0.5,0.4-0.7,0.6
			c-0.2,0.2-0.5,0.4-0.7,0.6c-0.2,0.2-0.5,0.4-0.7,0.6c-0.3,0.2-0.5,0.4-0.8,0.6c-0.2,0.2-0.5,0.4-0.7,0.5c-0.3,0.2-0.5,0.4-0.8,0.6
			c-0.2,0.2-0.5,0.3-0.7,0.5c-0.3,0.2-0.7,0.4-1,0.6c-0.2,0.1-0.4,0.3-0.7,0.4c-0.4,0.2-0.7,0.4-1.1,0.6c-0.2,0.1-0.4,0.2-0.6,0.3
			c-0.7,0.4-1.3,0.7-2,1c-0.2,0.1-0.3,0.1-0.5,0.2c-0.6,0.3-1.1,0.5-1.7,0.7c-0.2,0.1-0.3,0.1-0.5,0.2c-0.6,0.3-1.3,0.5-2,0.7
			c-0.1,0-0.1,0-0.2,0.1c-0.6,0.2-1.2,0.4-1.8,0.6c-0.2,0.1-0.4,0.1-0.6,0.2c-0.5,0.1-1,0.2-1.5,0.4c-0.2,0-0.4,0.1-0.6,0.1
			c-0.7,0.1-1.4,0.3-2.1,0.4c-0.8,0.1-1.5,0.2-2.3,0.3c-0.3,0-0.5,0-0.8,0c-0.5,0-1,0.1-1.5,0.1c-0.3,0-0.6,0-0.9,0
			c-0.4,0-0.9,0-1.3,0c-0.3,0-0.6-0.1-0.9-0.1c-0.4,0-0.8-0.1-1.2-0.1c-0.4-0.1-0.9-0.2-1.3-0.2c-0.3-0.1-0.6-0.1-0.9-0.2
			c-0.5-0.1-0.9-0.2-1.4-0.4c-0.2-0.1-0.5-0.1-0.7-0.2c-0.1,0-0.1,0-0.2-0.1c-0.6-0.2-1.2-0.4-1.7-0.6c-0.2-0.1-0.4-0.2-0.6-0.3
			c-0.5-0.2-1.1-0.4-1.6-0.7c-0.7-0.4-1.5-0.7-2.2-1.2c-0.2-0.1-0.5-0.3-0.8-0.4c-0.5-0.3-1.1-0.6-1.6-0.9c-0.4-0.2-0.8-0.5-1.2-0.7
			c-0.3-0.2-0.7-0.4-1-0.7c-0.4-0.3-0.8-0.6-1.3-0.8c-0.3-0.2-0.7-0.5-1.1-0.7c-0.4-0.3-0.9-0.6-1.3-0.9c-0.4-0.3-0.7-0.5-1.1-0.8
			c-0.5-0.3-0.9-0.7-1.4-1.1c-0.4-0.3-0.7-0.5-1.1-0.8c-0.6-0.4-1.1-0.9-1.7-1.3c-0.3-0.2-0.6-0.4-0.8-0.7c-0.9-0.7-1.7-1.4-2.6-2.1
			l37.6,32.7c0.9,0.7,1.8,1.5,2.6,2.1c0.3,0.2,0.6,0.4,0.9,0.7c0.5,0.4,1,0.8,1.5,1.2c0.1,0,0.1,0.1,0.2,0.1
			c0.4,0.3,0.7,0.6,1.1,0.8c0.5,0.4,0.9,0.7,1.4,1c0.4,0.3,0.7,0.5,1.1,0.8c0.4,0.3,0.9,0.6,1.3,0.9c0.4,0.2,0.7,0.5,1.1,0.7
			c0.4,0.3,0.8,0.6,1.2,0.8c0.3,0.2,0.7,0.4,1,0.7c0.3,0.2,0.6,0.4,0.9,0.5c0.1,0.1,0.2,0.1,0.3,0.2c0.5,0.3,1.1,0.6,1.6,0.9
			c0.3,0.1,0.5,0.3,0.8,0.4c0.8,0.4,1.5,0.8,2.2,1.2c0.2,0.1,0.5,0.2,0.7,0.3c0.3,0.1,0.6,0.2,0.9,0.4c0.2,0.1,0.4,0.2,0.6,0.3
			c0.6,0.2,1.2,0.4,1.7,0.6c0.1,0,0.1,0,0.2,0.1c0,0,0,0,0,0c0.2,0.1,0.5,0.1,0.7,0.2c0.5,0.1,0.9,0.3,1.4,0.4
			c0.3,0.1,0.6,0.1,0.9,0.2c0.4,0.1,0.9,0.2,1.3,0.2c0,0,0,0,0.1,0c0.4,0.1,0.8,0.1,1.2,0.1c0.3,0,0.6,0.1,0.9,0.1
			c0.4,0,0.9,0,1.3,0c0.3,0,0.6,0,0.9,0c0.5,0,1,0,1.5-0.1c0.2,0,0.5,0,0.7,0c0.8-0.1,1.5-0.2,2.3-0.3c0.7-0.1,1.4-0.2,2.1-0.4
			c0.2,0,0.4-0.1,0.6-0.1c0.5-0.1,1-0.2,1.5-0.4c0.2-0.1,0.4-0.1,0.6-0.2c0.6-0.2,1.2-0.4,1.8-0.6c0.1,0,0.1,0,0.2-0.1
			c0.7-0.2,1.3-0.5,2-0.7c0.1,0,0.1,0,0.2-0.1c0.1,0,0.2-0.1,0.3-0.1c0.6-0.2,1.1-0.5,1.7-0.7c0.2-0.1,0.3-0.1,0.5-0.2
			c0.7-0.3,1.4-0.7,2-1c0,0,0.1,0,0.1-0.1c0.2-0.1,0.3-0.2,0.5-0.3c0.4-0.2,0.7-0.4,1.1-0.6c0.2-0.1,0.4-0.3,0.7-0.4
			c0.3-0.2,0.7-0.4,1-0.6c0.1-0.1,0.2-0.1,0.3-0.2c0.1-0.1,0.3-0.2,0.4-0.3c0.3-0.2,0.5-0.4,0.8-0.6c0.2-0.2,0.5-0.4,0.7-0.5
			c0.3-0.2,0.5-0.4,0.8-0.6c0.1-0.1,0.3-0.2,0.4-0.3c0.1-0.1,0.2-0.2,0.4-0.3c0.2-0.2,0.5-0.4,0.7-0.6c0.2-0.2,0.5-0.4,0.7-0.6
			c0.2-0.2,0.5-0.4,0.7-0.6c0.1-0.1,0.3-0.2,0.4-0.3c0.1-0.1,0.2-0.2,0.2-0.2c0.6-0.6,1.3-1.2,1.9-1.8c0.3-0.3,0.6-0.6,0.9-0.9
			c0.1-0.1,0.1-0.2,0.2-0.2c0.5-0.5,1-1.1,1.5-1.6c0.1-0.1,0.1-0.2,0.2-0.2c0.6-0.6,1.1-1.3,1.7-2c0.1-0.1,0.1-0.1,0.2-0.2
			c0.1-0.1,0.2-0.2,0.2-0.3c0.7-0.8,1.4-1.7,2.1-2.6c0.1-0.1,0.1-0.1,0.2-0.2c0.7-0.9,1.4-1.9,2.2-2.9c0.1-0.1,0.2-0.2,0.2-0.3
			c0.1-0.1,0.2-0.3,0.3-0.4c0.3-0.5,0.7-0.9,1-1.4C273.8,56.4,274,56.1,274.2,55.8z"/>
		<path fill="#202933" d="M233,86.3c-0.2,0-0.4,0-0.6,0l-0.6,0c-0.4,0-0.8,0-1.1,0c-0.2,0-0.5,0-0.7-0.1l-0.6-0.1
			c-0.3,0-0.6-0.1-1-0.1c0,0-0.1,0-0.1,0c-0.4-0.1-0.7-0.1-1.1-0.2l-0.5-0.1c-0.2,0-0.5-0.1-0.7-0.1c-0.4-0.1-0.8-0.2-1.3-0.3
			l-0.5-0.1c-0.2,0-0.4-0.1-0.6-0.2l0,0c0,0,0,0-0.1,0c-0.1,0-0.1,0-0.2-0.1c-0.6-0.2-1.3-0.4-1.9-0.7c-0.2-0.1-0.3-0.1-0.5-0.2
			l-0.4-0.2c-0.2-0.1-0.5-0.2-0.7-0.3c-0.2-0.1-0.5-0.2-0.7-0.4c-0.7-0.4-1.5-0.8-2.3-1.2c-0.2-0.1-0.3-0.2-0.5-0.3l-0.3-0.2
			c-0.5-0.3-1.1-0.6-1.6-1c-0.2-0.1-0.2-0.1-0.3-0.2c-0.2-0.1-0.4-0.2-0.6-0.4l-0.5-0.3c-0.3-0.2-0.6-0.4-0.9-0.5
			c-0.4-0.2-0.8-0.5-1.1-0.8l-0.4-0.2c-0.3-0.2-0.6-0.4-0.9-0.6c-0.4-0.3-0.8-0.6-1.2-0.9l-0.4-0.3c-0.3-0.2-0.5-0.4-0.8-0.6
			c-0.4-0.3-0.7-0.6-1.1-0.8l-0.6-0.5c-0.3-0.2-0.5-0.4-0.8-0.6l-0.2-0.1c-0.4-0.3-0.8-0.6-1.2-1l-0.6-0.5c-0.2-0.1-0.4-0.3-0.6-0.5
			c-0.9-0.7-1.7-1.4-2.6-2.2l-37.7-32.7c-1-0.9-1.2-2.5-0.3-3.5c0.9-1,2.5-1.2,3.5-0.3c0.9,0.7,1.7,1.4,2.6,2.1l0.8,0.7
			c0.6,0.4,1.1,0.9,1.7,1.3c0.2,0.2,0.5,0.4,0.7,0.5l0.6,0.4c0.4,0.3,0.8,0.6,1.2,0.9c0.2,0.2,0.5,0.4,0.7,0.5l0.4,0.3
			c0.4,0.3,0.8,0.6,1.2,0.8c0.2,0.2,0.5,0.3,0.7,0.5l0.3,0.2c0.5,0.3,0.8,0.6,1.2,0.8c0.2,0.2,0.5,0.3,0.7,0.5l0.3,0.2
			c0.4,0.2,0.7,0.5,1.1,0.7c0.5,0.3,1,0.6,1.5,0.9l0.7,0.4c0.7,0.4,1.4,0.8,2.1,1.1c0.5,0.2,1,0.4,1.5,0.6l0.2,0.1
			c0.1,0,0.2,0.1,0.3,0.1c0.5,0.2,1.1,0.4,1.6,0.6c0,0,0.1,0,0.2,0.1c0.1,0,0.2,0.1,0.3,0.1l0.6,0.2c0.3,0.1,0.7,0.2,1,0.3
			c0.1,0,0.3,0.1,0.4,0.1l0.7,0.1c0.3,0.1,0.6,0.1,0.9,0.2c0.3,0,0.5,0.1,0.8,0.1l0.7,0.1c0.2,0,0.3,0,0.5,0c0.3,0,0.6,0,0.9,0
			l0.7,0c0.1,0,0.3,0,0.4,0c0.4,0,0.8,0,1.2-0.1l0.6,0c0.1,0,0.2,0,0.3,0c0.7-0.1,1.4-0.1,2.1-0.3c0.7-0.1,1.3-0.2,1.9-0.4l0.6-0.1
			c0.5-0.1,0.9-0.2,1.4-0.3l0.6-0.2c0.6-0.2,1.1-0.3,1.7-0.5c0,0,0.1,0,0.1,0c0.7-0.2,1.3-0.4,1.9-0.7l0.5-0.2
			c0.5-0.2,1.1-0.4,1.6-0.7l0.5-0.2c0.6-0.3,1.3-0.6,1.9-1l0.5-0.3c0.3-0.2,0.7-0.4,1-0.6l0.6-0.4c0.3-0.2,0.6-0.4,0.9-0.6
			c0.2-0.1,0.5-0.3,0.7-0.5c0.2-0.2,0.5-0.3,0.8-0.5c0.2-0.2,0.5-0.3,0.7-0.5c0.3-0.2,0.5-0.4,0.7-0.6c0.2-0.2,0.5-0.4,0.7-0.5
			c0.2-0.2,0.5-0.4,0.7-0.6c0.2-0.2,0.5-0.4,0.7-0.6c0.2-0.2,0.5-0.4,0.7-0.6l0.6-0.5c0.6-0.6,1.2-1.1,1.8-1.7
			c0.3-0.4,0.7-0.7,1.1-1.1c0.5-0.5,0.9-1,1.4-1.5l0.2-0.2c0.5-0.6,1.1-1.3,1.6-1.9l0.4-0.5c0.7-0.8,1.3-1.6,2-2.5l0.1-0.1
			c0.8-1,1.5-1.9,2.2-2.9l0.5-0.7c0.3-0.5,0.7-0.9,1-1.4l0.6-0.9c0.4-0.5,0.7-1.1,1.1-1.6l0.5-0.7c0.5-0.8,1.1-1.6,1.6-2.4l0.2-0.2
			c0.5-0.7,1-1.5,1.4-2.3l0.5-0.8c0.4-0.7,0.8-1.3,1.2-2l0.6-1c0.4-0.6,0.7-1.3,1.1-1.9l0.6-1.1c0.4-0.7,0.8-1.4,1.2-2.1l0.5-1
			c0.6-1,1.1-2.1,1.7-3.2c0.4-0.7,1-1.1,1.8-1.3c0.7-0.1,1.5,0.1,2.1,0.6l37.6,32.7c0.9,0.8,1.1,2.1,0.5,3.1
			c-0.6,1.1-1.2,2.1-1.7,3.2l-0.6,1c-0.4,0.7-0.8,1.4-1.2,2.1l-0.6,1.1c-0.4,0.7-0.8,1.3-1.1,1.9l-0.6,1.1c-0.4,0.7-0.8,1.4-1.2,2
			l-0.5,0.8c-0.5,0.9-1,1.7-1.5,2.5l-0.1,0.2c-0.5,0.9-1.1,1.7-1.6,2.5l-0.5,0.7c-0.4,0.6-0.8,1.1-1.1,1.7l-0.6,0.9
			c-0.3,0.5-0.7,1-1,1.4l-0.5,0.7c-0.7,1-1.5,2-2.2,3l-0.2,0.2c-0.7,0.9-1.4,1.8-2.1,2.6l-0.3,0.4c-0.6,0.8-1.2,1.4-1.8,2.1
			l-0.2,0.2c-0.5,0.6-1,1.1-1.5,1.7l-0.2,0.2c-0.3,0.3-0.6,0.6-0.9,0.9c-0.6,0.7-1.3,1.3-2,1.9l-0.6,0.6c-0.3,0.2-0.5,0.5-0.8,0.7
			c-0.3,0.2-0.5,0.4-0.8,0.6c-0.3,0.2-0.5,0.4-0.8,0.6l-0.8,0.6c-0.3,0.2-0.5,0.4-0.8,0.6c-0.3,0.2-0.5,0.4-0.8,0.6
			c-0.3,0.2-0.6,0.4-0.8,0.6l-0.7,0.5c-0.4,0.2-0.7,0.5-1.1,0.7c-0.2,0.2-0.5,0.3-0.7,0.4c-0.4,0.2-0.8,0.4-1.1,0.7l-0.2,0.1
			c-0.1,0.1-0.2,0.1-0.3,0.2c0,0-0.1,0.1-0.2,0.1c-0.7,0.4-1.4,0.7-2.1,1.1l-0.5,0.2c-0.6,0.3-1.2,0.5-1.8,0.8
			c-0.2,0.1-0.2,0.1-0.3,0.1l-0.2,0.1c-0.7,0.3-1.4,0.5-2.1,0.8c0,0-0.1,0-0.2,0c-0.7,0.2-1.3,0.4-2,0.6l-0.7,0.2
			c-0.5,0.1-1,0.3-1.6,0.4l-0.6,0.1c-0.7,0.2-1.5,0.3-2.2,0.4c-0.8,0.1-1.6,0.2-2.5,0.3c-0.2,0-0.4,0-0.5,0l-0.4,0
			c-0.5,0-1,0.1-1.5,0.1C233.1,86.3,233,86.3,233,86.3z M229.1,81.1c0.2,0,0.4,0,0.7,0.1l0.8,0.1c0.2,0,0.3,0,0.5,0
			c0.3,0,0.6,0,0.9,0l0.7,0c0.1,0,0.2,0,0.4,0v2.5l0-2.5c0.4,0,0.8,0,1.2-0.1l0.2,0c0.1,0,0.3,0,0.4,0c0.1,0,0.2,0,0.3,0
			c0.7-0.1,1.4-0.1,2.1-0.3c0.7-0.1,1.3-0.2,1.9-0.4l0.6-0.1c0.5-0.1,0.9-0.2,1.4-0.3l0.6-0.2c0.6-0.2,1.1-0.3,1.7-0.5
			c0,0,0.1,0,0.1,0c0.6-0.2,1.2-0.4,1.8-0.7l0.2-0.1c0.1-0.1,0.2-0.1,0.3-0.1c0.5-0.2,1.1-0.5,1.6-0.7l0.4-0.2
			c0.6-0.3,1.3-0.6,1.9-1c0,0,0.1-0.1,0.1-0.1l0.4-0.2c0.3-0.2,0.7-0.4,1-0.6c0.2-0.1,0.4-0.2,0.6-0.4c0.4-0.2,0.7-0.4,1-0.6
			l0.7-0.5c0.2-0.2,0.5-0.3,0.7-0.5c0.2-0.2,0.5-0.3,0.7-0.5c0.3-0.2,0.5-0.4,0.8-0.6l0.7-0.5c0.2-0.2,0.5-0.4,0.7-0.6
			c0.2-0.2,0.5-0.4,0.7-0.6c0.2-0.2,0.5-0.4,0.7-0.6l0.6-0.5c0.6-0.6,1.2-1.1,1.8-1.7c0.3-0.3,0.6-0.6,0.8-0.9l0.2-0.2
			c0.5-0.5,1-1,1.4-1.6l0.2-0.2c0.5-0.6,1.1-1.2,1.6-1.9l0.4-0.5c0.7-0.8,1.3-1.6,2-2.5l0.1-0.1c0.8-1,1.5-1.9,2.2-2.9l0.5-0.7
			c0.3-0.5,0.7-0.9,1-1.4l0.6-0.9c0.4-0.5,0.7-1.1,1.1-1.6l0.5-0.7c0.5-0.8,1.1-1.6,1.6-2.4l0.1-0.2c0.5-0.8,1-1.5,1.5-2.3
			c0,0,0.1-0.1,0.1-0.1l0.4-0.7c0.4-0.7,0.8-1.3,1.2-2l0.6-1c0.4-0.6,0.7-1.3,1.1-1.9l0.6-1.1c0.4-0.7,0.8-1.4,1.2-2.1l0.6-1
			c0.3-0.5,0.5-0.9,0.8-1.4L249.7,6.4c-0.1,0.2-0.2,0.3-0.3,0.5l-0.6,1c-0.4,0.7-0.8,1.4-1.2,2.1l-0.6,1.1c-0.4,0.7-0.8,1.3-1.1,2
			l-0.6,1.1c-0.4,0.7-0.8,1.4-1.2,2l-0.5,0.8c-0.5,0.8-1,1.6-1.5,2.4l-0.2,0.2c-0.6,0.9-1.1,1.7-1.6,2.5l-0.5,0.7
			c-0.4,0.6-0.8,1.1-1.1,1.7l-0.6,0.9c-0.3,0.5-0.7,1-1,1.4l-0.5,0.7c-0.7,1-1.5,2-2.2,3l-0.2,0.2c-0.7,0.9-1.4,1.8-2.1,2.6
			l-0.4,0.5c-0.6,0.7-1.2,1.4-1.7,2l-0.2,0.2c-0.5,0.6-1,1.1-1.5,1.7c-0.4,0.4-0.8,0.8-1.1,1.2c-0.7,0.7-1.3,1.3-2,1.9l-0.6,0.6
			c-0.3,0.2-0.5,0.5-0.8,0.7c-0.3,0.2-0.5,0.4-0.8,0.6c-0.3,0.2-0.5,0.4-0.8,0.6c-0.3,0.2-0.5,0.4-0.8,0.6c-0.3,0.2-0.6,0.4-0.8,0.6
			c-0.3,0.2-0.5,0.4-0.8,0.6c-0.3,0.2-0.6,0.4-0.8,0.6c-0.3,0.2-0.5,0.3-0.8,0.5c-0.4,0.2-0.7,0.5-1.1,0.7l-0.2,0.1
			c-0.2,0.1-0.4,0.2-0.5,0.3c-0.4,0.2-0.8,0.4-1.1,0.7l-0.6,0.3c-0.7,0.4-1.4,0.7-2.1,1.1l-0.5,0.2c-0.6,0.3-1.2,0.5-1.8,0.8
			l-0.5,0.2c-0.7,0.3-1.4,0.5-2.1,0.8l-0.2,0.1c-0.7,0.2-1.3,0.4-2,0.6l-0.7,0.2c-0.5,0.1-1,0.3-1.6,0.4l-0.6,0.1
			c-0.7,0.2-1.4,0.3-2.2,0.4c-0.8,0.1-1.6,0.2-2.5,0.3c-0.2,0-0.4,0-0.6,0l-0.5,0c-0.5,0-0.9,0.1-1.4,0.1c-0.3,0-0.5,0-0.7,0l-0.6,0
			c-0.4,0-0.8,0-1.2,0c-0.2,0-0.5,0-0.7-0.1l-0.6-0.1c-0.4,0-0.7-0.1-1-0.1c-0.4-0.1-0.7-0.1-1.1-0.2L189,53c-0.2,0-0.4-0.1-0.7-0.1
			c-0.2-0.1-0.5-0.1-0.7-0.2l15.1,13.2c0.8,0.7,1.7,1.4,2.5,2.1l1.1,0.9c0.4,0.3,0.8,0.6,1.2,0.9l0.2,0.1c0.2,0.2,0.5,0.4,0.7,0.5
			l0.6,0.5c0.4,0.3,0.7,0.5,1.1,0.8c0.3,0.2,0.5,0.4,0.8,0.5l0.4,0.3c0.4,0.3,0.8,0.6,1.2,0.8c0.3,0.2,0.5,0.4,0.8,0.5l0.4,0.3
			c0.4,0.2,0.7,0.5,1.1,0.7c0.3,0.2,0.5,0.3,0.8,0.5l0.6,0.4c0.2,0.1,0.3,0.2,0.5,0.3l0.3,0.2c0.5,0.3,1,0.6,1.5,0.9l0.3,0.2
			c0.1,0.1,0.3,0.2,0.4,0.2c0.7,0.4,1.4,0.8,2.1,1.1c0.2,0.1,0.4,0.2,0.6,0.3c0.2,0.1,0.3,0.1,0.5,0.2l0.5,0.2
			c0.1,0,0.2,0.1,0.3,0.1c0.5,0.2,1.1,0.4,1.6,0.6c0,0,0.2,0.1,0.2,0.1c0,0,0,0,0.1,0c0.1,0,0.2,0,0.2,0.1c0.1,0,0.2,0.1,0.4,0.1
			l0.3,0.1c0.3,0.1,0.7,0.2,1,0.3c0.1,0,0.3,0.1,0.4,0.1l0.7,0.1C228.5,81,228.8,81,229.1,81.1C229.1,81.1,229.1,81.1,229.1,81.1z"
			/>
	</g>
	<g>
		<path fill="#00A796" d="M144.7,45.9c0.3,0,0.6-0.1,0.9-0.1c0.5,0,1-0.1,1.5-0.1c0.3,0,0.6,0,1-0.1c0.5,0,1,0,1.5-0.1
			c0.3,0,0.6,0,0.9,0c0.5,0,1,0,1.5,0c0.3,0,0.5,0,0.8,0c0.7,0,1.3,0,2,0.1c0.1,0,0.2,0,0.3,0c0.8,0,1.5,0.1,2.2,0.2
			c0.2,0,0.4,0,0.7,0.1c0.5,0.1,1,0.1,1.5,0.2c0.3,0,0.6,0.1,0.9,0.1c0.3,0.1,0.7,0.1,1,0.2c0.3,0.1,0.6,0.1,1,0.2
			c0.3,0.1,0.7,0.1,1,0.2c0.3,0.1,0.6,0.1,0.9,0.2c0.3,0.1,0.6,0.2,1,0.2c0.3,0.1,0.6,0.2,0.9,0.2c0.3,0.1,0.6,0.2,0.9,0.3
			c0.2,0.1,0.5,0.1,0.7,0.2c0.5,0.2,1.1,0.4,1.6,0.5c0.2,0.1,0.4,0.1,0.6,0.2c0.7,0.3,1.4,0.5,2.1,0.8c0.9,0.4,1.8,0.8,2.7,1.3
			c0.3,0.2,0.6,0.3,0.9,0.5c1.1,0.5,2.1,1.1,3.2,1.6c0.1,0.1,0.2,0.1,0.3,0.2c1,0.5,1.9,1.1,2.9,1.6c0.4,0.2,0.7,0.4,1.1,0.6
			c0.7,0.4,1.4,0.8,2.1,1.3c0.6,0.4,1.2,0.7,1.7,1.1c0.6,0.4,1.2,0.8,1.9,1.2c0.6,0.4,1.2,0.8,1.8,1.2c0.6,0.4,1.3,0.9,1.9,1.3
			c0.6,0.4,1.2,0.8,1.8,1.3c0.6,0.5,1.3,0.9,1.9,1.4c0.6,0.4,1.2,0.9,1.8,1.4c0.9,0.7,1.9,1.5,2.9,2.2L163.5,35
			c-0.6-0.5-1.2-1-1.9-1.5c-0.3-0.3-0.7-0.5-1-0.7c-0.6-0.5-1.2-0.9-1.8-1.4c-0.6-0.5-1.3-0.9-1.9-1.4c-0.6-0.4-1.2-0.9-1.8-1.3
			c-0.6-0.4-1.3-0.9-1.9-1.3c-0.6-0.4-1.2-0.8-1.8-1.2c-0.6-0.4-1.2-0.8-1.9-1.2c-0.6-0.4-1.2-0.7-1.7-1.1c-0.3-0.2-0.5-0.3-0.8-0.5
			c-0.5-0.3-0.9-0.5-1.4-0.8c-0.4-0.2-0.7-0.4-1.1-0.6c-1-0.6-2-1.1-2.9-1.7c-0.1-0.1-0.2-0.1-0.3-0.2c-1.1-0.6-2.1-1.1-3.2-1.6
			c-0.3-0.2-0.6-0.3-0.9-0.5c-0.5-0.2-1-0.5-1.5-0.7c-0.4-0.2-0.8-0.4-1.2-0.6c-0.7-0.3-1.4-0.6-2.1-0.8c-0.2-0.1-0.4-0.2-0.6-0.2
			c-0.5-0.2-1.1-0.4-1.6-0.5c-0.1,0-0.3-0.1-0.4-0.1c-0.1,0-0.2-0.1-0.3-0.1c-0.3-0.1-0.6-0.2-0.9-0.3c-0.3-0.1-0.6-0.2-0.9-0.2
			c-0.3-0.1-0.6-0.2-1-0.2c-0.3-0.1-0.6-0.1-0.9-0.2c-0.3-0.1-0.7-0.1-1-0.2c-0.3-0.1-0.6-0.1-0.9-0.2c-0.3-0.1-0.7-0.1-1-0.2
			c-0.2,0-0.5-0.1-0.7-0.1c-0.1,0-0.2,0-0.3,0c-0.5-0.1-1-0.1-1.5-0.2c-0.2,0-0.4-0.1-0.7-0.1c-0.7-0.1-1.5-0.1-2.2-0.2
			c-0.1,0-0.2,0-0.3,0c-0.6,0-1.3-0.1-2-0.1c-0.3,0-0.5,0-0.8,0c-0.5,0-1,0-1.5,0c-0.3,0-0.6,0-0.9,0c-0.5,0-1,0-1.5,0.1
			c-0.3,0-0.6,0-1,0.1c-0.5,0-1,0.1-1.5,0.1c-0.3,0-0.6,0.1-0.9,0.1c-0.6,0.1-1.1,0.1-1.7,0.2c-0.3,0-0.5,0.1-0.8,0.1
			c-0.8,0.1-1.7,0.2-2.6,0.4l37.6,32.7c0.9-0.1,1.7-0.3,2.6-0.4c0.3,0,0.5-0.1,0.8-0.1C143.6,46,144.2,46,144.7,45.9z"/>
		<path fill="#202933" d="M201.2,70.3c-0.5,0-1.1-0.2-1.6-0.5c-0.9-0.8-1.9-1.5-2.8-2.2c-0.6-0.5-1.2-0.9-1.8-1.4
			c-0.6-0.5-1.3-0.9-1.9-1.4c-0.6-0.4-1.2-0.9-1.8-1.3c-0.6-0.4-1.2-0.9-1.9-1.3c-0.6-0.4-1.2-0.8-1.7-1.2c-0.6-0.4-1.2-0.8-1.8-1.2
			c-0.6-0.4-1.1-0.7-1.7-1.1c-0.7-0.4-1.4-0.9-2.1-1.3l-1-0.6c-1-0.6-1.9-1.1-2.9-1.6l-0.3-0.2c-1-0.6-2.1-1.1-3.1-1.6
			c-0.2-0.1-0.4-0.2-0.6-0.3l-0.3-0.2c-0.9-0.4-1.8-0.9-2.7-1.2c-0.6-0.3-1.3-0.5-2-0.8l-0.6-0.2c-0.5-0.2-1-0.4-1.5-0.5l-0.7-0.2
			c-0.3-0.1-0.6-0.2-0.9-0.2l-0.2,0c-0.2-0.1-0.5-0.1-0.7-0.2c-0.3-0.1-0.5-0.1-0.8-0.2l-0.2-0.1c-0.3-0.1-0.5-0.1-0.8-0.2
			c-0.3-0.1-0.6-0.1-0.9-0.2c-0.3-0.1-0.6-0.1-0.9-0.2c-0.3,0-0.5-0.1-0.8-0.1l-0.3,0c-0.2,0-0.5-0.1-0.7-0.1
			c-0.5-0.1-1-0.1-1.5-0.2l-0.6-0.1c-0.7-0.1-1.4-0.1-2.1-0.2l-0.3,0c-0.6,0-1.2-0.1-1.9-0.1l-1.4,0c-0.3,0-0.6,0-0.8,0l-0.9,0
			c-0.5,0-1,0-1.4,0.1c-0.3,0-0.6,0-0.9,0.1c-0.5,0-1,0.1-1.5,0.1c-0.3,0-0.6,0-0.9,0.1c-0.5,0.1-1.1,0.1-1.7,0.2l-0.8,0.1
			c-0.8,0.1-1.7,0.2-2.5,0.3c-0.7,0.1-1.5-0.1-2-0.6l-37.6-32.7c-0.7-0.6-1-1.6-0.8-2.6c0.3-0.9,1.1-1.6,2-1.8
			c0.9-0.1,1.8-0.3,2.6-0.4l0.8-0.1c0.6-0.1,1.2-0.1,1.7-0.2l1-0.1c0.5,0,1.1-0.1,1.6-0.1c0.3,0,0.7,0,1-0.1c0.5,0,1,0,1.5-0.1
			l0.2,0c0.3,0,0.5,0,0.8,0c0.3,0,0.6,0,0.9,0l1.5,0c0.7,0,1.4,0,2,0.1l0.4,0c0.8,0,1.5,0.1,2.3,0.2l0.7,0.1
			c0.5,0.1,1.1,0.1,1.6,0.2l0.3,0c0.1,0,0.3,0,0.4,0.1l0.4,0.1c0.3,0,0.6,0.1,1,0.2c0.3,0,0.6,0.1,0.9,0.2l0.3,0.1
			c0.3,0.1,0.6,0.1,0.8,0.2c0.3,0.1,0.6,0.1,0.8,0.2l0.3,0.1c0.3,0.1,0.6,0.1,0.9,0.2c0.3,0.1,0.6,0.2,0.8,0.2l0.2,0.1
			c0.3,0.1,0.6,0.2,0.9,0.3l0.3,0.1c0.1,0,0.2,0.1,0.3,0.1l0.1,0c0.6,0.2,1.1,0.4,1.7,0.6l0.7,0.2c0.7,0.3,1.5,0.6,2.2,0.9
			c0.4,0.2,0.8,0.4,1.3,0.6c0.4,0.2,0.7,0.3,1.1,0.5l0.8,0.4c0.2,0.1,0.4,0.2,0.6,0.3c1.1,0.5,2.2,1.1,3.3,1.7l0.3,0.2
			c1,0.5,2,1.1,3,1.7c0.3,0.1,0.5,0.3,0.8,0.4l0.8,0.5c0.3,0.2,0.6,0.4,0.9,0.6c0.1,0.1,0.3,0.2,0.5,0.3l0.3,0.2
			c0.6,0.4,1.2,0.7,1.8,1.1c0.6,0.4,1.3,0.8,1.9,1.2c0.6,0.4,1.2,0.8,1.8,1.2c0.6,0.4,1.3,0.9,1.9,1.3c0.6,0.4,1.2,0.9,1.8,1.3
			c0.6,0.5,1.3,0.9,1.9,1.4c0.6,0.5,1.2,0.9,1.8,1.4l0.4,0.3c0.2,0.1,0.4,0.3,0.6,0.5c0.6,0.5,1.3,1,1.9,1.5c0,0,0.1,0,0.1,0.1
			l37.4,32.6c0.6,0.5,1.1,1.2,1.1,2C203.7,69.1,202.6,70.3,201.2,70.3C201.2,70.3,201.2,70.3,201.2,70.3z M151.5,43.1l1.5,0
			c0.7,0,1.4,0,2,0.1l0.4,0c0.8,0,1.6,0.1,2.3,0.2c0.1,0,0.3,0,0.5,0l0.2,0c0.5,0.1,1.1,0.1,1.6,0.2c0.3,0,0.5,0.1,0.8,0.1l0.3,0
			c0.3,0,0.6,0.1,0.9,0.1c0.3,0.1,0.7,0.1,1,0.2c0.4,0.1,0.7,0.1,1,0.2c0.3,0.1,0.6,0.1,0.9,0.2l0.2,0.1c0.3,0.1,0.6,0.1,0.9,0.2
			c0.3,0.1,0.5,0.1,0.8,0.2l0.2,0c0.3,0.1,0.7,0.2,1,0.3l0.7,0.2c0.6,0.2,1.1,0.4,1.7,0.6l0.7,0.2c0.7,0.3,1.5,0.6,2.2,0.9
			c0.4,0.2,0.7,0.3,1.1,0.5L161.9,37c-0.6-0.5-1.2-1-1.8-1.4c-0.2-0.1-0.4-0.3-0.5-0.4l-0.4-0.3c-0.6-0.5-1.2-0.9-1.8-1.4
			c-0.6-0.5-1.3-0.9-1.9-1.4c-0.6-0.4-1.2-0.8-1.8-1.3c-0.6-0.4-1.2-0.9-1.9-1.3c-0.6-0.4-1.2-0.8-1.7-1.2c-0.6-0.4-1.2-0.8-1.8-1.2
			c-0.6-0.4-1.1-0.7-1.7-1.1l-0.7-0.5c-0.3-0.2-0.6-0.3-0.8-0.5l-0.8-0.5c-0.2-0.1-0.5-0.3-0.7-0.4c-1-0.6-1.9-1.1-2.9-1.6l-0.3-0.2
			c-1-0.6-2.1-1.1-3.1-1.6l-1.4-0.7c-0.3-0.2-0.7-0.3-1-0.5c-0.4-0.2-0.8-0.4-1.2-0.5c-0.6-0.3-1.3-0.5-2-0.8l-0.6-0.2
			c-0.5-0.2-1-0.4-1.5-0.5l-0.6-0.2c-0.3-0.1-0.5-0.2-0.8-0.2l-0.2-0.1c-0.2-0.1-0.5-0.1-0.7-0.2c-0.3-0.1-0.5-0.1-0.8-0.2l-0.2-0.1
			c-0.3-0.1-0.5-0.1-0.8-0.2c-0.2-0.1-0.5-0.1-0.7-0.2l-0.3-0.1c-0.3,0-0.5-0.1-0.8-0.1c-0.3,0-0.6-0.1-0.8-0.1l-1-0.2
			c-0.5-0.1-1-0.1-1.5-0.2l-0.6-0.1c-0.7-0.1-1.4-0.1-2.1-0.2l-0.3,0c-0.6,0-1.2-0.1-1.9-0.1l-1.4,0c-0.3,0-0.6,0-0.9,0l-0.9,0
			c-0.5,0-1,0-1.4,0.1c-0.3,0-0.6,0-0.9,0.1c-0.5,0-1,0.1-1.5,0.1l-0.3,0l32.5,28.3c0.5-0.1,1-0.1,1.5-0.2c0.2,0,0.4,0,0.6-0.1
			l0.3,0c0.6-0.1,1.2-0.1,1.7-0.2c0.3,0,0.7-0.1,1-0.1c0.5,0,1.1-0.1,1.6-0.1c0.3,0,0.7,0,1-0.1c0.5,0,1,0,1.5-0.1l0.2,0
			c0.3,0,0.5,0,0.8,0C150.9,43.1,151.2,43.1,151.5,43.1z"/>
	</g>
	<g>
		<g>
			<path fill="#FDB933" d="M139.7,46.6c12.7-2,23.6-1,32.6,3c9,4,18.7,10,28.9,18.2c7.3,6.1,13.7,10.6,19.1,13.2
				c5.4,2.6,11.2,3.5,17.4,2.5c9.3-1.4,17.7-5.9,25.2-13.5c7.5-7.6,15.4-19.2,23.8-34.7l43.8,13.5c-14.1,28.9-28.9,51.7-44.4,68.4
				c-15.5,16.7-33.9,26.6-55.2,29.9c-12.4,1.9-22.9,0.9-31.6-2.9c-8.7-3.9-18.5-10-29.4-18.4c-8-6-14.7-10.4-20.1-13
				c-5.4-2.6-11-3.5-16.9-2.6c-9.3,1.4-17.7,6.1-25.2,13.8c-7.6,7.8-15.5,19.3-23.7,34.4l-43.7-14C54.5,116.4,69.3,94,84.7,77
				C100,60,118.4,49.9,139.7,46.6z"/>
			<path fill="#202933" d="M83.8,160.9c-0.3,0-0.5,0-0.8-0.1l-43.7-14c-0.7-0.2-1.3-0.7-1.5-1.4c-0.3-0.7-0.2-1.4,0.1-2.1
				c14.4-28,29.5-50.9,44.9-67.9c15.7-17.3,34.7-27.8,56.4-31.2c13.1-2,24.6-1,34,3.2c9.2,4.1,19.1,10.3,29.4,18.5
				c7.2,6.1,13.5,10.4,18.6,12.9c4.9,2.4,10.2,3.2,15.9,2.3c8.7-1.3,16.7-5.7,23.8-12.8c7.3-7.4,15.2-18.9,23.3-34.1
				c0.6-1.1,1.8-1.6,2.9-1.2l43.8,13.5c0.7,0.2,1.3,0.7,1.6,1.4c0.3,0.7,0.3,1.4,0,2.1c-14.1,29-29.2,52.2-44.8,69
				c-15.8,17-34.9,27.3-56.6,30.7c-12.8,2-23.9,0.9-33-3.1c-8.9-3.9-18.9-10.2-29.9-18.7c-7.9-5.9-14.5-10.2-19.7-12.8
				c-4.9-2.4-10.1-3.2-15.4-2.4c-8.7,1.3-16.7,5.8-23.8,13.1c-7.3,7.6-15.2,19-23.3,33.9C85.6,160.4,84.7,160.9,83.8,160.9z
				 M43.7,142.8l38.9,12.5c8-14.4,15.8-25.6,23.1-33.1c7.9-8.1,16.9-13,26.6-14.5c6.3-1,12.5,0,18.3,2.8c5.5,2.7,12.4,7.1,20.5,13.3
				c10.7,8.2,20.4,14.3,28.9,18.1c8.2,3.6,18.4,4.6,30.2,2.7c20.6-3.2,38.7-13,53.8-29.2c14.8-15.9,29.1-37.8,42.7-65.1l-39-12.1
				c-8,14.8-15.8,26-23.2,33.5c-7.9,7.9-16.8,12.7-26.6,14.3c-6.7,1-13,0.1-18.9-2.7c-5.5-2.7-12.1-7.2-19.6-13.5
				c-10-7.9-19.5-13.9-28.3-17.8c-8.5-3.8-19-4.7-31.2-2.8c-20.6,3.2-38.6,13.2-53.5,29.6C71.9,94.8,57.5,116.4,43.7,142.8z"/>
		</g>
	</g>
	<g>
		<path fill="#DA1C5C" d="M45.1,134.9c0.2-0.4,0.4-0.8,0.6-1.2c0.8-1.5,1.6-2.9,2.4-4.4c0.1-0.2,0.3-0.5,0.4-0.7
			c0.7-1.2,1.4-2.4,2.1-3.6c0.2-0.4,0.5-0.8,0.7-1.3c0.7-1.1,1.3-2.2,2-3.3c0.2-0.3,0.3-0.6,0.5-0.9c0.8-1.3,1.6-2.6,2.4-3.9
			c1-1.6,2-3.2,3-4.8c0,0,0,0,0,0c1-1.6,2-3.1,3-4.6c0.3-0.5,0.7-1,1-1.5c0.7-1,1.4-2,2-3c0.4-0.6,0.8-1.1,1.2-1.7
			c0.6-0.9,1.3-1.8,1.9-2.7c0.5-0.7,0.9-1.3,1.4-2c0.4-0.5,0.8-1,1.2-1.6c0.5-0.7,1.1-1.4,1.6-2.1c0.4-0.5,0.7-1,1.1-1.5
			c0.6-0.7,1.1-1.4,1.7-2.1c0.4-0.4,0.7-0.9,1.1-1.3c0.6-0.8,1.2-1.5,1.8-2.3c0.3-0.4,0.6-0.7,0.9-1.1c0.6-0.7,1.2-1.5,1.9-2.2
			c0.3-0.4,0.6-0.7,0.9-1.1c0.9-1.1,1.9-2.1,2.8-3.2c0.8-0.9,1.7-1.8,2.6-2.7c0.4-0.4,0.7-0.7,1.1-1.1c0.6-0.6,1.1-1.1,1.7-1.7
			c0.4-0.4,0.8-0.7,1.2-1.1c0.6-0.5,1.2-1.1,1.8-1.6c0.4-0.3,0.8-0.7,1.2-1c0.6-0.5,1.2-1,1.9-1.6c0.4-0.3,0.7-0.6,1.1-0.9
			c0.6-0.5,1.3-1,1.9-1.5c0.4-0.3,0.8-0.6,1.1-0.9c0.8-0.6,1.6-1.1,2.4-1.7c0.2-0.2,0.5-0.4,0.7-0.5c0.4-0.3,0.8-0.5,1.2-0.8
			c0.7-0.5,1.4-0.9,2.2-1.4c0.5-0.3,0.9-0.5,1.4-0.8c0.7-0.4,1.4-0.8,2.1-1.2c1-0.5,2-1.1,3-1.6c0.3-0.1,0.5-0.2,0.8-0.4
			c0.9-0.4,1.7-0.8,2.6-1.2c0.2-0.1,0.4-0.2,0.7-0.3c1.1-0.5,2.1-0.9,3.2-1.3c0.2-0.1,0.4-0.2,0.7-0.3c0.9-0.4,1.9-0.7,2.9-1
			c0.2-0.1,0.4-0.1,0.6-0.2c1.1-0.4,2.2-0.7,3.3-1c0.3-0.1,0.5-0.1,0.8-0.2c1-0.3,2.1-0.6,3.1-0.8c0.1,0,0.2-0.1,0.4-0.1
			c1.1-0.3,2.3-0.5,3.4-0.8c0.3-0.1,0.5-0.1,0.8-0.2c1.2-0.2,2.3-0.4,3.5-0.6L102,13.9c-1.2,0.2-2.4,0.4-3.5,0.6
			c-0.3,0.1-0.5,0.1-0.8,0.2c-1.1,0.2-2.3,0.5-3.4,0.8c-0.1,0-0.2,0.1-0.4,0.1c-1,0.3-2.1,0.5-3.1,0.8c-0.3,0.1-0.5,0.1-0.8,0.2
			c-1.1,0.3-2.2,0.7-3.3,1c-0.2,0.1-0.4,0.1-0.6,0.2c-1,0.3-1.9,0.7-2.9,1c-0.2,0.1-0.4,0.2-0.7,0.3c-0.1,0.1-0.3,0.1-0.4,0.2
			c-0.9,0.4-1.9,0.8-2.8,1.2c-0.2,0.1-0.4,0.2-0.7,0.3c-0.9,0.4-1.7,0.8-2.6,1.2c-0.3,0.1-0.5,0.2-0.8,0.4c-1,0.5-1.9,1-2.8,1.5
			c-0.1,0-0.1,0.1-0.2,0.1c-0.7,0.4-1.4,0.8-2,1.2c-0.5,0.3-0.9,0.5-1.4,0.8c-0.7,0.4-1.4,0.9-2.2,1.4c-0.4,0.3-0.8,0.5-1.2,0.7
			c0,0,0,0-0.1,0c-0.2,0.2-0.5,0.3-0.7,0.5c-0.8,0.6-1.6,1.1-2.4,1.7c-0.4,0.3-0.8,0.6-1.1,0.9c-0.5,0.4-1.1,0.8-1.6,1.2
			c-0.1,0.1-0.2,0.2-0.4,0.3c-0.4,0.3-0.7,0.6-1.1,0.9c-0.6,0.5-1.2,1-1.9,1.6c-0.4,0.3-0.8,0.7-1.2,1c-0.3,0.3-0.6,0.5-0.9,0.8
			c-0.3,0.2-0.5,0.5-0.8,0.8c-0.4,0.4-0.8,0.7-1.1,1.1c-0.6,0.6-1.2,1.1-1.7,1.7c-0.4,0.4-0.7,0.7-1.1,1.1c-0.1,0.2-0.3,0.3-0.4,0.5
			c-0.7,0.7-1.4,1.5-2.1,2.3c-0.9,1-1.9,2.1-2.8,3.2c-0.3,0.4-0.6,0.7-0.9,1.1c-0.6,0.7-1.2,1.3-1.7,2c0,0.1-0.1,0.1-0.1,0.2
			c-0.3,0.4-0.6,0.7-0.9,1.1c-0.6,0.7-1.2,1.5-1.8,2.3c-0.4,0.4-0.7,0.9-1.1,1.4c-0.6,0.7-1.1,1.4-1.7,2.1c-0.4,0.5-0.8,1-1.1,1.5
			c-0.5,0.7-1.1,1.4-1.6,2.1c-0.4,0.5-0.8,1-1.2,1.6c-0.3,0.4-0.6,0.8-0.9,1.2c-0.2,0.3-0.4,0.5-0.6,0.8c-0.6,0.9-1.3,1.8-1.9,2.7
			c-0.4,0.6-0.8,1.1-1.2,1.7c-0.7,1-1.4,2-2,3c-0.3,0.5-0.7,1-1,1.5c-1,1.5-2,3.1-3,4.6c0,0,0,0,0,0c-1,1.6-2,3.1-3,4.7
			c-0.1,0.1-0.1,0.2-0.2,0.3c-0.7,1.2-1.5,2.4-2.2,3.6c-0.2,0.3-0.3,0.6-0.5,0.9c-0.7,1.1-1.3,2.2-2,3.3c-0.2,0.4-0.5,0.8-0.7,1.3
			c-0.7,1.2-1.4,2.4-2.1,3.6c-0.1,0.2-0.3,0.5-0.4,0.7c-0.8,1.4-1.6,2.9-2.4,4.4c-0.2,0.4-0.4,0.8-0.6,1.2c-0.6,1.2-1.2,2.3-1.9,3.5
			c-0.2,0.4-0.5,0.9-0.7,1.3c-0.8,1.5-1.6,3.1-2.4,4.6l0,0l0,0l37.6,32.7c0.8-1.6,1.6-3.1,2.4-4.6c0.2-0.4,0.5-0.9,0.7-1.3
			C43.9,137.2,44.5,136.1,45.1,134.9z"/>
		<path fill="#202933" d="M40.1,146.8c-0.6,0-1.2-0.2-1.6-0.6L0.9,113.5c-0.9-0.8-1.1-2-0.6-3c0.8-1.6,1.6-3.1,2.4-4.7l0.7-1.3
			c0.6-1.2,1.3-2.3,1.9-3.5l0.6-1.2c0.8-1.5,1.6-3,2.4-4.4l0.4-0.7c0.7-1.2,1.4-2.4,2.1-3.6l0.7-1.3c0.7-1.1,1.3-2.3,2-3.4l0.5-0.9
			c0.7-1.2,1.5-2.4,2.2-3.6l0.2-0.3c1-1.6,2-3.2,3-4.8c1-1.6,2-3.2,3.1-4.7l1-1.5c0.7-1,1.4-2,2.1-3c0.3-0.4,0.6-0.9,0.9-1.3
			l0.2-0.3c0.6-0.9,1.3-1.8,1.9-2.7l0.6-0.8c0.2-0.2,0.4-0.5,0.5-0.7l0.3-0.4c0.4-0.5,0.8-1.1,1.2-1.6c0.5-0.7,1.1-1.4,1.6-2.1
			l0.2-0.3c0.3-0.4,0.6-0.8,0.9-1.2c0.6-0.7,1.1-1.4,1.7-2.1l0.3-0.4c0.2-0.3,0.5-0.6,0.7-0.9c0.6-0.8,1.2-1.5,1.9-2.3l1-1.3
			c0.5-0.5,0.9-1.1,1.4-1.6l0.8-0.9c0.2-0.2,0.4-0.5,0.6-0.7c0.9-1.1,1.9-2.2,2.9-3.2c0.7-0.8,1.4-1.6,2.1-2.3l0.5-0.5
			c0.3-0.3,0.6-0.6,0.9-0.9l0.2-0.2c0.6-0.6,1.2-1.2,1.8-1.7c0.4-0.4,0.8-0.7,1.2-1.1l0.3-0.3c0.2-0.2,0.3-0.3,0.5-0.5
			c0.2-0.2,0.4-0.4,0.6-0.5l0.4-0.3c0.4-0.4,0.8-0.7,1.2-1c0.6-0.5,1.3-1.1,1.9-1.6l0.3-0.3c0.3-0.2,0.5-0.4,0.8-0.6l0.4-0.3
			c0.4-0.3,0.8-0.6,1.2-0.9l0.9-0.7c0.2-0.2,0.5-0.4,0.7-0.6c0.8-0.6,1.6-1.2,2.5-1.7l0.3-0.2c0.2-0.1,0.3-0.2,0.5-0.3
			c0.3-0.2,0.6-0.4,0.8-0.5l0.7-0.5c0.6-0.4,1.3-0.8,1.9-1.2c0.3-0.2,0.6-0.4,0.9-0.6l0.9-0.5c0.6-0.3,1.1-0.7,1.7-1l0.2-0.1
			c1-0.5,2-1,2.9-1.5l0.8-0.4c0.9-0.4,1.8-0.9,2.7-1.3l0.7-0.3c0.9-0.4,1.9-0.8,2.9-1.2l1.1-0.4c1-0.4,1.9-0.7,2.9-1.1l0.6-0.2
			c1.1-0.4,2.2-0.7,3.4-1.1l0.8-0.2c1-0.3,2.1-0.6,3.2-0.8l0.4-0.1c1.1-0.3,2.2-0.5,3.5-0.8L98,12c1.4-0.3,2.5-0.5,3.6-0.6
			c0.7-0.1,1.5,0.1,2,0.6l37.6,32.7c0.7,0.6,1,1.6,0.8,2.6c-0.3,0.9-1.1,1.6-2,1.8c-1,0.2-2.1,0.4-3.4,0.6l-0.8,0.2
			c-1.2,0.3-2.3,0.5-3.3,0.7l-0.4,0.1c-1,0.2-2,0.5-3,0.8l-0.7,0.2c-1.1,0.3-2.2,0.7-3.2,1l-0.5,0.2c-0.9,0.3-1.9,0.7-2.8,1
			l-0.6,0.2c-1,0.4-2.1,0.8-3.1,1.3l-0.6,0.3c-0.8,0.4-1.7,0.8-2.5,1.2l-0.7,0.4c-1,0.5-2,1-2.9,1.5c-0.5,0.3-1.1,0.6-1.6,0.9
			l-1,0.6c-0.3,0.2-0.5,0.3-0.8,0.5c-0.6,0.4-1.2,0.8-1.8,1.2l-0.8,0.5c-0.2,0.1-0.5,0.3-0.7,0.4c-0.1,0.1-0.2,0.2-0.4,0.3l-0.4,0.3
			c-0.8,0.5-1.6,1.1-2.3,1.6c-0.2,0.2-0.5,0.3-0.7,0.5l-0.4,0.3c-0.6,0.5-1.3,1-1.9,1.5c-0.3,0.2-0.5,0.4-0.8,0.6l-0.3,0.2
			c-0.6,0.5-1.2,1-1.8,1.5c-0.4,0.3-0.7,0.6-1,0.9l-0.1,0.1c-0.6,0.5-1.1,1-1.7,1.6c-0.4,0.3-0.7,0.7-1.1,1.1
			c-0.6,0.5-1.1,1.1-1.7,1.7l-0.2,0.2c-0.3,0.3-0.6,0.6-0.8,0.9c-0.8,0.9-1.7,1.7-2.5,2.7c-0.9,1-1.9,2.1-2.8,3.1l-1.1,1.3
			c-0.5,0.6-1.1,1.3-1.6,1.9l-0.9,1.1c-0.6,0.7-1.2,1.5-1.8,2.2c-0.2,0.3-0.5,0.6-0.7,0.9l-0.3,0.4c-0.5,0.7-1.1,1.4-1.6,2.1
			c-0.3,0.4-0.6,0.8-0.9,1.2l-0.2,0.3c-0.5,0.7-1,1.4-1.6,2.1c-0.4,0.5-0.8,1-1.1,1.6c-0.5,0.6-0.9,1.3-1.4,1.9
			c-0.6,0.9-1.2,1.8-1.9,2.6l-0.2,0.3c-0.3,0.4-0.6,0.9-0.9,1.4c-0.7,1-1.4,2-2,3l-1,1.4c-1,1.5-2,3-3,4.6c0,0,0,0,0,0
			c-1,1.5-2,3.1-2.9,4.7c-0.8,1.3-1.6,2.6-2.4,3.9l-0.5,0.9c-0.7,1.1-1.3,2.2-2,3.3l-0.7,1.3c-0.7,1.2-1.4,2.4-2,3.6l-0.4,0.7
			c-0.8,1.4-1.6,2.9-2.4,4.4l-0.6,1.2c-0.6,1.1-1.2,2.3-1.9,3.5l-0.7,1.3c-0.8,1.5-1.6,3.1-2.4,4.6c-0.4,0.7-1,1.2-1.8,1.3
			C40.4,146.8,40.3,146.8,40.1,146.8z M5.6,111l33.8,29.3c0.3-0.6,0.6-1.2,1-1.8l0.7-1.3c0.6-1.2,1.2-2.3,1.9-3.5l0.6-1.2
			c0.8-1.5,1.6-3,2.4-4.4l0.4-0.7c0.7-1.2,1.4-2.4,2.1-3.6l0.7-1.3c0.7-1.1,1.3-2.3,2-3.4l0.5-0.9c0.8-1.3,1.6-2.7,2.4-4
			c1-1.6,2-3.2,3-4.8c0,0,0,0,0,0c1-1.6,2-3.1,3-4.6l1-1.5c0.7-1,1.4-2,2.1-3c0.3-0.5,0.6-0.9,1-1.4l0.2-0.3
			c0.6-0.9,1.3-1.8,1.9-2.7c0.5-0.7,1-1.3,1.4-2c0.4-0.5,0.8-1.1,1.2-1.6c0.5-0.7,1.1-1.4,1.6-2.1l0.2-0.3c0.3-0.4,0.6-0.8,0.9-1.2
			c0.6-0.7,1.1-1.4,1.7-2.1l0.3-0.4c0.2-0.3,0.5-0.6,0.7-0.9c0.6-0.8,1.2-1.5,1.9-2.3l0.9-1.1c0.6-0.7,1.1-1.3,1.7-2l0.6-0.7
			c0.2-0.2,0.4-0.4,0.6-0.6c1-1.1,1.9-2.2,2.9-3.2c0.9-0.9,1.7-1.9,2.6-2.8c0.3-0.3,0.6-0.6,0.9-0.9l0.2-0.2
			c0.6-0.6,1.2-1.2,1.8-1.7c0.4-0.4,0.8-0.7,1.2-1.1c0.6-0.6,1.2-1.1,1.8-1.6l0.1-0.1c0.4-0.3,0.7-0.6,1.1-1
			c0.6-0.5,1.3-1.1,1.9-1.6l0.3-0.2c0.3-0.2,0.6-0.5,0.9-0.7c0.7-0.5,1.3-1,2-1.5l0.4-0.3c0.3-0.2,0.5-0.4,0.8-0.6
			c0.8-0.6,1.6-1.2,2.4-1.7l0.3-0.2c0.2-0.1,0.3-0.2,0.5-0.3c0.3-0.2,0.5-0.3,0.8-0.5l0.7-0.5c0.6-0.4,1.3-0.8,1.9-1.2
			c0.3-0.2,0.6-0.4,0.9-0.5l0.9-0.5c0.6-0.3,1.1-0.7,1.7-1c1-0.5,2-1.1,3.1-1.6l0.8-0.4c0.9-0.4,1.8-0.9,2.7-1.3l0.7-0.3
			c1.1-0.5,2.2-0.9,3.3-1.4l0.7-0.3c1-0.4,1.9-0.7,2.9-1.1l0.6-0.2c1.1-0.4,2.2-0.7,3.4-1.1l0.8-0.2c1-0.3,2.1-0.6,3.2-0.8l0.4-0.1
			c0.9-0.2,1.8-0.4,2.8-0.6l-32.8-28.5c-0.7,0.1-1.5,0.3-2.3,0.4l-0.8,0.2c-1.2,0.2-2.3,0.5-3.3,0.7l-0.4,0.1c-1,0.3-2,0.5-3,0.8
			l-0.7,0.2c-1.1,0.3-2.1,0.6-3.2,1L87,20.1c-0.9,0.3-1.9,0.7-2.8,1l-1,0.4c-0.9,0.4-1.8,0.7-2.7,1.1l-0.6,0.3
			c-0.8,0.4-1.7,0.8-2.5,1.2l-0.7,0.4c-0.9,0.5-1.9,0.9-2.8,1.4L73.7,26c-0.5,0.3-1.1,0.6-1.6,0.9l-1,0.6c-0.3,0.2-0.6,0.3-0.8,0.5
			c-0.6,0.4-1.2,0.8-1.8,1.2l-0.8,0.5c-0.2,0.1-0.4,0.3-0.6,0.4c-0.2,0.1-0.3,0.2-0.4,0.3l-0.4,0.2c-0.8,0.5-1.6,1.1-2.3,1.6
			c-0.2,0.2-0.4,0.3-0.7,0.5l-0.9,0.7c-0.4,0.3-0.7,0.5-1.1,0.8L61,34.5c-0.2,0.2-0.5,0.4-0.7,0.6l-0.3,0.3c-0.6,0.5-1.2,1-1.8,1.5
			c-0.4,0.3-0.8,0.7-1.1,1l-0.4,0.4c-0.2,0.1-0.3,0.3-0.5,0.5c-0.1,0.1-0.3,0.3-0.4,0.4l-0.4,0.4c-0.4,0.3-0.7,0.7-1.1,1.1
			c-0.6,0.5-1.1,1.1-1.7,1.7l-0.2,0.2c-0.3,0.3-0.6,0.6-0.8,0.9L51,43.7c-0.7,0.7-1.4,1.5-2.1,2.2c-0.9,1-1.9,2.1-2.8,3.1
			c-0.2,0.2-0.4,0.4-0.5,0.6l-0.8,0.9c-0.4,0.5-0.9,1-1.3,1.6l-1,1.2c-0.6,0.7-1.2,1.5-1.8,2.2c-0.2,0.3-0.5,0.6-0.7,0.9L39.6,57
			c-0.5,0.7-1.1,1.4-1.6,2.1c-0.3,0.4-0.6,0.8-0.9,1.2l-0.2,0.3c-0.5,0.7-1,1.4-1.6,2.1c-0.4,0.5-0.8,1-1.1,1.6l-1.4,1.9
			c-0.6,0.9-1.3,1.8-1.9,2.7l-0.2,0.4c-0.3,0.4-0.6,0.9-0.9,1.3c-0.7,1-1.4,2-2,3l-1,1.4c-1,1.5-2,3-3,4.6c-1,1.6-2,3.2-3,4.7
			l-0.2,0.3c-0.7,1.2-1.5,2.4-2.2,3.6L17.8,89c-0.7,1.1-1.3,2.2-2,3.3l-0.7,1.2c-0.7,1.2-1.4,2.4-2.1,3.6l-0.4,0.7
			c-0.8,1.4-1.6,2.9-2.4,4.4l-0.6,1.2c-0.6,1.1-1.2,2.3-1.9,3.5l-0.7,1.3C6.6,109.1,6.1,110.1,5.6,111z"/>
	</g>
</g>
</svg>
